<svg xmlns="http://www.w3.org/2000/svg" viewBox="0 0 1536 256" width="1536" height="256">
  <defs>
  <filter id="goldGlow" x="-50%" y="-50%" width="200%" height="200%">
    <feGaussianBlur stdDeviation="3" result="blur"/>
    <feMerge><feMergeNode in="blur"/><feMergeNode in="SourceGraphic"/></feMerge>
  </filter>
  <filter id="heavyGoldGlow" x="-80%" y="-80%" width="260%" height="260%">
    <feGaussianBlur stdDeviation="5" result="blur1"/>
    <feGaussianBlur stdDeviation="1.5" result="blur2"/>
    <feMerge><feMergeNode in="blur1"/><feMergeNode in="blur2"/><feMergeNode in="SourceGraphic"/></feMerge>
  </filter>
  <filter id="sakuraGlow" x="-50%" y="-50%" width="200%" height="200%">
    <feGaussianBlur stdDeviation="3.5" result="blur"/>
    <feMerge><feMergeNode in="blur"/><feMergeNode in="SourceGraphic"/></feMerge>
  </filter>
  <filter id="inkMisty" x="-30%" y="-30%" width="160%" height="160%">
    <feGaussianBlur stdDeviation="1.5"/>
  </filter>
  <filter id="redGlow" x="-40%" y="-40%" width="180%" height="180%">
    <feGaussianBlur stdDeviation="3" result="blur"/>
    <feMerge><feMergeNode in="blur"/><feMergeNode in="SourceGraphic"/></feMerge>
  </filter>
  <linearGradient id="inkWashGrad" x1="0%" y1="0%" x2="100%" y2="100%">
    <stop offset="0%" stop-color="#e7f5ff"/><stop offset="60%" stop-color="#a5d8ff"/><stop offset="100%" stop-color="#74c0fc"/>
  </linearGradient>
  <linearGradient id="inkWashLight" x1="0%" y1="0%" x2="100%" y2="100%">
    <stop offset="0%" stop-color="#f8f9fa"/><stop offset="50%" stop-color="#e9ecef"/><stop offset="100%" stop-color="#dee2e6"/>
  </linearGradient>
  <linearGradient id="spiritGold" x1="0%" y1="0%" x2="100%" y2="0%">
    <stop offset="0%" stop-color="#fff9db"/><stop offset="35%" stop-color="#ffe066"/><stop offset="75%" stop-color="#ffd43b"/><stop offset="100%" stop-color="#fab005"/>
  </linearGradient>
  <linearGradient id="sacredMaple" x1="0%" y1="0%" x2="100%" y2="100%">
    <stop offset="0%" stop-color="#fff5f5"/><stop offset="50%" stop-color="#ffc9c9"/><stop offset="100%" stop-color="#ff8787"/>
  </linearGradient>
  <linearGradient id="sakuraBlade" x1="0%" y1="0%" x2="100%" y2="100%">
    <stop offset="0%" stop-color="#e3fafc"/><stop offset="40%" stop-color="#96f2d7"/><stop offset="85%" stop-color="#3bc9db"/><stop offset="100%" stop-color="#15aabf"/>
  </linearGradient>
  <linearGradient id="crimsonGaze" x1="0%" y1="0%" x2="100%" y2="100%">
    <stop offset="0%" stop-color="#ff8787"/><stop offset="60%" stop-color="#ff6b6b"/><stop offset="100%" stop-color="#495057"/>
  </linearGradient>
</defs>
  <g transform="translate(0, 0)"><clipPath id="boss_walk_sheet_frame0"><rect x="0" y="0" width="256" height="256"/></clipPath><g clip-path="url(#boss_walk_sheet_frame0)">
  <!-- Halo -->
  <circle cx="128" cy="108" r="70" fill="none" stroke="#e9ecef" stroke-width="8" opacity="0.3" filter="url(#inkMisty)"/>
  <circle cx="128" cy="108" r="45" fill="none" stroke="#74c0fc" stroke-width="3" stroke-dasharray="20 10" filter="url(#goldGlow)"/>
  <!-- Core Body -->
  <path d="M 68 48 L 188 48 L 208 148 L 48 148 Z" fill="url(#inkWashGrad)" stroke="#3bc9db" stroke-width="6"/>
  <!-- Core Eye -->
  <circle cx="128" cy="98" r="25" fill="#f8f9fa" stroke="#3bc9db" stroke-width="3" filter="url(#heavyGoldGlow)"/>
  <path d="M 128 78 A 12 12 0 0 0 128 118 A 12 12 0 0 1 128 78 Z" fill="#3bc9db"/>
  <circle cx="128" cy="98" r="5" fill="#ffffff"/>
  <!-- Shoulders -->
  <rect x="28" y="68" width="40" height="80" rx="8" fill="#e8f4fd" stroke="#74c0fc" stroke-width="4"/>
  <rect x="188" y="68" width="40" height="80" rx="8" fill="#e8f4fd" stroke="#74c0fc" stroke-width="4"/>
  <!-- Base -->
  <path d="M 58 148 L 198 148 L 168 228 L 88 228 Z" fill="#e9ecef" stroke="#ced4da" stroke-width="4"/>
  </g></g><g transform="translate(256, 0)"><clipPath id="boss_walk_sheet_frame1"><rect x="0" y="0" width="256" height="256"/></clipPath><g clip-path="url(#boss_walk_sheet_frame1)">
  <!-- Halo -->
  <circle cx="128" cy="108" r="70" fill="none" stroke="#e9ecef" stroke-width="8" opacity="0.3" filter="url(#inkMisty)"/>
  <circle cx="128" cy="108" r="45" fill="none" stroke="#74c0fc" stroke-width="3" stroke-dasharray="20 10" filter="url(#goldGlow)"/>
  <!-- Core Body -->
  <path d="M 68 48 L 188 48 L 208 148 L 48 148 Z" fill="url(#inkWashGrad)" stroke="#3bc9db" stroke-width="6"/>
  <!-- Core Eye -->
  <circle cx="128" cy="102.3301270189222" r="25" fill="#f8f9fa" stroke="#3bc9db" stroke-width="3" filter="url(#heavyGoldGlow)"/>
  <path d="M 128 82.3301270189222 A 12 12 0 0 0 128 122.3301270189222 A 12 12 0 0 1 128 82.3301270189222 Z" fill="#3bc9db"/>
  <circle cx="128" cy="102.3301270189222" r="5" fill="#ffffff"/>
  <!-- Shoulders -->
  <rect x="28" y="70.16506350946109" width="40" height="80" rx="8" fill="#e8f4fd" stroke="#74c0fc" stroke-width="4"/>
  <rect x="188" y="70.16506350946109" width="40" height="80" rx="8" fill="#e8f4fd" stroke="#74c0fc" stroke-width="4"/>
  <!-- Base -->
  <path d="M 58 148 L 198 148 L 168 228 L 88 228 Z" fill="#e9ecef" stroke="#ced4da" stroke-width="4"/>
  </g></g><g transform="translate(512, 0)"><clipPath id="boss_walk_sheet_frame2"><rect x="0" y="0" width="256" height="256"/></clipPath><g clip-path="url(#boss_walk_sheet_frame2)">
  <!-- Halo -->
  <circle cx="128" cy="108" r="70" fill="none" stroke="#e9ecef" stroke-width="8" opacity="0.3" filter="url(#inkMisty)"/>
  <circle cx="128" cy="108" r="45" fill="none" stroke="#74c0fc" stroke-width="3" stroke-dasharray="20 10" filter="url(#goldGlow)"/>
  <!-- Core Body -->
  <path d="M 68 48 L 188 48 L 208 148 L 48 148 Z" fill="url(#inkWashGrad)" stroke="#3bc9db" stroke-width="6"/>
  <!-- Core Eye -->
  <circle cx="128" cy="102.3301270189222" r="25" fill="#f8f9fa" stroke="#3bc9db" stroke-width="3" filter="url(#heavyGoldGlow)"/>
  <path d="M 128 82.3301270189222 A 12 12 0 0 0 128 122.3301270189222 A 12 12 0 0 1 128 82.3301270189222 Z" fill="#3bc9db"/>
  <circle cx="128" cy="102.3301270189222" r="5" fill="#ffffff"/>
  <!-- Shoulders -->
  <rect x="28" y="70.16506350946109" width="40" height="80" rx="8" fill="#e8f4fd" stroke="#74c0fc" stroke-width="4"/>
  <rect x="188" y="70.16506350946109" width="40" height="80" rx="8" fill="#e8f4fd" stroke="#74c0fc" stroke-width="4"/>
  <!-- Base -->
  <path d="M 58 148 L 198 148 L 168 228 L 88 228 Z" fill="#e9ecef" stroke="#ced4da" stroke-width="4"/>
  </g></g><g transform="translate(768, 0)"><clipPath id="boss_walk_sheet_frame3"><rect x="0" y="0" width="256" height="256"/></clipPath><g clip-path="url(#boss_walk_sheet_frame3)">
  <!-- Halo -->
  <circle cx="128" cy="108" r="70" fill="none" stroke="#e9ecef" stroke-width="8" opacity="0.3" filter="url(#inkMisty)"/>
  <circle cx="128" cy="108" r="45" fill="none" stroke="#74c0fc" stroke-width="3" stroke-dasharray="20 10" filter="url(#goldGlow)"/>
  <!-- Core Body -->
  <path d="M 68 48 L 188 48 L 208 148 L 48 148 Z" fill="url(#inkWashGrad)" stroke="#3bc9db" stroke-width="6"/>
  <!-- Core Eye -->
  <circle cx="128" cy="98" r="25" fill="#f8f9fa" stroke="#3bc9db" stroke-width="3" filter="url(#heavyGoldGlow)"/>
  <path d="M 128 78 A 12 12 0 0 0 128 118 A 12 12 0 0 1 128 78 Z" fill="#3bc9db"/>
  <circle cx="128" cy="98" r="5" fill="#ffffff"/>
  <!-- Shoulders -->
  <rect x="28" y="68" width="40" height="80" rx="8" fill="#e8f4fd" stroke="#74c0fc" stroke-width="4"/>
  <rect x="188" y="68" width="40" height="80" rx="8" fill="#e8f4fd" stroke="#74c0fc" stroke-width="4"/>
  <!-- Base -->
  <path d="M 58 148 L 198 148 L 168 228 L 88 228 Z" fill="#e9ecef" stroke="#ced4da" stroke-width="4"/>
  </g></g><g transform="translate(1024, 0)"><clipPath id="boss_walk_sheet_frame4"><rect x="0" y="0" width="256" height="256"/></clipPath><g clip-path="url(#boss_walk_sheet_frame4)">
  <!-- Halo -->
  <circle cx="128" cy="108" r="70" fill="none" stroke="#e9ecef" stroke-width="8" opacity="0.3" filter="url(#inkMisty)"/>
  <circle cx="128" cy="108" r="45" fill="none" stroke="#74c0fc" stroke-width="3" stroke-dasharray="20 10" filter="url(#goldGlow)"/>
  <!-- Core Body -->
  <path d="M 68 48 L 188 48 L 208 148 L 48 148 Z" fill="url(#inkWashGrad)" stroke="#3bc9db" stroke-width="6"/>
  <!-- Core Eye -->
  <circle cx="128" cy="93.6698729810778" r="25" fill="#f8f9fa" stroke="#3bc9db" stroke-width="3" filter="url(#heavyGoldGlow)"/>
  <path d="M 128 73.6698729810778 A 12 12 0 0 0 128 113.6698729810778 A 12 12 0 0 1 128 73.6698729810778 Z" fill="#3bc9db"/>
  <circle cx="128" cy="93.6698729810778" r="5" fill="#ffffff"/>
  <!-- Shoulders -->
  <rect x="28" y="65.83493649053891" width="40" height="80" rx="8" fill="#e8f4fd" stroke="#74c0fc" stroke-width="4"/>
  <rect x="188" y="65.83493649053891" width="40" height="80" rx="8" fill="#e8f4fd" stroke="#74c0fc" stroke-width="4"/>
  <!-- Base -->
  <path d="M 58 148 L 198 148 L 168 228 L 88 228 Z" fill="#e9ecef" stroke="#ced4da" stroke-width="4"/>
  </g></g><g transform="translate(1280, 0)"><clipPath id="boss_walk_sheet_frame5"><rect x="0" y="0" width="256" height="256"/></clipPath><g clip-path="url(#boss_walk_sheet_frame5)">
  <!-- Halo -->
  <circle cx="128" cy="108" r="70" fill="none" stroke="#e9ecef" stroke-width="8" opacity="0.3" filter="url(#inkMisty)"/>
  <circle cx="128" cy="108" r="45" fill="none" stroke="#74c0fc" stroke-width="3" stroke-dasharray="20 10" filter="url(#goldGlow)"/>
  <!-- Core Body -->
  <path d="M 68 48 L 188 48 L 208 148 L 48 148 Z" fill="url(#inkWashGrad)" stroke="#3bc9db" stroke-width="6"/>
  <!-- Core Eye -->
  <circle cx="128" cy="93.6698729810778" r="25" fill="#f8f9fa" stroke="#3bc9db" stroke-width="3" filter="url(#heavyGoldGlow)"/>
  <path d="M 128 73.6698729810778 A 12 12 0 0 0 128 113.6698729810778 A 12 12 0 0 1 128 73.6698729810778 Z" fill="#3bc9db"/>
  <circle cx="128" cy="93.6698729810778" r="5" fill="#ffffff"/>
  <!-- Shoulders -->
  <rect x="28" y="65.83493649053891" width="40" height="80" rx="8" fill="#e8f4fd" stroke="#74c0fc" stroke-width="4"/>
  <rect x="188" y="65.83493649053891" width="40" height="80" rx="8" fill="#e8f4fd" stroke="#74c0fc" stroke-width="4"/>
  <!-- Base -->
  <path d="M 58 148 L 198 148 L 168 228 L 88 228 Z" fill="#e9ecef" stroke="#ced4da" stroke-width="4"/>
  </g></g>
</svg>