<svg xmlns="http://www.w3.org/2000/svg" viewBox="0 0 140 120" width="140" height="120">
    <defs>
  <filter id="goldGlow" x="-50%" y="-50%" width="200%" height="200%">
    <feGaussianBlur stdDeviation="4.5" result="blur"/>
    <feMerge><feMergeNode in="blur"/><feMergeNode in="SourceGraphic"/></feMerge>
  </filter>
  <filter id="heavyGoldGlow" x="-80%" y="-80%" width="260%" height="260%">
    <feGaussianBlur stdDeviation="7" result="blur1"/>
    <feGaussianBlur stdDeviation="2.5" result="blur2"/>
    <feMerge><feMergeNode in="blur1"/><feMergeNode in="blur2"/><feMergeNode in="SourceGraphic"/></feMerge>
  </filter>
  <filter id="sakuraGlow" x="-50%" y="-50%" width="200%" height="200%">
    <feGaussianBlur stdDeviation="4" result="blur"/>
    <feMerge><feMergeNode in="blur"/><feMergeNode in="SourceGraphic"/></feMerge>
  </filter>
  <filter id="inkMisty" x="-30%" y="-30%" width="160%" height="160%">
    <feGaussianBlur stdDeviation="1.8"/>
  </filter>
  <filter id="redGlow" x="-40%" y="-40%" width="180%" height="180%">
    <feGaussianBlur stdDeviation="3.5" result="blur"/>
    <feMerge><feMergeNode in="blur"/><feMergeNode in="SourceGraphic"/></feMerge>
  </filter>
  <linearGradient id="inkWashGrad" x1="0%" y1="0%" x2="100%" y2="100%">
    <stop offset="0%" stop-color="#313244"/><stop offset="60%" stop-color="#11111b"/><stop offset="100%" stop-color="#11111b"/>
  </linearGradient>
  <linearGradient id="inkWashLight" x1="0%" y1="0%" x2="100%" y2="100%">
    <stop offset="0%" stop-color="#6c7086"/><stop offset="50%" stop-color="#45475a"/><stop offset="100%" stop-color="#1e1e2e"/>
  </linearGradient>
  <linearGradient id="spiritGold" x1="0%" y1="0%" x2="100%" y2="0%">
    <stop offset="0%" stop-color="#cdd6f4"/><stop offset="35%" stop-color="#f9e2af"/><stop offset="75%" stop-color="#fab387"/><stop offset="100%" stop-color="#fab387"/>
  </linearGradient>
  <linearGradient id="sacredMaple" x1="0%" y1="0%" x2="100%" y2="100%">
    <stop offset="0%" stop-color="#f38ba8"/><stop offset="50%" stop-color="#fab387"/><stop offset="100%" stop-color="#eba0ac"/>
  </linearGradient>
  <linearGradient id="sakuraBlade" x1="0%" y1="0%" x2="100%" y2="100%">
    <stop offset="0%" stop-color="#cdd6f4"/><stop offset="40%" stop-color="#f2cdcd"/><stop offset="85%" stop-color="#f5c2e7"/><stop offset="100%" stop-color="#cba6f7"/>
  </linearGradient>
  <linearGradient id="crimsonGaze" x1="0%" y1="0%" x2="100%" y2="100%">
    <stop offset="0%" stop-color="#f38ba8"/><stop offset="60%" stop-color="#eba0ac"/><stop offset="100%" stop-color="#1e1e2e"/>
  </linearGradient>
</defs>
    
  <circle cx="60" cy="66" r="54" fill="none" stroke="#181825" stroke-width="6" opacity="0.3" filter="url(#inkMisty)"/>
  <path d="M 8 26 L 60 6 L 112 26 L 102 98 L 18 98 Z" fill="url(#inkWashGrad)" stroke="#cba6f7" stroke-width="5.5"/>
  <path d="M 0 28 Q 60 0 120 28" fill="none" stroke="#fab387" stroke-width="6"/>
  <circle cx="60" cy="66" r="32" fill="none" stroke="#fab387" stroke-width="2" stroke-dasharray="15 8" filter="url(#goldGlow)"/>
  <circle cx="60" cy="66" r="18" fill="#1e1e2e" stroke="#fab387" stroke-width="2" filter="url(#heavyGoldGlow)"/>
  <path d="M 60 48 A 9 9 0 0 0 60 66 A 9 9 0 0 1 60 84 A 18 18 0 0 0 60 48 Z" fill="#fab387"/>
  <circle cx="60" cy="57" r="3" fill="#1e1e2e"/>
  <circle cx="60" cy="75" r="3" fill="#cdd6f4"/>
  <rect x="-14" y="26" width="30" height="52" rx="5" fill="#11111b" stroke="#cba6f7" stroke-width="3"/>
  <rect x="104" y="26" width="30" height="52" rx="5" fill="#11111b" stroke="#cba6f7" stroke-width="3"/>

  </svg>