<svg xmlns="http://www.w3.org/2000/svg" viewBox="0 0 140 120" width="140" height="120">
    <defs>
      <filter id="glow" x="-50%" y="-50%" width="200%" height="200%">
        <feGaussianBlur stdDeviation="2.5" result="blur" />
        <feComposite in="SourceGraphic" in2="blur" operator="over" />
      </filter>
      <filter id="heavyGlow" x="-50%" y="-50%" width="200%" height="200%">
        <feGaussianBlur stdDeviation="5" result="blur" />
        <feComposite in="SourceGraphic" in2="blur" operator="over" />
      </filter>
      <linearGradient id="metal" x1="0%" y1="0%" x2="100%" y2="100%">
        <stop offset="0%" stop-color="#3a3a4f"/>
        <stop offset="50%" stop-color="#1e1e2f"/>
        <stop offset="100%" stop-color="#0a0a14"/>
      </linearGradient>
      <linearGradient id="blade" x1="0%" y1="0%" x2="100%" y2="0%">
        <stop offset="0%" stop-color="#ffffff"/>
        <stop offset="100%" stop-color="#00ffff"/>
      </linearGradient>
      <linearGradient id="energy" x1="0%" y1="0%" x2="100%" y2="100%">
        <stop offset="0%" stop-color="#ff0055"/>
        <stop offset="100%" stop-color="#ff9900"/>
      </linearGradient>
    </defs>
    
  <path d="M 10 30 L 60 10 L 110 30 L 100 100 L 20 100 Z" fill="#1a0b12" stroke="#ffaa00" stroke-width="4"/>
  <polygon points="60,10 40,-15 50,10" fill="#ffaa00"/>
  <polygon points="60,10 80,-15 70,10" fill="#ffaa00"/>
  <!-- Glowing eyes warning -->
  <circle cx="48" cy="37" r="6" fill="#ffaa00" filter="url(#heavyGlow)"/>
  <circle cx="72" cy="37" r="6" fill="#ffaa00" filter="url(#heavyGlow)"/>
  <!-- Core charging -->
  <circle cx="60" cy="70" r="20" fill="none" stroke="#ffaa00" stroke-width="3" filter="url(#heavyGlow)"/>
  <circle cx="60" cy="70" r="12" fill="#ffaa00" filter="url(#heavyGlow)"/>
  <circle cx="60" cy="70" r="5" fill="#fff"/>
  <!-- Raised arms -->
  <rect x="-15" y="10" width="30" height="50" rx="10" fill="#111" stroke="#ffaa00" stroke-width="3" transform="rotate(-30 0 35)"/>
  <rect x="105" y="10" width="30" height="50" rx="10" fill="#111" stroke="#ffaa00" stroke-width="3" transform="rotate(30 120 35)"/>

  </svg>