<svg xmlns="http://www.w3.org/2000/svg" viewBox="0 0 160 120" width="160" height="120">
    <defs>
      <filter id="glow" x="-50%" y="-50%" width="200%" height="200%">
        <feGaussianBlur stdDeviation="2.5" result="blur" />
        <feComposite in="SourceGraphic" in2="blur" operator="over" />
      </filter>
      <filter id="heavyGlow" x="-50%" y="-50%" width="200%" height="200%">
        <feGaussianBlur stdDeviation="5" result="blur" />
        <feComposite in="SourceGraphic" in2="blur" operator="over" />
      </filter>
      <linearGradient id="metal" x1="0%" y1="0%" x2="100%" y2="100%">
        <stop offset="0%" stop-color="#3a3a4f"/>
        <stop offset="50%" stop-color="#1e1e2f"/>
        <stop offset="100%" stop-color="#0a0a14"/>
      </linearGradient>
      <linearGradient id="blade" x1="0%" y1="0%" x2="100%" y2="0%">
        <stop offset="0%" stop-color="#ffffff"/>
        <stop offset="100%" stop-color="#00ffff"/>
      </linearGradient>
      <linearGradient id="energy" x1="0%" y1="0%" x2="100%" y2="100%">
        <stop offset="0%" stop-color="#ff0055"/>
        <stop offset="100%" stop-color="#ff9900"/>
      </linearGradient>
    </defs>
    
  <g transform="rotate(15 60 60)">
    <path d="M 10 30 L 60 10 L 110 30 L 100 100 L 20 100 Z" fill="#1a0b12" stroke="#ff0000" stroke-width="4"/>
    <!-- Angry Eyes -->
    <line x1="40" y1="30" x2="55" y2="38" stroke="#ff0000" stroke-width="5" filter="url(#heavyGlow)"/>
    <line x1="80" y1="30" x2="65" y2="38" stroke="#ff0000" stroke-width="5" filter="url(#heavyGlow)"/>
    <!-- Core overheating -->
    <circle cx="60" cy="70" r="18" fill="#ff0000" filter="url(#heavyGlow)"/>
    <circle cx="60" cy="70" r="8" fill="#ffffff"/>
    <!-- Speed lines -->
    <line x1="-20" y1="50" x2="-50" y2="50" stroke="#ff0055" stroke-width="6" filter="url(#glow)"/>
    <line x1="-15" y1="70" x2="-45" y2="70" stroke="#ff0055" stroke-width="4" filter="url(#glow)"/>
    <line x1="-10" y1="90" x2="-40" y2="90" stroke="#ff0055" stroke-width="5" filter="url(#glow)"/>
  </g>

  </svg>