<svg xmlns="http://www.w3.org/2000/svg" viewBox="0 0 360 120" width="360" height="120">
  <defs>
  <filter id="goldGlow" x="-50%" y="-50%" width="200%" height="200%">
    <feGaussianBlur stdDeviation="3" result="blur"/>
    <feMerge><feMergeNode in="blur"/><feMergeNode in="SourceGraphic"/></feMerge>
  </filter>
  <filter id="heavyGoldGlow" x="-80%" y="-80%" width="260%" height="260%">
    <feGaussianBlur stdDeviation="5" result="blur1"/>
    <feGaussianBlur stdDeviation="1.5" result="blur2"/>
    <feMerge><feMergeNode in="blur1"/><feMergeNode in="blur2"/><feMergeNode in="SourceGraphic"/></feMerge>
  </filter>
  <filter id="sakuraGlow" x="-50%" y="-50%" width="200%" height="200%">
    <feGaussianBlur stdDeviation="3.5" result="blur"/>
    <feMerge><feMergeNode in="blur"/><feMergeNode in="SourceGraphic"/></feMerge>
  </filter>
  <filter id="inkMisty" x="-30%" y="-30%" width="160%" height="160%">
    <feGaussianBlur stdDeviation="1.5"/>
  </filter>
  <filter id="redGlow" x="-40%" y="-40%" width="180%" height="180%">
    <feGaussianBlur stdDeviation="3" result="blur"/>
    <feMerge><feMergeNode in="blur"/><feMergeNode in="SourceGraphic"/></feMerge>
  </filter>
  <linearGradient id="inkWashGrad" x1="0%" y1="0%" x2="100%" y2="100%">
    <stop offset="0%" stop-color="#e7f5ff"/><stop offset="60%" stop-color="#a5d8ff"/><stop offset="100%" stop-color="#74c0fc"/>
  </linearGradient>
  <linearGradient id="inkWashLight" x1="0%" y1="0%" x2="100%" y2="100%">
    <stop offset="0%" stop-color="#f8f9fa"/><stop offset="50%" stop-color="#e9ecef"/><stop offset="100%" stop-color="#dee2e6"/>
  </linearGradient>
  <linearGradient id="spiritGold" x1="0%" y1="0%" x2="100%" y2="0%">
    <stop offset="0%" stop-color="#fff9db"/><stop offset="35%" stop-color="#ffe066"/><stop offset="75%" stop-color="#ffd43b"/><stop offset="100%" stop-color="#fab005"/>
  </linearGradient>
  <linearGradient id="sacredMaple" x1="0%" y1="0%" x2="100%" y2="100%">
    <stop offset="0%" stop-color="#fff5f5"/><stop offset="50%" stop-color="#ffc9c9"/><stop offset="100%" stop-color="#ff8787"/>
  </linearGradient>
  <linearGradient id="sakuraBlade" x1="0%" y1="0%" x2="100%" y2="100%">
    <stop offset="0%" stop-color="#e3fafc"/><stop offset="40%" stop-color="#96f2d7"/><stop offset="85%" stop-color="#3bc9db"/><stop offset="100%" stop-color="#15aabf"/>
  </linearGradient>
  <linearGradient id="crimsonGaze" x1="0%" y1="0%" x2="100%" y2="100%">
    <stop offset="0%" stop-color="#ff8787"/><stop offset="60%" stop-color="#ff6b6b"/><stop offset="100%" stop-color="#495057"/>
  </linearGradient>
</defs>
  <g transform="translate(0, 0)"><clipPath id="enemy_sniper_shoot_sheet_frame0"><rect x="0" y="0" width="120" height="120"/></clipPath><g clip-path="url(#enemy_sniper_shoot_sheet_frame0)">
  <line x1="48" y1="70" x2="45" y2="90" stroke="#495057" stroke-width="5"/>
  <line x1="68" y1="70" x2="75" y2="90" stroke="#495057" stroke-width="5"/>
  <rect x="42" y="45" width="30" height="25" rx="3" fill="url(#inkWashGrad)" stroke="#20c997" stroke-width="2"/>
  <line x1="55" y1="55" x2="95" y2="55" stroke="#343a40" stroke-width="3"/>
  <!-- Muzzle flash -->
  <circle cx="100" cy="55" r="12" fill="#ff6b6b" filter="url(#redGlow)" opacity="0.8"/>
  </g></g><g transform="translate(120, 0)"><clipPath id="enemy_sniper_shoot_sheet_frame1"><rect x="0" y="0" width="120" height="120"/></clipPath><g clip-path="url(#enemy_sniper_shoot_sheet_frame1)">
  <line x1="48" y1="70" x2="45" y2="90" stroke="#495057" stroke-width="5"/>
  <line x1="68" y1="70" x2="75" y2="90" stroke="#495057" stroke-width="5"/>
  <rect x="42" y="45" width="30" height="25" rx="3" fill="url(#inkWashGrad)" stroke="#20c997" stroke-width="2"/>
  <line x1="55" y1="55" x2="95" y2="55" stroke="#343a40" stroke-width="3"/>
  <!-- Muzzle flash -->
  <circle cx="100" cy="55" r="12" fill="#ff6b6b" filter="url(#redGlow)" opacity="0.8"/>
  </g></g><g transform="translate(240, 0)"><clipPath id="enemy_sniper_shoot_sheet_frame2"><rect x="0" y="0" width="120" height="120"/></clipPath><g clip-path="url(#enemy_sniper_shoot_sheet_frame2)">
  <line x1="48" y1="70" x2="45" y2="90" stroke="#495057" stroke-width="5"/>
  <line x1="68" y1="70" x2="75" y2="90" stroke="#495057" stroke-width="5"/>
  <rect x="42" y="45" width="30" height="25" rx="3" fill="url(#inkWashGrad)" stroke="#20c997" stroke-width="2"/>
  <line x1="55" y1="55" x2="95" y2="55" stroke="#343a40" stroke-width="3"/>
  <!-- Muzzle flash -->
  
  </g></g>
</svg>