<svg xmlns="http://www.w3.org/2000/svg" viewBox="0 0 80 80" width="80" height="80">
    <defs>
      <!-- Premium Oriental Cyber-Zen Filters -->
      <filter id="goldGlow" x="-50%" y="-50%" width="200%" height="200%">
        <feGaussianBlur stdDeviation="4.5" result="blur" />
        <feMerge>
          <feMergeNode in="blur" />
          <feMergeNode in="SourceGraphic" />
        </feMerge>
      </filter>
      <filter id="heavyGoldGlow" x="-80%" y="-80%" width="260%" height="260%">
        <feGaussianBlur stdDeviation="7" result="blur1" />
        <feGaussianBlur stdDeviation="2.5" result="blur2" />
        <feMerge>
          <feMergeNode in="blur1" />
          <feMergeNode in="blur2" />
          <feMergeNode in="SourceGraphic" />
        </feMerge>
      </filter>
      <filter id="sakuraGlow" x="-50%" y="-50%" width="200%" height="200%">
        <feGaussianBlur stdDeviation="4" result="blur" />
        <feMerge>
          <feMergeNode in="blur" />
          <feMergeNode in="SourceGraphic" />
        </feMerge>
      </filter>
      <filter id="inkMisty" x="-30%" y="-30%" width="160%" height="160%">
        <feGaussianBlur stdDeviation="1.8" />
      </filter>
      <filter id="redGlow" x="-40%" y="-40%" width="180%" height="180%">
        <feGaussianBlur stdDeviation="3.5" result="blur" />
        <feMerge>
          <feMergeNode in="blur" />
          <feMergeNode in="SourceGraphic" />
        </feMerge>
      </filter>

      <!-- Advanced Cyber-Zen Gradients -->
      <linearGradient id="inkWashGrad" x1="0%" y1="0%" x2="100%" y2="100%">
        <stop offset="0%" stop-color="#2a2a2a"/>
        <stop offset="60%" stop-color="#121212"/>
        <stop offset="100%" stop-color="#050505"/>
      </linearGradient>
      <linearGradient id="inkWashLight" x1="0%" y1="0%" x2="100%" y2="100%">
        <stop offset="0%" stop-color="#6e6e6e"/>
        <stop offset="50%" stop-color="#3c3c3c"/>
        <stop offset="100%" stop-color="#1c1c1c"/>
      </linearGradient>
      <linearGradient id="spiritGold" x1="0%" y1="0%" x2="100%" y2="0%">
        <stop offset="0%" stop-color="#ffffff"/>
        <stop offset="35%" stop-color="#ffe680"/>
        <stop offset="75%" stop-color="#e5c158"/>
        <stop offset="100%" stop-color="#b8860b"/>
      </linearGradient>
      <linearGradient id="sacredMaple" x1="0%" y1="0%" x2="100%" y2="100%">
        <stop offset="0%" stop-color="#ff2200"/>
        <stop offset="50%" stop-color="#d43f00"/>
        <stop offset="100%" stop-color="#800000"/>
      </linearGradient>
      <linearGradient id="sakuraBlade" x1="0%" y1="0%" x2="100%" y2="100%">
        <stop offset="0%" stop-color="#ffffff"/>
        <stop offset="40%" stop-color="#ffb3d9"/>
        <stop offset="85%" stop-color="#ff3399"/>
        <stop offset="100%" stop-color="#cc0066"/>
      </linearGradient>
      <linearGradient id="crimsonGaze" x1="0%" y1="0%" x2="100%" y2="100%">
        <stop offset="0%" stop-color="#ff3333"/>
        <stop offset="60%" stop-color="#aa0000"/>
        <stop offset="100%" stop-color="#550000"/>
      </linearGradient>
    </defs>
    
  <!-- Heavy carbon block armor in samurai design -->
  <path d="M 16 24 L 56 24 L 60 55 L 12 55 Z" fill="url(#inkWashGrad)" stroke="#cc1100" stroke-width="2.5"/>
  <path d="M 12 55 L 60 55 L 56 68 L 16 68 Z" fill="#cc1100" stroke="#151515" stroke-width="1"/>
  
  <!-- Glowing orange panel lines -->
  <path d="M 22 34 L 50 34 M 24 42 L 48 42 M 26 50 L 46 50" stroke="#cc1100" stroke-width="1.8"/>
  <circle cx="36" cy="38" r="6" fill="#e5c158" filter="url(#goldGlow)"/>
  
  <!-- Cyber samurai helm with glowing optic sensor -->
  <rect x="24" y="8" width="24" height="16" rx="2" fill="#1c1c1c" stroke="#cc1100" stroke-width="1.5"/>
  <path d="M 20 6 L 24 10 L 28 8" fill="#cc1100"/>
  <path d="M 52 6 L 48 10 L 44 8" fill="#cc1100"/>
  <rect x="28" y="13" width="16" height="4" fill="#e5c158" filter="url(#goldGlow)"/>

  <!-- High-voltage electric stun naginata spear -->
  <rect x="56" y="16" width="4" height="48" fill="#333" stroke="#cc1100" stroke-width="0.8"/>
  <path d="M 55 16 C 55 0 65 -8 72 -14 L 75 -10 C 65 0 58 10 58 16" fill="url(#spiritGold)" filter="url(#goldGlow)"/>
  <!-- Gold sparks around Naginata blade -->
  <path d="M 56 4 C 64 12 66 22 58 32" fill="none" stroke="#e5c158" stroke-width="2" filter="url(#goldGlow)"/>

  </svg>