<svg xmlns="http://www.w3.org/2000/svg" viewBox="0 0 450 150" width="450" height="150">
  <defs>
  <filter id="goldGlow" x="-50%" y="-50%" width="200%" height="200%">
    <feGaussianBlur stdDeviation="3" result="blur"/>
    <feMerge><feMergeNode in="blur"/><feMergeNode in="SourceGraphic"/></feMerge>
  </filter>
  <filter id="heavyGoldGlow" x="-80%" y="-80%" width="260%" height="260%">
    <feGaussianBlur stdDeviation="5" result="blur1"/>
    <feGaussianBlur stdDeviation="1.5" result="blur2"/>
    <feMerge><feMergeNode in="blur1"/><feMergeNode in="blur2"/><feMergeNode in="SourceGraphic"/></feMerge>
  </filter>
  <filter id="sakuraGlow" x="-50%" y="-50%" width="200%" height="200%">
    <feGaussianBlur stdDeviation="3.5" result="blur"/>
    <feMerge><feMergeNode in="blur"/><feMergeNode in="SourceGraphic"/></feMerge>
  </filter>
  <filter id="inkMisty" x="-30%" y="-30%" width="160%" height="160%">
    <feGaussianBlur stdDeviation="1.5"/>
  </filter>
  <filter id="redGlow" x="-40%" y="-40%" width="180%" height="180%">
    <feGaussianBlur stdDeviation="3" result="blur"/>
    <feMerge><feMergeNode in="blur"/><feMergeNode in="SourceGraphic"/></feMerge>
  </filter>
  <linearGradient id="inkWashGrad" x1="0%" y1="0%" x2="100%" y2="100%">
    <stop offset="0%" stop-color="#e7f5ff"/><stop offset="60%" stop-color="#a5d8ff"/><stop offset="100%" stop-color="#74c0fc"/>
  </linearGradient>
  <linearGradient id="inkWashLight" x1="0%" y1="0%" x2="100%" y2="100%">
    <stop offset="0%" stop-color="#f8f9fa"/><stop offset="50%" stop-color="#e9ecef"/><stop offset="100%" stop-color="#dee2e6"/>
  </linearGradient>
  <linearGradient id="spiritGold" x1="0%" y1="0%" x2="100%" y2="0%">
    <stop offset="0%" stop-color="#fff9db"/><stop offset="35%" stop-color="#ffe066"/><stop offset="75%" stop-color="#ffd43b"/><stop offset="100%" stop-color="#fab005"/>
  </linearGradient>
  <linearGradient id="sacredMaple" x1="0%" y1="0%" x2="100%" y2="100%">
    <stop offset="0%" stop-color="#fff5f5"/><stop offset="50%" stop-color="#ffc9c9"/><stop offset="100%" stop-color="#ff8787"/>
  </linearGradient>
  <linearGradient id="sakuraBlade" x1="0%" y1="0%" x2="100%" y2="100%">
    <stop offset="0%" stop-color="#e3fafc"/><stop offset="40%" stop-color="#96f2d7"/><stop offset="85%" stop-color="#3bc9db"/><stop offset="100%" stop-color="#15aabf"/>
  </linearGradient>
  <linearGradient id="crimsonGaze" x1="0%" y1="0%" x2="100%" y2="100%">
    <stop offset="0%" stop-color="#ff8787"/><stop offset="60%" stop-color="#ff6b6b"/><stop offset="100%" stop-color="#495057"/>
  </linearGradient>
</defs>
  <g transform="translate(0, 0)"><clipPath id="enemy_axe_windup_sheet_frame0"><rect x="0" y="0" width="150" height="150"/></clipPath><g clip-path="url(#enemy_axe_windup_sheet_frame0)">
  <rect x="55" y="85" width="12" height="30" fill="#495057"/>
  <rect x="83" y="85" width="12" height="30" fill="#495057"/>
  <rect x="50" y="40" width="60" height="50" rx="10" fill="url(#inkWashGrad)" stroke="#ff922b" stroke-width="3"/>
  <circle cx="80" cy="60" r="8" fill="#ff6b6b" filter="url(#redGlow)"/>
  <!-- Axe raised -->
  <line x1="65" y1="55" x2="45" y2="25" stroke="#ff922b" stroke-width="4"/>
  <path d="M 35 35 Q 45 15 60 10 Z" fill="#f8f9fa" stroke="#ff922b" stroke-width="2"/>
  </g></g><g transform="translate(150, 0)"><clipPath id="enemy_axe_windup_sheet_frame1"><rect x="0" y="0" width="150" height="150"/></clipPath><g clip-path="url(#enemy_axe_windup_sheet_frame1)">
  <rect x="55" y="85" width="12" height="30" fill="#495057"/>
  <rect x="83" y="85" width="12" height="30" fill="#495057"/>
  <rect x="50" y="40" width="60" height="50" rx="10" fill="url(#inkWashGrad)" stroke="#ff922b" stroke-width="3"/>
  <circle cx="80" cy="60" r="8" fill="#ff6b6b" filter="url(#redGlow)"/>
  <!-- Axe raised -->
  <line x1="65" y1="55" x2="45" y2="25" stroke="#ff922b" stroke-width="4"/>
  <path d="M 35 35 Q 45 15 60 10 Z" fill="#f8f9fa" stroke="#ff922b" stroke-width="2"/>
  </g></g><g transform="translate(300, 0)"><clipPath id="enemy_axe_windup_sheet_frame2"><rect x="0" y="0" width="150" height="150"/></clipPath><g clip-path="url(#enemy_axe_windup_sheet_frame2)">
  <rect x="55" y="85" width="12" height="30" fill="#495057"/>
  <rect x="83" y="85" width="12" height="30" fill="#495057"/>
  <rect x="50" y="40" width="60" height="50" rx="10" fill="url(#inkWashGrad)" stroke="#ff922b" stroke-width="3"/>
  <circle cx="80" cy="60" r="8" fill="#ff6b6b" filter="url(#redGlow)"/>
  <!-- Axe raised -->
  <line x1="65" y1="55" x2="45" y2="25" stroke="#ff922b" stroke-width="4"/>
  <path d="M 35 35 Q 45 15 60 10 Z" fill="#f8f9fa" stroke="#ff922b" stroke-width="2"/>
  </g></g>
</svg>