<svg xmlns="http://www.w3.org/2000/svg" viewBox="0 0 80 80" width="80" height="80">
    <defs>
      <!-- Premium Oriental Cyber-Zen Filters -->
      <filter id="goldGlow" x="-50%" y="-50%" width="200%" height="200%">
        <feGaussianBlur stdDeviation="4.5" result="blur" />
        <feMerge>
          <feMergeNode in="blur" />
          <feMergeNode in="SourceGraphic" />
        </feMerge>
      </filter>
      <filter id="heavyGoldGlow" x="-80%" y="-80%" width="260%" height="260%">
        <feGaussianBlur stdDeviation="7" result="blur1" />
        <feGaussianBlur stdDeviation="2.5" result="blur2" />
        <feMerge>
          <feMergeNode in="blur1" />
          <feMergeNode in="blur2" />
          <feMergeNode in="SourceGraphic" />
        </feMerge>
      </filter>
      <filter id="sakuraGlow" x="-50%" y="-50%" width="200%" height="200%">
        <feGaussianBlur stdDeviation="4" result="blur" />
        <feMerge>
          <feMergeNode in="blur" />
          <feMergeNode in="SourceGraphic" />
        </feMerge>
      </filter>
      <filter id="inkMisty" x="-30%" y="-30%" width="160%" height="160%">
        <feGaussianBlur stdDeviation="1.8" />
      </filter>
      <filter id="redGlow" x="-40%" y="-40%" width="180%" height="180%">
        <feGaussianBlur stdDeviation="3.5" result="blur" />
        <feMerge>
          <feMergeNode in="blur" />
          <feMergeNode in="SourceGraphic" />
        </feMerge>
      </filter>

      <!-- Advanced Cyber-Zen Gradients -->
      <linearGradient id="inkWashGrad" x1="0%" y1="0%" x2="100%" y2="100%">
        <stop offset="0%" stop-color="#313244"/>
        <stop offset="60%" stop-color="#11111b"/>
        <stop offset="100%" stop-color="#11111b"/>
      </linearGradient>
      <linearGradient id="inkWashLight" x1="0%" y1="0%" x2="100%" y2="100%">
        <stop offset="0%" stop-color="#6c7086"/>
        <stop offset="50%" stop-color="#45475a"/>
        <stop offset="100%" stop-color="#1e1e2e"/>
      </linearGradient>
      <linearGradient id="spiritGold" x1="0%" y1="0%" x2="100%" y2="0%">
        <stop offset="0%" stop-color="#cdd6f4"/>
        <stop offset="35%" stop-color="#f9e2af"/>
        <stop offset="75%" stop-color="#fab387"/>
        <stop offset="100%" stop-color="#fab387"/>
      </linearGradient>
      <linearGradient id="sacredMaple" x1="0%" y1="0%" x2="100%" y2="100%">
        <stop offset="0%" stop-color="#f38ba8"/>
        <stop offset="50%" stop-color="#fab387"/>
        <stop offset="100%" stop-color="#eba0ac"/>
      </linearGradient>
      <linearGradient id="sakuraBlade" x1="0%" y1="0%" x2="100%" y2="100%">
        <stop offset="0%" stop-color="#cdd6f4"/>
        <stop offset="40%" stop-color="#f2cdcd"/>
        <stop offset="85%" stop-color="#f5c2e7"/>
        <stop offset="100%" stop-color="#cba6f7"/>
      </linearGradient>
      <linearGradient id="crimsonGaze" x1="0%" y1="0%" x2="100%" y2="100%">
        <stop offset="0%" stop-color="#f38ba8"/>
        <stop offset="60%" stop-color="#eba0ac"/>
        <stop offset="100%" stop-color="#1e1e2e"/>
      </linearGradient>
    </defs>
    
  <!-- Vertical calligraphic ink splatter trail -->
  <path d="M 40 18 C 34 46 28 70 20 96 C 42 72 46 46 42 18" fill="url(#inkWashGrad)" filter="url(#inkMisty)"/>
  <path d="M 40 22 C 37 40 34 58 31 76 C 43 58 44 40 41 22" fill="url(#sacredMaple)" opacity="0.6"/>

  <g transform="translate(0, -6)">
    <!-- Tucked cyber-shrine shell -->
    <path d="M 26 18 L 54 18 L 44 48 L 30 48 Z" fill="url(#inkWashGrad)" stroke="#fab387" stroke-width="1.5"/>
    <circle cx="40" cy="28" r="6" fill="#fab387" filter="url(#goldGlow)"/>
    
    <!-- Tucked legs in red silk loops -->
    <path d="M 30 48 C 18 62 14 74 12 82" stroke="#cba6f7" stroke-width="4.5" stroke-linecap="round"/>
    <path d="M 44 48 C 56 62 60 74 62 82" stroke="#fab387" stroke-width="4.5" stroke-linecap="round" filter="url(#goldGlow)"/>
    
    <!-- Head tucked down inside the round straw hat -->
    <ellipse cx="40" cy="12" rx="22" ry="6" fill="url(#inkWashLight)" stroke="#fab387" stroke-width="1.5"/>
    <path d="M 18 12 Q 40 -4 62 12 Z" fill="url(#inkWashGrad)" stroke="#fab387" stroke-width="1.2"/>
  </g>

  </svg>