<svg xmlns="http://www.w3.org/2000/svg" viewBox="0 0 110 80" width="110" height="80">
    <defs>
      <!-- High-Fidelity Filters -->
      <filter id="cyanGlow" x="-50%" y="-50%" width="200%" height="200%">
        <feGaussianBlur stdDeviation="3" result="blur" />
        <feMerge>
          <feMergeNode in="blur" />
          <feMergeNode in="SourceGraphic" />
        </feMerge>
      </filter>
      <filter id="heavyCyanGlow" x="-80%" y="-80%" width="260%" height="260%">
        <feGaussianBlur stdDeviation="6" result="blur1" />
        <feGaussianBlur stdDeviation="2" result="blur2" />
        <feMerge>
          <feMergeNode in="blur1" />
          <feMergeNode in="blur2" />
          <feMergeNode in="SourceGraphic" />
        </feMerge>
      </filter>
      <filter id="pinkGlow" x="-50%" y="-50%" width="200%" height="200%">
        <feGaussianBlur stdDeviation="3.5" result="blur" />
        <feMerge>
          <feMergeNode in="blur" />
          <feMergeNode in="SourceGraphic" />
        </feMerge>
      </filter>
      <filter id="greenGlow" x="-50%" y="-50%" width="200%" height="200%">
        <feGaussianBlur stdDeviation="3" result="blur" />
        <feMerge>
          <feMergeNode in="blur" />
          <feMergeNode in="SourceGraphic" />
        </feMerge>
      </filter>
      <filter id="orangeGlow" x="-50%" y="-50%" width="200%" height="200%">
        <feGaussianBlur stdDeviation="4.5" result="blur" />
        <feMerge>
          <feMergeNode in="blur" />
          <feMergeNode in="SourceGraphic" />
        </feMerge>
      </filter>

      <!-- Advanced Cyber Gradients -->
      <linearGradient id="cyberMetal" x1="0%" y1="0%" x2="100%" y2="100%">
        <stop offset="0%" stop-color="#2a2a3e"/>
        <stop offset="35%" stop-color="#1b1b26"/>
        <stop offset="70%" stop-color="#0e0e16"/>
        <stop offset="100%" stop-color="#050508"/>
      </linearGradient>
      <linearGradient id="cyberMetalLight" x1="0%" y1="0%" x2="100%" y2="100%">
        <stop offset="0%" stop-color="#4e4e6a"/>
        <stop offset="50%" stop-color="#2a2a3c"/>
        <stop offset="100%" stop-color="#14141e"/>
      </linearGradient>
      <linearGradient id="ninjaBlade" x1="0%" y1="0%" x2="100%" y2="0%">
        <stop offset="0%" stop-color="#ffffff"/>
        <stop offset="30%" stop-color="#dffffc"/>
        <stop offset="75%" stop-color="#00ffff"/>
        <stop offset="100%" stop-color="#0088cc"/>
      </linearGradient>
      <linearGradient id="cyberScarf" x1="0%" y1="0%" x2="100%" y2="100%">
        <stop offset="0%" stop-color="#ff0055"/>
        <stop offset="45%" stop-color="#ff3300"/>
        <stop offset="90%" stop-color="#ffcc00"/>
      </linearGradient>
      <linearGradient id="plasmaBlue" x1="0%" y1="0%" x2="100%" y2="100%">
        <stop offset="0%" stop-color="#ffffff"/>
        <stop offset="50%" stop-color="#00ffff"/>
        <stop offset="100%" stop-color="#0033aa"/>
      </linearGradient>
      <linearGradient id="heavyAxe" x1="0%" y1="0%" x2="100%" y2="100%">
        <stop offset="0%" stop-color="#ff3333"/>
        <stop offset="50%" stop-color="#ff7700"/>
        <stop offset="100%" stop-color="#550000"/>
      </linearGradient>
      <linearGradient id="ninjaGreen" x1="0%" y1="0%" x2="100%" y2="100%">
        <stop offset="0%" stop-color="#00ffcc"/>
        <stop offset="60%" stop-color="#00ff55"/>
        <stop offset="100%" stop-color="#003311"/>
      </linearGradient>
    </defs>
    
  <!-- Beautiful upward slash curve -->
  <path d="M 26 62 Q 58 32 98 6 L 92 16 Q 54 40 32 67 Z" fill="url(#ninjaBlade)" filter="url(#heavyCyanGlow)" opacity="0.75"/>
  <path d="M 32 58 Q 58 32 92 10 L 88 15 Q 54 38 36 61 Z" fill="#ffffff" opacity="0.95"/>

  <g transform="rotate(-8 40 40)">
    <path d="M 22 24 L 50 24 L 44 54 L 26 54 Z" fill="url(#cyberMetal)" stroke="#00ffff" stroke-width="1.5"/>
    <path d="M 24 16 Q 36 -4 48 16 Z" fill="#0f0f18"/>
    <!-- Uppercut swing arm -->
    <path d="M 40 28 L 66 14 L 64 21 L 38 34 Z" fill="url(#cyberMetalLight)"/>
  </g>
  <!-- Katana raised diagonal -->
  <path d="M 62 16 L 102 -6 L 99 1 L 59 22 Z" fill="url(#ninjaBlade)" filter="url(#heavyCyanGlow)"/>

  </svg>