<svg xmlns="http://www.w3.org/2000/svg" viewBox="0 0 360 120" width="360" height="120">
  <defs>
  <filter id="goldGlow" x="-50%" y="-50%" width="200%" height="200%">
    <feGaussianBlur stdDeviation="3" result="blur"/>
    <feMerge><feMergeNode in="blur"/><feMergeNode in="SourceGraphic"/></feMerge>
  </filter>
  <filter id="heavyGoldGlow" x="-80%" y="-80%" width="260%" height="260%">
    <feGaussianBlur stdDeviation="5" result="blur1"/>
    <feGaussianBlur stdDeviation="1.5" result="blur2"/>
    <feMerge><feMergeNode in="blur1"/><feMergeNode in="blur2"/><feMergeNode in="SourceGraphic"/></feMerge>
  </filter>
  <filter id="sakuraGlow" x="-50%" y="-50%" width="200%" height="200%">
    <feGaussianBlur stdDeviation="3.5" result="blur"/>
    <feMerge><feMergeNode in="blur"/><feMergeNode in="SourceGraphic"/></feMerge>
  </filter>
  <filter id="inkMisty" x="-30%" y="-30%" width="160%" height="160%">
    <feGaussianBlur stdDeviation="1.5"/>
  </filter>
  <filter id="redGlow" x="-40%" y="-40%" width="180%" height="180%">
    <feGaussianBlur stdDeviation="3" result="blur"/>
    <feMerge><feMergeNode in="blur"/><feMergeNode in="SourceGraphic"/></feMerge>
  </filter>
  <linearGradient id="inkWashGrad" x1="0%" y1="0%" x2="100%" y2="100%">
    <stop offset="0%" stop-color="#e7f5ff"/><stop offset="60%" stop-color="#a5d8ff"/><stop offset="100%" stop-color="#74c0fc"/>
  </linearGradient>
  <linearGradient id="inkWashLight" x1="0%" y1="0%" x2="100%" y2="100%">
    <stop offset="0%" stop-color="#f8f9fa"/><stop offset="50%" stop-color="#e9ecef"/><stop offset="100%" stop-color="#dee2e6"/>
  </linearGradient>
  <linearGradient id="spiritGold" x1="0%" y1="0%" x2="100%" y2="0%">
    <stop offset="0%" stop-color="#fff9db"/><stop offset="35%" stop-color="#ffe066"/><stop offset="75%" stop-color="#ffd43b"/><stop offset="100%" stop-color="#fab005"/>
  </linearGradient>
  <linearGradient id="sacredMaple" x1="0%" y1="0%" x2="100%" y2="100%">
    <stop offset="0%" stop-color="#fff5f5"/><stop offset="50%" stop-color="#ffc9c9"/><stop offset="100%" stop-color="#ff8787"/>
  </linearGradient>
  <linearGradient id="sakuraBlade" x1="0%" y1="0%" x2="100%" y2="100%">
    <stop offset="0%" stop-color="#e3fafc"/><stop offset="40%" stop-color="#96f2d7"/><stop offset="85%" stop-color="#3bc9db"/><stop offset="100%" stop-color="#15aabf"/>
  </linearGradient>
  <linearGradient id="crimsonGaze" x1="0%" y1="0%" x2="100%" y2="100%">
    <stop offset="0%" stop-color="#ff8787"/><stop offset="60%" stop-color="#ff6b6b"/><stop offset="100%" stop-color="#495057"/>
  </linearGradient>
</defs>
  <g transform="translate(0, 0)"><clipPath id="frame0"><rect x="0" y="0" width="120" height="120"/></clipPath><g clip-path="url(#frame0)"><path d="M 54.8 46 C 28 53 35 63 40 68 C 48 60 60.8 50 54.8 46" fill="url(#sacredMaple)" opacity="0.85" filter="url(#sakuraGlow)"/><g transform="rotate(3 60 44)">
    <path d="M 48 44 L 72 44 L 68 72 L 52 72 Z" fill="url(#inkWashGrad)" stroke="#495057" stroke-width="1.2"/>
    <circle cx="60" cy="55.2" r="5" fill="#74c0fc" filter="url(#goldGlow)"/>
  </g><line x1="54" y1="72" x2="47.843637420137966" y2="88.91446717414635" stroke="url(#inkWashLight)" stroke-width="5" stroke-linecap="round"/>
    <line x1="66" y1="72" x2="72.15636257986203" y2="88.91446717414635" stroke="url(#inkWashLight)" stroke-width="5" stroke-linecap="round"/>
    <circle cx="47.843637420137966" cy="88.91446717414635" r="2.5" fill="#495057"/>
    <circle cx="72.15636257986203" cy="88.91446717414635" r="2.5" fill="#495057"/><line x1="46" y1="50" x2="35.27537779633431" y2="41.00097346438845" stroke="url(#inkWashLight)" stroke-width="4" stroke-linecap="round"/>
    <circle cx="35.27537779633431" cy="41.00097346438845" r="2.5" fill="#74c0fc" filter="url(#goldGlow)"/><line x1="74" y1="50" x2="84.72462220366569" y2="41.00097346438845" stroke="url(#inkWashLight)" stroke-width="4" stroke-linecap="round"/>
    <circle cx="84.72462220366569" cy="41.00097346438845" r="2.5" fill="#74c0fc" filter="url(#goldGlow)"/><line x1="42" y1="38" x2="50.89252372646739" y2="13.567991859566384" stroke="url(#sakuraBlade)" stroke-width="3" stroke-linecap="round" filter="url(#sakuraGlow)"/>
    <line x1="42" y1="38" x2="50.89252372646739" y2="13.567991859566384" stroke="#ffffff" stroke-width="1.2" stroke-linecap="round"/><g transform="rotate(4 60 36)">
    <ellipse cx="60" cy="36" rx="22" ry="6" fill="url(#inkWashLight)" stroke="#495057" stroke-width="1.8"/>
    <path d="M 38 36 C 38 24 82 24 82 36 Z" fill="url(#inkWashGrad)" stroke="#495057" stroke-width="1.2"/>
    <line x1="60" y1="24" x2="60" y2="40" stroke="#495057" stroke-width="0.8" opacity="0.6"/>
  </g><path d="M 54 42 L 60 46 L 66 42" fill="none" stroke="#ff8787" stroke-width="2.2" filter="url(#heavyGoldGlow)"/>
    <polygon points="58.5,42 60,44.5 61.5,42" fill="#ffffff"/></g></g><g transform="translate(120, 0)"><clipPath id="frame1"><rect x="0" y="0" width="120" height="120"/></clipPath><g clip-path="url(#frame1)"><path d="M 55.4 48 C 34 51 40 61 45 66 C 53 58 61.4 52 55.4 48" fill="url(#sacredMaple)" opacity="0.85" filter="url(#sakuraGlow)"/><g transform="rotate(5 60 48)">
    <path d="M 48 48 L 72 48 L 68 76 L 52 76 Z" fill="url(#inkWashGrad)" stroke="#495057" stroke-width="1.2"/>
    <circle cx="60" cy="59.2" r="5" fill="#74c0fc" filter="url(#goldGlow)"/>
  </g><line x1="54" y1="76" x2="52.43119663054215" y2="93.93150456565142" stroke="url(#inkWashLight)" stroke-width="5" stroke-linecap="round"/>
    <line x1="66" y1="76" x2="67.56880336945785" y2="93.93150456565142" stroke="url(#inkWashLight)" stroke-width="5" stroke-linecap="round"/>
    <circle cx="52.43119663054215" cy="93.93150456565142" r="2.5" fill="#495057"/>
    <circle cx="67.56880336945785" cy="93.93150456565142" r="2.5" fill="#495057"/><line x1="48" y1="54" x2="43.895758280091975" y2="42.7236885505691" stroke="url(#inkWashLight)" stroke-width="4" stroke-linecap="round"/>
    <circle cx="43.895758280091975" cy="42.7236885505691" r="2.5" fill="#74c0fc" filter="url(#goldGlow)"/><line x1="72" y1="54" x2="76.10424171990803" y2="42.7236885505691" stroke="url(#inkWashLight)" stroke-width="4" stroke-linecap="round"/>
    <circle cx="76.10424171990803" cy="42.7236885505691" r="2.5" fill="#74c0fc" filter="url(#goldGlow)"/><line x1="44" y1="42" x2="54.98807480525819" y2="18.4359975370471" stroke="url(#sakuraBlade)" stroke-width="3" stroke-linecap="round" filter="url(#sakuraGlow)"/>
    <line x1="44" y1="42" x2="54.98807480525819" y2="18.4359975370471" stroke="#ffffff" stroke-width="1.2" stroke-linecap="round"/><g transform="rotate(6 60 38)">
    <ellipse cx="60" cy="38" rx="22" ry="6" fill="url(#inkWashLight)" stroke="#495057" stroke-width="1.8"/>
    <path d="M 38 38 C 38 26 82 26 82 38 Z" fill="url(#inkWashGrad)" stroke="#495057" stroke-width="1.2"/>
    <line x1="60" y1="26" x2="60" y2="42" stroke="#495057" stroke-width="0.8" opacity="0.6"/>
  </g><path d="M 54 44 L 60 48 L 66 44" fill="none" stroke="#ff8787" stroke-width="2.2" filter="url(#heavyGoldGlow)"/>
    <polygon points="58.5,44 60,46.5 61.5,44" fill="#ffffff"/></g></g><g transform="translate(240, 0)"><clipPath id="frame2"><rect x="0" y="0" width="120" height="120"/></clipPath><g clip-path="url(#frame2)"><path d="M 56 52 C 42 61 46 71 51 76 C 59 68 62 56 56 52" fill="url(#sacredMaple)" opacity="0.85" filter="url(#sakuraGlow)"/><g transform="rotate(8 60 52)">
    <path d="M 48 52 L 72 52 L 68 77.2 L 52 77.2 Z" fill="url(#inkWashGrad)" stroke="#495057" stroke-width="1.2"/>
    <circle cx="60" cy="62.08" r="5" fill="#74c0fc" filter="url(#goldGlow)"/>
  </g><line x1="56" y1="76" x2="60.14110472164033" y2="91.4548132206251" stroke="url(#inkWashLight)" stroke-width="5" stroke-linecap="round"/>
    <line x1="68" y1="76" x2="63.85889527835967" y2="91.4548132206251" stroke="url(#inkWashLight)" stroke-width="5" stroke-linecap="round"/>
    <circle cx="60.14110472164033" cy="91.4548132206251" r="2.5" fill="#495057"/>
    <circle cx="63.85889527835967" cy="91.4548132206251" r="2.5" fill="#495057"/><line x1="48" y1="58" x2="48" y2="46" stroke="url(#inkWashLight)" stroke-width="4" stroke-linecap="round"/>
    <circle cx="48" cy="46" r="2.5" fill="#74c0fc" filter="url(#goldGlow)"/><line x1="72" y1="58" x2="72" y2="46" stroke="url(#inkWashLight)" stroke-width="4" stroke-linecap="round"/>
    <circle cx="72" cy="46" r="2.5" fill="#74c0fc" filter="url(#goldGlow)"/><line x1="46" y1="46" x2="59.765834472425105" y2="26.340350937064198" stroke="url(#sakuraBlade)" stroke-width="3" stroke-linecap="round" filter="url(#sakuraGlow)"/>
    <line x1="46" y1="46" x2="59.765834472425105" y2="26.340350937064198" stroke="#ffffff" stroke-width="1.2" stroke-linecap="round"/><g transform="rotate(8 62 40)">
    <ellipse cx="62" cy="40" rx="22" ry="6" fill="url(#inkWashLight)" stroke="#495057" stroke-width="1.8"/>
    <path d="M 40 40 C 40 28 84 28 84 40 Z" fill="url(#inkWashGrad)" stroke="#495057" stroke-width="1.2"/>
    <line x1="62" y1="28" x2="62" y2="44" stroke="#495057" stroke-width="0.8" opacity="0.6"/>
  </g><path d="M 56 46 L 62 50 L 68 46" fill="none" stroke="#ff8787" stroke-width="2.2" filter="url(#heavyGoldGlow)"/>
    <polygon points="60.5,46 62,48.5 63.5,46" fill="#ffffff"/></g></g>
</svg>