<svg xmlns="http://www.w3.org/2000/svg" viewBox="0 0 960 120" width="960" height="120">
  <defs>
  <filter id="goldGlow" x="-50%" y="-50%" width="200%" height="200%">
    <feGaussianBlur stdDeviation="4.5" result="blur"/>
    <feMerge><feMergeNode in="blur"/><feMergeNode in="SourceGraphic"/></feMerge>
  </filter>
  <filter id="heavyGoldGlow" x="-80%" y="-80%" width="260%" height="260%">
    <feGaussianBlur stdDeviation="7" result="blur1"/>
    <feGaussianBlur stdDeviation="2.5" result="blur2"/>
    <feMerge><feMergeNode in="blur1"/><feMergeNode in="blur2"/><feMergeNode in="SourceGraphic"/></feMerge>
  </filter>
  <filter id="sakuraGlow" x="-50%" y="-50%" width="200%" height="200%">
    <feGaussianBlur stdDeviation="4" result="blur"/>
    <feMerge><feMergeNode in="blur"/><feMergeNode in="SourceGraphic"/></feMerge>
  </filter>
  <filter id="inkMisty" x="-30%" y="-30%" width="160%" height="160%">
    <feGaussianBlur stdDeviation="1.8"/>
  </filter>
  <filter id="redGlow" x="-40%" y="-40%" width="180%" height="180%">
    <feGaussianBlur stdDeviation="3.5" result="blur"/>
    <feMerge><feMergeNode in="blur"/><feMergeNode in="SourceGraphic"/></feMerge>
  </filter>
  <linearGradient id="inkWashGrad" x1="0%" y1="0%" x2="100%" y2="100%">
    <stop offset="0%" stop-color="#313244"/><stop offset="60%" stop-color="#11111b"/><stop offset="100%" stop-color="#11111b"/>
  </linearGradient>
  <linearGradient id="inkWashLight" x1="0%" y1="0%" x2="100%" y2="100%">
    <stop offset="0%" stop-color="#6c7086"/><stop offset="50%" stop-color="#45475a"/><stop offset="100%" stop-color="#1e1e2e"/>
  </linearGradient>
  <linearGradient id="spiritGold" x1="0%" y1="0%" x2="100%" y2="0%">
    <stop offset="0%" stop-color="#cdd6f4"/><stop offset="35%" stop-color="#f9e2af"/><stop offset="75%" stop-color="#fab387"/><stop offset="100%" stop-color="#fab387"/>
  </linearGradient>
  <linearGradient id="sacredMaple" x1="0%" y1="0%" x2="100%" y2="100%">
    <stop offset="0%" stop-color="#f38ba8"/><stop offset="50%" stop-color="#fab387"/><stop offset="100%" stop-color="#eba0ac"/>
  </linearGradient>
  <linearGradient id="sakuraBlade" x1="0%" y1="0%" x2="100%" y2="100%">
    <stop offset="0%" stop-color="#cdd6f4"/><stop offset="40%" stop-color="#f2cdcd"/><stop offset="85%" stop-color="#f5c2e7"/><stop offset="100%" stop-color="#cba6f7"/>
  </linearGradient>
  <linearGradient id="crimsonGaze" x1="0%" y1="0%" x2="100%" y2="100%">
    <stop offset="0%" stop-color="#f38ba8"/><stop offset="60%" stop-color="#eba0ac"/><stop offset="100%" stop-color="#1e1e2e"/>
  </linearGradient>
</defs>
  <g transform="translate(0, 0)"><clipPath id="frame0"><rect x="0" y="0" width="120" height="120"/></clipPath><g clip-path="url(#frame0)"><path d="M 53 50 C 26 65 28 75 33 80 C 41 72 59 54 53 50" fill="url(#sacredMaple)" opacity="0.85" filter="url(#sakuraGlow)"/><g transform="rotate(12 60 48)">
    <path d="M 48 48 L 72 48 L 68 74.6 L 52 74.6 Z" fill="url(#inkWashGrad)" stroke="#fab387" stroke-width="1.2"/>
    <circle cx="60" cy="58.64" r="5" fill="#fab387" filter="url(#goldGlow)"/>
  </g><line x1="58" y1="74" x2="58" y2="94" stroke="url(#inkWashLight)" stroke-width="5" stroke-linecap="round"/>
    <line x1="70" y1="74" x2="70" y2="94" stroke="url(#inkWashLight)" stroke-width="5" stroke-linecap="round"/>
    <circle cx="58" cy="94" r="2.5" fill="#fab387"/>
    <circle cx="70" cy="94" r="2.5" fill="#fab387"/><line x1="50" y1="56" x2="50" y2="43" stroke="url(#inkWashLight)" stroke-width="4" stroke-linecap="round"/>
    <circle cx="50" cy="43" r="2.5" fill="#fab387" filter="url(#goldGlow)"/><line x1="70" y1="56" x2="70" y2="43" stroke="url(#inkWashLight)" stroke-width="4" stroke-linecap="round"/>
    <circle cx="70" cy="43" r="2.5" fill="#fab387" filter="url(#goldGlow)"/><line x1="46" y1="46" x2="62.712477851850025" y2="26.082844478906573" stroke="url(#sakuraBlade)" stroke-width="3" stroke-linecap="round" filter="url(#sakuraGlow)"/>
    <line x1="46" y1="46" x2="62.712477851850025" y2="26.082844478906573" stroke="#cdd6f4" stroke-width="1.2" stroke-linecap="round"/><g transform="rotate(-7.199999999999999 63 38)">
    <ellipse cx="63" cy="38" rx="22" ry="6" fill="url(#inkWashLight)" stroke="#fab387" stroke-width="1.8"/>
    <path d="M 41 38 C 41 26 85 26 85 38 Z" fill="url(#inkWashGrad)" stroke="#fab387" stroke-width="1.2"/>
    <line x1="63" y1="26" x2="63" y2="42" stroke="#fab387" stroke-width="0.8" opacity="0.6"/>
  </g><path d="M 57 44 L 63 48 L 69 44" fill="none" stroke="#fab387" stroke-width="2.2" filter="url(#heavyGoldGlow)"/>
    <polygon points="61.5,44 63,46.5 64.5,44" fill="#cdd6f4"/></g></g><g transform="translate(120, 0)"><clipPath id="frame1"><rect x="0" y="0" width="120" height="120"/></clipPath><g clip-path="url(#frame1)"><path d="M 51.30294372515229 47.17157287525381 C 17.514718625761436 60.757359312880716 18.10050506338834 70.75735931288072 23.10050506338834 75.75735931288072 C 31.10050506338834 67.75735931288072 57.30294372515229 51.17157287525381 51.30294372515229 47.17157287525381" fill="url(#sacredMaple)" opacity="0.85" filter="url(#sakuraGlow)"/><g transform="rotate(12 60 45.17157287525381)">
    <path d="M 48 45.17157287525381 L 72 45.17157287525381 L 68 71.77157287525381 L 52 71.77157287525381 Z" fill="url(#inkWashGrad)" stroke="#fab387" stroke-width="1.2"/>
    <circle cx="60" cy="55.81157287525381" r="5" fill="#fab387" filter="url(#goldGlow)"/>
  </g><line x1="58" y1="71.17157287525382" x2="66.37279448374613" y2="89.33462087202325" stroke="url(#inkWashLight)" stroke-width="5" stroke-linecap="round"/>
    <line x1="70" y1="71.17157287525382" x2="61.627205516253866" y2="89.33462087202325" stroke="url(#inkWashLight)" stroke-width="5" stroke-linecap="round"/>
    <circle cx="66.37279448374613" cy="89.33462087202325" r="2.5" fill="#fab387"/>
    <circle cx="61.627205516253866" cy="89.33462087202325" r="2.5" fill="#fab387"/><line x1="50" y1="53.17157287525381" x2="45.29608769122791" y2="41.052447123311865" stroke="url(#inkWashLight)" stroke-width="4" stroke-linecap="round"/>
    <circle cx="45.29608769122791" cy="41.052447123311865" r="2.5" fill="#fab387" filter="url(#goldGlow)"/><line x1="70" y1="53.17157287525381" x2="74.70391230877209" y2="41.052447123311865" stroke="url(#inkWashLight)" stroke-width="4" stroke-linecap="round"/>
    <circle cx="74.70391230877209" cy="41.052447123311865" r="2.5" fill="#fab387" filter="url(#goldGlow)"/><line x1="46" y1="43.17157287525381" x2="63.90891202394218" y2="24.32294241787842" stroke="url(#sakuraBlade)" stroke-width="3" stroke-linecap="round" filter="url(#sakuraGlow)"/>
    <line x1="46" y1="43.17157287525381" x2="63.90891202394218" y2="24.32294241787842" stroke="#cdd6f4" stroke-width="1.2" stroke-linecap="round"/><g transform="rotate(-7.199999999999999 63 35.17157287525381)">
    <ellipse cx="63" cy="35.17157287525381" rx="22" ry="6" fill="url(#inkWashLight)" stroke="#fab387" stroke-width="1.8"/>
    <path d="M 41 35.17157287525381 C 41 23.17157287525381 85 23.17157287525381 85 35.17157287525381 Z" fill="url(#inkWashGrad)" stroke="#fab387" stroke-width="1.2"/>
    <line x1="63" y1="23.17157287525381" x2="63" y2="39.17157287525381" stroke="#fab387" stroke-width="0.8" opacity="0.6"/>
  </g><path d="M 57 41.17157287525381 L 63 45.17157287525381 L 69 41.17157287525381" fill="none" stroke="#fab387" stroke-width="2.2" filter="url(#heavyGoldGlow)"/>
    <polygon points="61.5,41.17157287525381 63,43.67157287525381 64.5,41.17157287525381" fill="#cdd6f4"/></g></g><g transform="translate(240, 0)"><clipPath id="frame2"><rect x="0" y="0" width="120" height="120"/></clipPath><g clip-path="url(#frame2)"><path d="M 50.6 46 C 14 59 14 69 19 74 C 27 66 56.6 50 50.6 46" fill="url(#sacredMaple)" opacity="0.85" filter="url(#sakuraGlow)"/><g transform="rotate(12 60 44)">
    <path d="M 48 44 L 72 44 L 68 70.6 L 52 70.6 Z" fill="url(#inkWashGrad)" stroke="#fab387" stroke-width="1.2"/>
    <circle cx="60" cy="54.64" r="5" fill="#fab387" filter="url(#goldGlow)"/>
  </g><line x1="58" y1="70" x2="69.47152872702092" y2="86.38304088577983" stroke="url(#inkWashLight)" stroke-width="5" stroke-linecap="round"/>
    <line x1="70" y1="70" x2="58.528471272979075" y2="86.38304088577983" stroke="url(#inkWashLight)" stroke-width="5" stroke-linecap="round"/>
    <circle cx="69.47152872702092" cy="86.38304088577983" r="2.5" fill="#fab387"/>
    <circle cx="58.528471272979075" cy="86.38304088577983" r="2.5" fill="#fab387"/><line x1="50" y1="52" x2="43.5" y2="40.741669750802295" stroke="url(#inkWashLight)" stroke-width="4" stroke-linecap="round"/>
    <circle cx="43.5" cy="40.741669750802295" r="2.5" fill="#fab387" filter="url(#goldGlow)"/><line x1="70" y1="52" x2="76.5" y2="40.7416697508023" stroke="url(#inkWashLight)" stroke-width="4" stroke-linecap="round"/>
    <circle cx="76.5" cy="40.7416697508023" r="2.5" fill="#fab387" filter="url(#goldGlow)"/><line x1="46" y1="42" x2="64.38477631085024" y2="23.615223689149765" stroke="url(#sakuraBlade)" stroke-width="3" stroke-linecap="round" filter="url(#sakuraGlow)"/>
    <line x1="46" y1="42" x2="64.38477631085024" y2="23.615223689149765" stroke="#cdd6f4" stroke-width="1.2" stroke-linecap="round"/><g transform="rotate(-7.199999999999999 63 34)">
    <ellipse cx="63" cy="34" rx="22" ry="6" fill="url(#inkWashLight)" stroke="#fab387" stroke-width="1.8"/>
    <path d="M 41 34 C 41 22 85 22 85 34 Z" fill="url(#inkWashGrad)" stroke="#fab387" stroke-width="1.2"/>
    <line x1="63" y1="22" x2="63" y2="38" stroke="#fab387" stroke-width="0.8" opacity="0.6"/>
  </g><path d="M 57 40 L 63 44 L 69 40" fill="none" stroke="#fab387" stroke-width="2.2" filter="url(#heavyGoldGlow)"/>
    <polygon points="61.5,40 63,42.5 64.5,40" fill="#cdd6f4"/></g></g><g transform="translate(360, 0)"><clipPath id="frame3"><rect x="0" y="0" width="120" height="120"/></clipPath><g clip-path="url(#frame3)"><path d="M 51.30294372515229 47.17157287525381 C 17.514718625761436 60.757359312880716 18.10050506338834 70.75735931288072 23.10050506338834 75.75735931288072 C 31.10050506338834 67.75735931288072 57.30294372515229 51.17157287525381 51.30294372515229 47.17157287525381" fill="url(#sacredMaple)" opacity="0.85" filter="url(#sakuraGlow)"/><g transform="rotate(12 60 45.17157287525381)">
    <path d="M 48 45.17157287525381 L 72 45.17157287525381 L 68 71.77157287525381 L 52 71.77157287525381 Z" fill="url(#inkWashGrad)" stroke="#fab387" stroke-width="1.2"/>
    <circle cx="60" cy="55.81157287525381" r="5" fill="#fab387" filter="url(#goldGlow)"/>
  </g><line x1="58" y1="71.17157287525382" x2="66.37279448374613" y2="89.33462087202325" stroke="url(#inkWashLight)" stroke-width="5" stroke-linecap="round"/>
    <line x1="70" y1="71.17157287525382" x2="61.62720551625386" y2="89.33462087202325" stroke="url(#inkWashLight)" stroke-width="5" stroke-linecap="round"/>
    <circle cx="66.37279448374613" cy="89.33462087202325" r="2.5" fill="#fab387"/>
    <circle cx="61.62720551625386" cy="89.33462087202325" r="2.5" fill="#fab387"/><line x1="50" y1="53.17157287525381" x2="45.29608769122791" y2="41.052447123311865" stroke="url(#inkWashLight)" stroke-width="4" stroke-linecap="round"/>
    <circle cx="45.29608769122791" cy="41.052447123311865" r="2.5" fill="#fab387" filter="url(#goldGlow)"/><line x1="70" y1="53.17157287525381" x2="74.70391230877209" y2="41.052447123311865" stroke="url(#inkWashLight)" stroke-width="4" stroke-linecap="round"/>
    <circle cx="74.70391230877209" cy="41.052447123311865" r="2.5" fill="#fab387" filter="url(#goldGlow)"/><line x1="46" y1="43.17157287525381" x2="63.90891202394218" y2="24.32294241787842" stroke="url(#sakuraBlade)" stroke-width="3" stroke-linecap="round" filter="url(#sakuraGlow)"/>
    <line x1="46" y1="43.17157287525381" x2="63.90891202394218" y2="24.32294241787842" stroke="#cdd6f4" stroke-width="1.2" stroke-linecap="round"/><g transform="rotate(-7.199999999999999 63 35.17157287525381)">
    <ellipse cx="63" cy="35.17157287525381" rx="22" ry="6" fill="url(#inkWashLight)" stroke="#fab387" stroke-width="1.8"/>
    <path d="M 41 35.17157287525381 C 41 23.17157287525381 85 23.17157287525381 85 35.17157287525381 Z" fill="url(#inkWashGrad)" stroke="#fab387" stroke-width="1.2"/>
    <line x1="63" y1="23.17157287525381" x2="63" y2="39.17157287525381" stroke="#fab387" stroke-width="0.8" opacity="0.6"/>
  </g><path d="M 57 41.17157287525381 L 63 45.17157287525381 L 69 41.17157287525381" fill="none" stroke="#fab387" stroke-width="2.2" filter="url(#heavyGoldGlow)"/>
    <polygon points="61.5,41.17157287525381 63,43.67157287525381 64.5,41.17157287525381" fill="#cdd6f4"/></g></g><g transform="translate(480, 0)"><clipPath id="frame4"><rect x="0" y="0" width="120" height="120"/></clipPath><g clip-path="url(#frame4)"><path d="M 53 50 C 26 65 28 75 33 80 C 41 72 59 54 53 50" fill="url(#sacredMaple)" opacity="0.85" filter="url(#sakuraGlow)"/><g transform="rotate(12 60 48)">
    <path d="M 48 48 L 72 48 L 68 74.6 L 52 74.6 Z" fill="url(#inkWashGrad)" stroke="#fab387" stroke-width="1.2"/>
    <circle cx="60" cy="58.64" r="5" fill="#fab387" filter="url(#goldGlow)"/>
  </g><line x1="58" y1="74" x2="58" y2="94" stroke="url(#inkWashLight)" stroke-width="5" stroke-linecap="round"/>
    <line x1="70" y1="74" x2="70" y2="94" stroke="url(#inkWashLight)" stroke-width="5" stroke-linecap="round"/>
    <circle cx="58" cy="94" r="2.5" fill="#fab387"/>
    <circle cx="70" cy="94" r="2.5" fill="#fab387"/><line x1="50" y1="56" x2="49.99999999999999" y2="43" stroke="url(#inkWashLight)" stroke-width="4" stroke-linecap="round"/>
    <circle cx="49.99999999999999" cy="43" r="2.5" fill="#fab387" filter="url(#goldGlow)"/><line x1="70" y1="56" x2="70" y2="43" stroke="url(#inkWashLight)" stroke-width="4" stroke-linecap="round"/>
    <circle cx="70" cy="43" r="2.5" fill="#fab387" filter="url(#goldGlow)"/><line x1="46" y1="46" x2="62.712477851850025" y2="26.082844478906573" stroke="url(#sakuraBlade)" stroke-width="3" stroke-linecap="round" filter="url(#sakuraGlow)"/>
    <line x1="46" y1="46" x2="62.712477851850025" y2="26.082844478906573" stroke="#cdd6f4" stroke-width="1.2" stroke-linecap="round"/><g transform="rotate(-7.199999999999999 63 38)">
    <ellipse cx="63" cy="38" rx="22" ry="6" fill="url(#inkWashLight)" stroke="#fab387" stroke-width="1.8"/>
    <path d="M 41 38 C 41 26 85 26 85 38 Z" fill="url(#inkWashGrad)" stroke="#fab387" stroke-width="1.2"/>
    <line x1="63" y1="26" x2="63" y2="42" stroke="#fab387" stroke-width="0.8" opacity="0.6"/>
  </g><path d="M 57 44 L 63 48 L 69 44" fill="none" stroke="#fab387" stroke-width="2.2" filter="url(#heavyGoldGlow)"/>
    <polygon points="61.5,44 63,46.5 64.5,44" fill="#cdd6f4"/></g></g><g transform="translate(600, 0)"><clipPath id="frame5"><rect x="0" y="0" width="120" height="120"/></clipPath><g clip-path="url(#frame5)"><path d="M 51.30294372515229 47.17157287525381 C 23.171572875253812 60.757359312880716 20.928932188134524 70.75735931288072 25.928932188134524 75.75735931288072 C 33.928932188134524 67.75735931288072 57.30294372515229 51.17157287525381 51.30294372515229 47.17157287525381" fill="url(#sacredMaple)" opacity="0.85" filter="url(#sakuraGlow)"/><g transform="rotate(12 60 45.17157287525381)">
    <path d="M 48 45.17157287525381 L 72 45.17157287525381 L 68 71.77157287525381 L 52 71.77157287525381 Z" fill="url(#inkWashGrad)" stroke="#fab387" stroke-width="1.2"/>
    <circle cx="60" cy="55.81157287525381" r="5" fill="#fab387" filter="url(#goldGlow)"/>
  </g><line x1="58" y1="71.17157287525382" x2="49.627205516253866" y2="89.33462087202325" stroke="url(#inkWashLight)" stroke-width="5" stroke-linecap="round"/>
    <line x1="70" y1="71.17157287525382" x2="78.37279448374613" y2="89.33462087202325" stroke="url(#inkWashLight)" stroke-width="5" stroke-linecap="round"/>
    <circle cx="49.627205516253866" cy="89.33462087202325" r="2.5" fill="#fab387"/>
    <circle cx="78.37279448374613" cy="89.33462087202325" r="2.5" fill="#fab387"/><line x1="50" y1="53.17157287525381" x2="54.70391230877209" y2="41.052447123311865" stroke="url(#inkWashLight)" stroke-width="4" stroke-linecap="round"/>
    <circle cx="54.70391230877209" cy="41.052447123311865" r="2.5" fill="#fab387" filter="url(#goldGlow)"/><line x1="70" y1="53.17157287525381" x2="65.29608769122791" y2="41.052447123311865" stroke="url(#inkWashLight)" stroke-width="4" stroke-linecap="round"/>
    <circle cx="65.29608769122791" cy="41.052447123311865" r="2.5" fill="#fab387" filter="url(#goldGlow)"/><line x1="46" y1="43.17157287525381" x2="61.452427471130385" y2="22.261707135621357" stroke="url(#sakuraBlade)" stroke-width="3" stroke-linecap="round" filter="url(#sakuraGlow)"/>
    <line x1="46" y1="43.17157287525381" x2="61.452427471130385" y2="22.261707135621357" stroke="#cdd6f4" stroke-width="1.2" stroke-linecap="round"/><g transform="rotate(-7.199999999999999 63 35.17157287525381)">
    <ellipse cx="63" cy="35.17157287525381" rx="22" ry="6" fill="url(#inkWashLight)" stroke="#fab387" stroke-width="1.8"/>
    <path d="M 41 35.17157287525381 C 41 23.17157287525381 85 23.17157287525381 85 35.17157287525381 Z" fill="url(#inkWashGrad)" stroke="#fab387" stroke-width="1.2"/>
    <line x1="63" y1="23.17157287525381" x2="63" y2="39.17157287525381" stroke="#fab387" stroke-width="0.8" opacity="0.6"/>
  </g><path d="M 57 41.17157287525381 L 63 45.17157287525381 L 69 41.17157287525381" fill="none" stroke="#fab387" stroke-width="2.2" filter="url(#heavyGoldGlow)"/>
    <polygon points="61.5,41.17157287525381 63,43.67157287525381 64.5,41.17157287525381" fill="#cdd6f4"/></g></g><g transform="translate(720, 0)"><clipPath id="frame6"><rect x="0" y="0" width="120" height="120"/></clipPath><g clip-path="url(#frame6)"><path d="M 50.6 46 C 22 59 18 69 23 74 C 31 66 56.6 50 50.6 46" fill="url(#sacredMaple)" opacity="0.85" filter="url(#sakuraGlow)"/><g transform="rotate(12 60 44)">
    <path d="M 48 44 L 72 44 L 68 70.6 L 52 70.6 Z" fill="url(#inkWashGrad)" stroke="#fab387" stroke-width="1.2"/>
    <circle cx="60" cy="54.64" r="5" fill="#fab387" filter="url(#goldGlow)"/>
  </g><line x1="58" y1="70" x2="46.528471272979075" y2="86.38304088577983" stroke="url(#inkWashLight)" stroke-width="5" stroke-linecap="round"/>
    <line x1="70" y1="70" x2="81.47152872702092" y2="86.38304088577983" stroke="url(#inkWashLight)" stroke-width="5" stroke-linecap="round"/>
    <circle cx="46.528471272979075" cy="86.38304088577983" r="2.5" fill="#fab387"/>
    <circle cx="81.47152872702092" cy="86.38304088577983" r="2.5" fill="#fab387"/><line x1="50" y1="52" x2="56.5" y2="40.7416697508023" stroke="url(#inkWashLight)" stroke-width="4" stroke-linecap="round"/>
    <circle cx="56.5" cy="40.7416697508023" r="2.5" fill="#fab387" filter="url(#goldGlow)"/><line x1="70" y1="52" x2="63.5" y2="40.741669750802295" stroke="url(#inkWashLight)" stroke-width="4" stroke-linecap="round"/>
    <circle cx="63.5" cy="40.741669750802295" r="2.5" fill="#fab387" filter="url(#goldGlow)"/><line x1="46" y1="42" x2="60.9129873451272" y2="20.702046848486212" stroke="url(#sakuraBlade)" stroke-width="3" stroke-linecap="round" filter="url(#sakuraGlow)"/>
    <line x1="46" y1="42" x2="60.9129873451272" y2="20.702046848486212" stroke="#cdd6f4" stroke-width="1.2" stroke-linecap="round"/><g transform="rotate(-7.199999999999999 63 34)">
    <ellipse cx="63" cy="34" rx="22" ry="6" fill="url(#inkWashLight)" stroke="#fab387" stroke-width="1.8"/>
    <path d="M 41 34 C 41 22 85 22 85 34 Z" fill="url(#inkWashGrad)" stroke="#fab387" stroke-width="1.2"/>
    <line x1="63" y1="22" x2="63" y2="38" stroke="#fab387" stroke-width="0.8" opacity="0.6"/>
  </g><path d="M 57 40 L 63 44 L 69 40" fill="none" stroke="#fab387" stroke-width="2.2" filter="url(#heavyGoldGlow)"/>
    <polygon points="61.5,40 63,42.5 64.5,40" fill="#cdd6f4"/></g></g><g transform="translate(840, 0)"><clipPath id="frame7"><rect x="0" y="0" width="120" height="120"/></clipPath><g clip-path="url(#frame7)"><path d="M 51.30294372515229 47.17157287525381 C 23.17157287525381 60.757359312880716 20.92893218813452 70.75735931288072 25.92893218813452 75.75735931288072 C 33.928932188134524 67.75735931288072 57.30294372515229 51.17157287525381 51.30294372515229 47.17157287525381" fill="url(#sacredMaple)" opacity="0.85" filter="url(#sakuraGlow)"/><g transform="rotate(12 60 45.17157287525381)">
    <path d="M 48 45.17157287525381 L 72 45.17157287525381 L 68 71.77157287525381 L 52 71.77157287525381 Z" fill="url(#inkWashGrad)" stroke="#fab387" stroke-width="1.2"/>
    <circle cx="60" cy="55.81157287525381" r="5" fill="#fab387" filter="url(#goldGlow)"/>
  </g><line x1="58" y1="71.17157287525382" x2="49.62720551625386" y2="89.33462087202325" stroke="url(#inkWashLight)" stroke-width="5" stroke-linecap="round"/>
    <line x1="70" y1="71.17157287525382" x2="78.37279448374615" y2="89.33462087202325" stroke="url(#inkWashLight)" stroke-width="5" stroke-linecap="round"/>
    <circle cx="49.62720551625386" cy="89.33462087202325" r="2.5" fill="#fab387"/>
    <circle cx="78.37279448374615" cy="89.33462087202325" r="2.5" fill="#fab387"/><line x1="50" y1="53.17157287525381" x2="54.7039123087721" y2="41.052447123311865" stroke="url(#inkWashLight)" stroke-width="4" stroke-linecap="round"/>
    <circle cx="54.7039123087721" cy="41.052447123311865" r="2.5" fill="#fab387" filter="url(#goldGlow)"/><line x1="70" y1="53.17157287525381" x2="65.29608769122791" y2="41.052447123311865" stroke="url(#inkWashLight)" stroke-width="4" stroke-linecap="round"/>
    <circle cx="65.29608769122791" cy="41.052447123311865" r="2.5" fill="#fab387" filter="url(#goldGlow)"/><line x1="46" y1="43.17157287525381" x2="61.452427471130385" y2="22.261707135621357" stroke="url(#sakuraBlade)" stroke-width="3" stroke-linecap="round" filter="url(#sakuraGlow)"/>
    <line x1="46" y1="43.17157287525381" x2="61.452427471130385" y2="22.261707135621357" stroke="#cdd6f4" stroke-width="1.2" stroke-linecap="round"/><g transform="rotate(-7.199999999999999 63 35.17157287525381)">
    <ellipse cx="63" cy="35.17157287525381" rx="22" ry="6" fill="url(#inkWashLight)" stroke="#fab387" stroke-width="1.8"/>
    <path d="M 41 35.17157287525381 C 41 23.17157287525381 85 23.17157287525381 85 35.17157287525381 Z" fill="url(#inkWashGrad)" stroke="#fab387" stroke-width="1.2"/>
    <line x1="63" y1="23.17157287525381" x2="63" y2="39.17157287525381" stroke="#fab387" stroke-width="0.8" opacity="0.6"/>
  </g><path d="M 57 41.17157287525381 L 63 45.17157287525381 L 69 41.17157287525381" fill="none" stroke="#fab387" stroke-width="2.2" filter="url(#heavyGoldGlow)"/>
    <polygon points="61.5,41.17157287525381 63,43.67157287525381 64.5,41.17157287525381" fill="#cdd6f4"/></g></g>
</svg>