<svg xmlns="http://www.w3.org/2000/svg" viewBox="0 0 90 80" width="90" height="80">
    <defs>
      <!-- Premium Oriental Cyber-Zen Filters -->
      <filter id="goldGlow" x="-50%" y="-50%" width="200%" height="200%">
        <feGaussianBlur stdDeviation="4.5" result="blur" />
        <feMerge>
          <feMergeNode in="blur" />
          <feMergeNode in="SourceGraphic" />
        </feMerge>
      </filter>
      <filter id="heavyGoldGlow" x="-80%" y="-80%" width="260%" height="260%">
        <feGaussianBlur stdDeviation="7" result="blur1" />
        <feGaussianBlur stdDeviation="2.5" result="blur2" />
        <feMerge>
          <feMergeNode in="blur1" />
          <feMergeNode in="blur2" />
          <feMergeNode in="SourceGraphic" />
        </feMerge>
      </filter>
      <filter id="sakuraGlow" x="-50%" y="-50%" width="200%" height="200%">
        <feGaussianBlur stdDeviation="4" result="blur" />
        <feMerge>
          <feMergeNode in="blur" />
          <feMergeNode in="SourceGraphic" />
        </feMerge>
      </filter>
      <filter id="inkMisty" x="-30%" y="-30%" width="160%" height="160%">
        <feGaussianBlur stdDeviation="1.8" />
      </filter>
      <filter id="redGlow" x="-40%" y="-40%" width="180%" height="180%">
        <feGaussianBlur stdDeviation="3.5" result="blur" />
        <feMerge>
          <feMergeNode in="blur" />
          <feMergeNode in="SourceGraphic" />
        </feMerge>
      </filter>

      <!-- Advanced Cyber-Zen Gradients -->
      <linearGradient id="inkWashGrad" x1="0%" y1="0%" x2="100%" y2="100%">
        <stop offset="0%" stop-color="#313244"/>
        <stop offset="60%" stop-color="#11111b"/>
        <stop offset="100%" stop-color="#11111b"/>
      </linearGradient>
      <linearGradient id="inkWashLight" x1="0%" y1="0%" x2="100%" y2="100%">
        <stop offset="0%" stop-color="#6c7086"/>
        <stop offset="50%" stop-color="#45475a"/>
        <stop offset="100%" stop-color="#1e1e2e"/>
      </linearGradient>
      <linearGradient id="spiritGold" x1="0%" y1="0%" x2="100%" y2="0%">
        <stop offset="0%" stop-color="#cdd6f4"/>
        <stop offset="35%" stop-color="#f9e2af"/>
        <stop offset="75%" stop-color="#fab387"/>
        <stop offset="100%" stop-color="#fab387"/>
      </linearGradient>
      <linearGradient id="sacredMaple" x1="0%" y1="0%" x2="100%" y2="100%">
        <stop offset="0%" stop-color="#f38ba8"/>
        <stop offset="50%" stop-color="#fab387"/>
        <stop offset="100%" stop-color="#eba0ac"/>
      </linearGradient>
      <linearGradient id="sakuraBlade" x1="0%" y1="0%" x2="100%" y2="100%">
        <stop offset="0%" stop-color="#cdd6f4"/>
        <stop offset="40%" stop-color="#f2cdcd"/>
        <stop offset="85%" stop-color="#f5c2e7"/>
        <stop offset="100%" stop-color="#cba6f7"/>
      </linearGradient>
      <linearGradient id="crimsonGaze" x1="0%" y1="0%" x2="100%" y2="100%">
        <stop offset="0%" stop-color="#f38ba8"/>
        <stop offset="60%" stop-color="#eba0ac"/>
        <stop offset="100%" stop-color="#1e1e2e"/>
      </linearGradient>
    </defs>
    
  <!-- Downward calligraphy impact brush stroke -->
  <path d="M 26 -2 L 46 -2 L 76 68 L -4 68 Z" fill="url(#inkWashGrad)" filter="url(#inkMisty)" opacity="0.85"/>
  <path d="M 32 -2 L 40 -2 L 58 68 L 14 68 Z" fill="url(#sakuraBlade)" filter="url(#sakuraGlow)" opacity="0.75"/>
  <path d="M 34 -2 L 36 -2 L 46 68 L 26 68 Z" fill="#cdd6f4" opacity="0.9"/>

  <!-- Blinding energy rings at ground impact -->
  <ellipse cx="36" cy="64" rx="30" ry="9" fill="none" stroke="#fab387" stroke-width="3" filter="url(#goldGlow)" opacity="0.95"/>
  <ellipse cx="36" cy="64" rx="18" ry="4.5" fill="#cdd6f4" filter="url(#heavyGoldGlow)"/>
  
  <!-- Calligraphy lightning fragments -->
  <line x1="16" y1="68" x2="-6" y2="75" stroke="#fab387" stroke-width="4.5" stroke-linecap="round" filter="url(#goldGlow)"/>
  <line x1="56" y1="68" x2="78" y2="75" stroke="#cba6f7" stroke-width="4" stroke-linecap="round"/>

  <!-- Slamming Body -->
  <g transform="translate(2, 6)">
    <path d="M 22 14 L 50 14 L 44 44 L 26 44 Z" fill="url(#inkWashGrad)" stroke="#fab387" stroke-width="2"/>
    <ellipse cx="36" cy="6" rx="20" ry="5" fill="url(#inkWashLight)" stroke="#fab387" stroke-width="1.2"/>
    <circle cx="36" cy="24" r="6" fill="#fab387" filter="url(#goldGlow)"/>
    <!-- Both hands slammed down -->
    <path d="M 31 16 L 36 -5 L 41 16 Z" fill="url(#inkWashLight)"/>
  </g>
  <!-- Vertical sword drove down -->
  <path d="M 34 -12 L 38 -12 L 40 62 L 32 62 Z" fill="url(#sakuraBlade)" filter="url(#sakuraGlow)"/>

  </svg>