<svg xmlns="http://www.w3.org/2000/svg" viewBox="0 0 360 120" width="360" height="120">
  <defs>
  <filter id="goldGlow" x="-50%" y="-50%" width="200%" height="200%">
    <feGaussianBlur stdDeviation="4.5" result="blur"/>
    <feMerge><feMergeNode in="blur"/><feMergeNode in="SourceGraphic"/></feMerge>
  </filter>
  <filter id="heavyGoldGlow" x="-80%" y="-80%" width="260%" height="260%">
    <feGaussianBlur stdDeviation="7" result="blur1"/>
    <feGaussianBlur stdDeviation="2.5" result="blur2"/>
    <feMerge><feMergeNode in="blur1"/><feMergeNode in="blur2"/><feMergeNode in="SourceGraphic"/></feMerge>
  </filter>
  <filter id="sakuraGlow" x="-50%" y="-50%" width="200%" height="200%">
    <feGaussianBlur stdDeviation="4" result="blur"/>
    <feMerge><feMergeNode in="blur"/><feMergeNode in="SourceGraphic"/></feMerge>
  </filter>
  <filter id="inkMisty" x="-30%" y="-30%" width="160%" height="160%">
    <feGaussianBlur stdDeviation="1.8"/>
  </filter>
  <filter id="redGlow" x="-40%" y="-40%" width="180%" height="180%">
    <feGaussianBlur stdDeviation="3.5" result="blur"/>
    <feMerge><feMergeNode in="blur"/><feMergeNode in="SourceGraphic"/></feMerge>
  </filter>
  <linearGradient id="inkWashGrad" x1="0%" y1="0%" x2="100%" y2="100%">
    <stop offset="0%" stop-color="#313244"/><stop offset="60%" stop-color="#11111b"/><stop offset="100%" stop-color="#11111b"/>
  </linearGradient>
  <linearGradient id="inkWashLight" x1="0%" y1="0%" x2="100%" y2="100%">
    <stop offset="0%" stop-color="#6c7086"/><stop offset="50%" stop-color="#45475a"/><stop offset="100%" stop-color="#1e1e2e"/>
  </linearGradient>
  <linearGradient id="spiritGold" x1="0%" y1="0%" x2="100%" y2="0%">
    <stop offset="0%" stop-color="#cdd6f4"/><stop offset="35%" stop-color="#f9e2af"/><stop offset="75%" stop-color="#fab387"/><stop offset="100%" stop-color="#fab387"/>
  </linearGradient>
  <linearGradient id="sacredMaple" x1="0%" y1="0%" x2="100%" y2="100%">
    <stop offset="0%" stop-color="#f38ba8"/><stop offset="50%" stop-color="#fab387"/><stop offset="100%" stop-color="#eba0ac"/>
  </linearGradient>
  <linearGradient id="sakuraBlade" x1="0%" y1="0%" x2="100%" y2="100%">
    <stop offset="0%" stop-color="#cdd6f4"/><stop offset="40%" stop-color="#f2cdcd"/><stop offset="85%" stop-color="#f5c2e7"/><stop offset="100%" stop-color="#cba6f7"/>
  </linearGradient>
  <linearGradient id="crimsonGaze" x1="0%" y1="0%" x2="100%" y2="100%">
    <stop offset="0%" stop-color="#f38ba8"/><stop offset="60%" stop-color="#eba0ac"/><stop offset="100%" stop-color="#1e1e2e"/>
  </linearGradient>
</defs>
  <g transform="translate(0, 0)"><clipPath id="frame0"><rect x="0" y="0" width="120" height="120"/></clipPath><g clip-path="url(#frame0)"><path d="M 56.6 52 C 48 67 51 77 56 82 C 64 74 62.6 56 56.6 52" fill="url(#sacredMaple)" opacity="0.85" filter="url(#sakuraGlow)"/><g transform="rotate(-3 60 50)">
    <path d="M 48 50 L 72 50 L 68 78 L 52 78 Z" fill="url(#inkWashGrad)" stroke="#fab387" stroke-width="1.2"/>
    <circle cx="60" cy="61.2" r="5" fill="#fab387" filter="url(#goldGlow)"/>
  </g><line x1="54" y1="78" x2="51.22162915732911" y2="93.75692404819533" stroke="url(#inkWashLight)" stroke-width="5" stroke-linecap="round"/>
    <line x1="66" y1="78" x2="68.77837084267088" y2="93.75692404819533" stroke="url(#inkWashLight)" stroke-width="5" stroke-linecap="round"/>
    <circle cx="51.22162915732911" cy="93.75692404819533" r="2.5" fill="#fab387"/>
    <circle cx="68.77837084267088" cy="93.75692404819533" r="2.5" fill="#fab387"/><line x1="48" y1="54" x2="45.91622186799684" y2="42.182306963853506" stroke="url(#inkWashLight)" stroke-width="4" stroke-linecap="round"/>
    <circle cx="45.91622186799684" cy="42.182306963853506" r="2.5" fill="#fab387" filter="url(#goldGlow)"/><line x1="72" y1="54" x2="84.12435565298215" y2="47" stroke="url(#inkWashLight)" stroke-width="4" stroke-linecap="round"/>
    <circle cx="84.12435565298215" cy="47" r="2.5" fill="#fab387" filter="url(#goldGlow)"/><line x1="80" y1="42" x2="107.57461708434182" y2="37.13785102532595" stroke="url(#sakuraBlade)" stroke-width="3" stroke-linecap="round" filter="url(#sakuraGlow)"/>
    <line x1="80" y1="42" x2="107.57461708434182" y2="37.13785102532595" stroke="#cdd6f4" stroke-width="1.2" stroke-linecap="round"/><g transform="rotate(0 60 42)">
    <ellipse cx="60" cy="42" rx="22" ry="6" fill="url(#inkWashLight)" stroke="#fab387" stroke-width="1.8"/>
    <path d="M 38 42 C 38 30 82 30 82 42 Z" fill="url(#inkWashGrad)" stroke="#fab387" stroke-width="1.2"/>
    <line x1="60" y1="30" x2="60" y2="46" stroke="#fab387" stroke-width="0.8" opacity="0.6"/>
  </g><path d="M 54 48 L 60 52 L 66 48" fill="none" stroke="#fab387" stroke-width="2.2" filter="url(#heavyGoldGlow)"/>
    <polygon points="58.5,48 60,50.5 61.5,48" fill="#cdd6f4"/></g></g><g transform="translate(120, 0)"><clipPath id="frame1"><rect x="0" y="0" width="120" height="120"/></clipPath><g clip-path="url(#frame1)"><path d="M 56.9 52 C 51 67 53.5 77 58.5 82 C 66.5 74 62.9 56 56.9 52" fill="url(#sacredMaple)" opacity="0.85" filter="url(#sakuraGlow)"/><g transform="rotate(-2 60 50)">
    <path d="M 48 50 L 72 50 L 68 78 L 52 78 Z" fill="url(#inkWashGrad)" stroke="#fab387" stroke-width="1.2"/>
    <circle cx="60" cy="61.2" r="5" fill="#fab387" filter="url(#goldGlow)"/>
  </g><line x1="54" y1="78" x2="51.77323038463895" y2="93.84428909986512" stroke="url(#inkWashLight)" stroke-width="5" stroke-linecap="round"/>
    <line x1="66" y1="78" x2="68.22676961536105" y2="93.84428909986512" stroke="url(#inkWashLight)" stroke-width="5" stroke-linecap="round"/>
    <circle cx="51.77323038463895" cy="93.84428909986512" r="2.5" fill="#fab387"/>
    <circle cx="68.22676961536105" cy="93.84428909986512" r="2.5" fill="#fab387"/><line x1="48" y1="54" x2="48" y2="42" stroke="url(#inkWashLight)" stroke-width="4" stroke-linecap="round"/>
    <circle cx="48" cy="42" r="2.5" fill="#fab387" filter="url(#goldGlow)"/><line x1="72" y1="52" x2="87.75692404819533" y2="49.22162915732911" stroke="url(#inkWashLight)" stroke-width="4" stroke-linecap="round"/>
    <circle cx="87.75692404819533" cy="49.22162915732911" r="2.5" fill="#fab387" filter="url(#goldGlow)"/><line x1="84" y1="36" x2="116" y2="36" stroke="url(#sakuraBlade)" stroke-width="3" stroke-linecap="round" filter="url(#sakuraGlow)"/>
    <line x1="84" y1="36" x2="116" y2="36" stroke="#cdd6f4" stroke-width="1.2" stroke-linecap="round"/><circle cx="90" cy="56" r="18" fill="none" stroke="#fab387" stroke-width="2.5" stroke-dasharray="8 4" opacity="0.6" filter="url(#goldGlow)"/><g transform="rotate(-2 60 42)">
    <ellipse cx="60" cy="42" rx="22" ry="6" fill="url(#inkWashLight)" stroke="#fab387" stroke-width="1.8"/>
    <path d="M 38 42 C 38 30 82 30 82 42 Z" fill="url(#inkWashGrad)" stroke="#fab387" stroke-width="1.2"/>
    <line x1="60" y1="30" x2="60" y2="46" stroke="#fab387" stroke-width="0.8" opacity="0.6"/>
  </g><path d="M 54 48 L 60 52 L 66 48" fill="none" stroke="#fab387" stroke-width="2.2" filter="url(#heavyGoldGlow)"/>
    <polygon points="58.5,48 60,50.5 61.5,48" fill="#cdd6f4"/></g></g><g transform="translate(240, 0)"><clipPath id="frame2"><rect x="0" y="0" width="120" height="120"/></clipPath><g clip-path="url(#frame2)"><path d="M 57.2 52 C 54 67 56 77 61 82 C 69 74 63.2 56 57.2 52" fill="url(#sacredMaple)" opacity="0.85" filter="url(#sakuraGlow)"/><g transform="rotate(-2 60 50)">
    <path d="M 48 50 L 72 50 L 68 78 L 52 78 Z" fill="url(#inkWashGrad)" stroke="#fab387" stroke-width="1.2"/>
    <circle cx="60" cy="61.2" r="5" fill="#fab387" filter="url(#goldGlow)"/>
  </g><line x1="54" y1="78" x2="51.77323038463895" y2="93.84428909986512" stroke="url(#inkWashLight)" stroke-width="5" stroke-linecap="round"/>
    <line x1="66" y1="78" x2="68.22676961536105" y2="93.84428909986512" stroke="url(#inkWashLight)" stroke-width="5" stroke-linecap="round"/>
    <circle cx="51.77323038463895" cy="93.84428909986512" r="2.5" fill="#fab387"/>
    <circle cx="68.22676961536105" cy="93.84428909986512" r="2.5" fill="#fab387"/><line x1="48" y1="54" x2="49.0458689129719" y2="42.045663622899056" stroke="url(#inkWashLight)" stroke-width="4" stroke-linecap="round"/>
    <circle cx="49.0458689129719" cy="42.045663622899056" r="2.5" fill="#fab387" filter="url(#goldGlow)"/><line x1="72" y1="50" x2="89.93150456565142" y2="48.43119663054215" stroke="url(#inkWashLight)" stroke-width="4" stroke-linecap="round"/>
    <circle cx="89.93150456565142" cy="48.43119663054215" r="2.5" fill="#fab387" filter="url(#goldGlow)"/><line x1="86" y1="32" x2="119.87061973511935" y2="34.96329525342038" stroke="url(#sakuraBlade)" stroke-width="3" stroke-linecap="round" filter="url(#sakuraGlow)"/>
    <line x1="86" y1="32" x2="119.87061973511935" y2="34.96329525342038" stroke="#cdd6f4" stroke-width="1.2" stroke-linecap="round"/><circle cx="92" cy="54" r="22" fill="none" stroke="#fab387" stroke-width="3.5" stroke-dasharray="12 6" filter="url(#heavyGoldGlow)"/><circle cx="92" cy="54" r="14" fill="rgba(250,179,135,0.08)" stroke="#cdd6f4" stroke-width="1" stroke-dasharray="4 3"/><g transform="rotate(-2 60 42)">
    <ellipse cx="60" cy="42" rx="22" ry="6" fill="url(#inkWashLight)" stroke="#fab387" stroke-width="1.8"/>
    <path d="M 38 42 C 38 30 82 30 82 42 Z" fill="url(#inkWashGrad)" stroke="#fab387" stroke-width="1.2"/>
    <line x1="60" y1="30" x2="60" y2="46" stroke="#fab387" stroke-width="0.8" opacity="0.6"/>
  </g><path d="M 54 48 L 60 52 L 66 48" fill="none" stroke="#fab387" stroke-width="2.2" filter="url(#heavyGoldGlow)"/>
    <polygon points="58.5,48 60,50.5 61.5,48" fill="#cdd6f4"/></g></g>
</svg>