<svg xmlns="http://www.w3.org/2000/svg" viewBox="0 0 480 120" width="480" height="120">
  <defs>
  <filter id="goldGlow" x="-50%" y="-50%" width="200%" height="200%">
    <feGaussianBlur stdDeviation="4.5" result="blur"/>
    <feMerge><feMergeNode in="blur"/><feMergeNode in="SourceGraphic"/></feMerge>
  </filter>
  <filter id="heavyGoldGlow" x="-80%" y="-80%" width="260%" height="260%">
    <feGaussianBlur stdDeviation="7" result="blur1"/>
    <feGaussianBlur stdDeviation="2.5" result="blur2"/>
    <feMerge><feMergeNode in="blur1"/><feMergeNode in="blur2"/><feMergeNode in="SourceGraphic"/></feMerge>
  </filter>
  <filter id="sakuraGlow" x="-50%" y="-50%" width="200%" height="200%">
    <feGaussianBlur stdDeviation="4" result="blur"/>
    <feMerge><feMergeNode in="blur"/><feMergeNode in="SourceGraphic"/></feMerge>
  </filter>
  <filter id="inkMisty" x="-30%" y="-30%" width="160%" height="160%">
    <feGaussianBlur stdDeviation="1.8"/>
  </filter>
  <filter id="redGlow" x="-40%" y="-40%" width="180%" height="180%">
    <feGaussianBlur stdDeviation="3.5" result="blur"/>
    <feMerge><feMergeNode in="blur"/><feMergeNode in="SourceGraphic"/></feMerge>
  </filter>
  <linearGradient id="inkWashGrad" x1="0%" y1="0%" x2="100%" y2="100%">
    <stop offset="0%" stop-color="#313244"/><stop offset="60%" stop-color="#11111b"/><stop offset="100%" stop-color="#11111b"/>
  </linearGradient>
  <linearGradient id="inkWashLight" x1="0%" y1="0%" x2="100%" y2="100%">
    <stop offset="0%" stop-color="#6c7086"/><stop offset="50%" stop-color="#45475a"/><stop offset="100%" stop-color="#1e1e2e"/>
  </linearGradient>
  <linearGradient id="spiritGold" x1="0%" y1="0%" x2="100%" y2="0%">
    <stop offset="0%" stop-color="#cdd6f4"/><stop offset="35%" stop-color="#f9e2af"/><stop offset="75%" stop-color="#fab387"/><stop offset="100%" stop-color="#fab387"/>
  </linearGradient>
  <linearGradient id="sacredMaple" x1="0%" y1="0%" x2="100%" y2="100%">
    <stop offset="0%" stop-color="#f38ba8"/><stop offset="50%" stop-color="#fab387"/><stop offset="100%" stop-color="#eba0ac"/>
  </linearGradient>
  <linearGradient id="sakuraBlade" x1="0%" y1="0%" x2="100%" y2="100%">
    <stop offset="0%" stop-color="#cdd6f4"/><stop offset="40%" stop-color="#f2cdcd"/><stop offset="85%" stop-color="#f5c2e7"/><stop offset="100%" stop-color="#cba6f7"/>
  </linearGradient>
  <linearGradient id="crimsonGaze" x1="0%" y1="0%" x2="100%" y2="100%">
    <stop offset="0%" stop-color="#f38ba8"/><stop offset="60%" stop-color="#eba0ac"/><stop offset="100%" stop-color="#1e1e2e"/>
  </linearGradient>
</defs>
  <g transform="translate(0, 0)"><clipPath id="frame0"><rect x="0" y="0" width="120" height="120"/></clipPath><g clip-path="url(#frame0)"><path d="M 54.8 52 C 36 67 39 77 44 82 C 52 74 60.8 56 54.8 52" fill="url(#sacredMaple)" opacity="0.85" filter="url(#sakuraGlow)"/><g transform="rotate(10 60 50)">
    <path d="M 48 50 L 72 50 L 68 76.6 L 52 76.6 Z" fill="url(#inkWashGrad)" stroke="#fab387" stroke-width="1.2"/>
    <circle cx="60" cy="60.64" r="5" fill="#fab387" filter="url(#goldGlow)"/>
  </g><line x1="54" y1="76" x2="56.77837084267089" y2="91.75692404819533" stroke="url(#inkWashLight)" stroke-width="5" stroke-linecap="round"/>
    <line x1="66" y1="76" x2="63.22162915732911" y2="91.75692404819533" stroke="url(#inkWashLight)" stroke-width="5" stroke-linecap="round"/>
    <circle cx="56.77837084267089" cy="91.75692404819533" r="2.5" fill="#fab387"/>
    <circle cx="63.22162915732911" cy="91.75692404819533" r="2.5" fill="#fab387"/><line x1="50" y1="54" x2="57" y2="41.87564434701786" stroke="url(#inkWashLight)" stroke-width="4" stroke-linecap="round"/>
    <circle cx="57" cy="41.87564434701786" r="2.5" fill="#fab387" filter="url(#goldGlow)"/><line x1="74" y1="54" x2="86.12435565298215" y2="47" stroke="url(#inkWashLight)" stroke-width="4" stroke-linecap="round"/>
    <circle cx="86.12435565298215" cy="47" r="2.5" fill="#fab387" filter="url(#goldGlow)"/><line x1="80" y1="44" x2="108.19077862357724" y2="54.260604299770065" stroke="url(#sakuraBlade)" stroke-width="3" stroke-linecap="round" filter="url(#sakuraGlow)"/>
    <line x1="80" y1="44" x2="108.19077862357724" y2="54.260604299770065" stroke="#cdd6f4" stroke-width="1.2" stroke-linecap="round"/><g transform="rotate(-5 62 42)">
    <ellipse cx="62" cy="42" rx="22" ry="6" fill="url(#inkWashLight)" stroke="#fab387" stroke-width="1.8"/>
    <path d="M 40 42 C 40 30 84 30 84 42 Z" fill="url(#inkWashGrad)" stroke="#fab387" stroke-width="1.2"/>
    <line x1="62" y1="30" x2="62" y2="46" stroke="#fab387" stroke-width="0.8" opacity="0.6"/>
  </g><path d="M 56 48 L 62 52 L 68 48" fill="none" stroke="#fab387" stroke-width="2.2" filter="url(#heavyGoldGlow)"/>
    <polygon points="60.5,48 62,50.5 63.5,48" fill="#cdd6f4"/></g></g><g transform="translate(120, 0)"><clipPath id="frame1"><rect x="0" y="0" width="120" height="120"/></clipPath><g clip-path="url(#frame1)"><circle cx="60" cy="60" r="32" fill="none" stroke="url(#inkWashGrad)" stroke-width="6" opacity="0.5" stroke-dasharray="40 60" filter="url(#inkMisty)"/><path d="M 59 52 C 42 67 56 77 61 82 C 69 74 65 56 59 52" fill="url(#sacredMaple)" opacity="0.85" filter="url(#sakuraGlow)"/><g transform="rotate(0 60 50)">
    <path d="M 48 50 L 72 50 L 68 75.2 L 52 75.2 Z" fill="url(#inkWashGrad)" stroke="#fab387" stroke-width="1.2"/>
    <circle cx="60" cy="60.08" r="5" fill="#fab387" filter="url(#goldGlow)"/>
  </g><line x1="54" y1="74" x2="54" y2="88" stroke="url(#inkWashLight)" stroke-width="5" stroke-linecap="round"/>
    <line x1="66" y1="74" x2="66" y2="88" stroke="url(#inkWashLight)" stroke-width="5" stroke-linecap="round"/>
    <circle cx="54" cy="88" r="2.5" fill="#fab387"/>
    <circle cx="66" cy="88" r="2.5" fill="#fab387"/><line x1="46" y1="54" x2="61.035081932574535" y2="48.5276777067893" stroke="url(#inkWashLight)" stroke-width="4" stroke-linecap="round"/>
    <circle cx="61.035081932574535" cy="48.5276777067893" r="2.5" fill="#fab387" filter="url(#goldGlow)"/><line x1="74" y1="54" x2="58.964918067425465" y2="48.5276777067893" stroke="url(#inkWashLight)" stroke-width="4" stroke-linecap="round"/>
    <circle cx="58.964918067425465" cy="48.5276777067893" r="2.5" fill="#fab387" filter="url(#goldGlow)"/><line x1="40" y1="50" x2="8.050450893279116" y2="61.62868487307274" stroke="url(#sakuraBlade)" stroke-width="3" stroke-linecap="round" filter="url(#sakuraGlow)"/>
    <line x1="40" y1="50" x2="8.050450893279116" y2="61.62868487307274" stroke="#cdd6f4" stroke-width="1.2" stroke-linecap="round"/><g transform="rotate(0 60 42)">
    <ellipse cx="60" cy="42" rx="22" ry="6" fill="url(#inkWashLight)" stroke="#fab387" stroke-width="1.8"/>
    <path d="M 38 42 C 38 30 82 30 82 42 Z" fill="url(#inkWashGrad)" stroke="#fab387" stroke-width="1.2"/>
    <line x1="60" y1="30" x2="60" y2="46" stroke="#fab387" stroke-width="0.8" opacity="0.6"/>
  </g><path d="M 54 48 L 60 52 L 66 48" fill="none" stroke="#fab387" stroke-width="2.2" filter="url(#heavyGoldGlow)"/>
    <polygon points="58.5,48 60,50.5 61.5,48" fill="#cdd6f4"/></g></g><g transform="translate(240, 0)"><clipPath id="frame2"><rect x="0" y="0" width="120" height="120"/></clipPath><g clip-path="url(#frame2)"><circle cx="60" cy="60" r="36" fill="none" stroke="url(#sakuraBlade)" stroke-width="4" opacity="0.85" stroke-dasharray="60 40" filter="url(#sakuraGlow)"/><circle cx="60" cy="60" r="36" fill="none" stroke="#cdd6f4" stroke-width="1.5" opacity="0.9" stroke-dasharray="30 70"/><path d="M 53 52 C 18 67 24 77 29 82 C 37 74 59 56 53 52" fill="url(#sacredMaple)" opacity="0.85" filter="url(#sakuraGlow)"/><g transform="rotate(0 60 50)">
    <path d="M 48 50 L 72 50 L 68 75.2 L 52 75.2 Z" fill="url(#inkWashGrad)" stroke="#fab387" stroke-width="1.2"/>
    <circle cx="60" cy="60.08" r="5" fill="#fab387" filter="url(#goldGlow)"/>
  </g><line x1="54" y1="74" x2="54" y2="88" stroke="url(#inkWashLight)" stroke-width="5" stroke-linecap="round"/>
    <line x1="66" y1="74" x2="66" y2="88" stroke="url(#inkWashLight)" stroke-width="5" stroke-linecap="round"/>
    <circle cx="54" cy="88" r="2.5" fill="#fab387"/>
    <circle cx="66" cy="88" r="2.5" fill="#fab387"/><line x1="74" y1="54" x2="89.03508193257454" y2="48.5276777067893" stroke="url(#inkWashLight)" stroke-width="4" stroke-linecap="round"/>
    <circle cx="89.03508193257454" cy="48.5276777067893" r="2.5" fill="#fab387" filter="url(#goldGlow)"/><line x1="46" y1="54" x2="30.964918067425465" y2="48.5276777067893" stroke="url(#inkWashLight)" stroke-width="4" stroke-linecap="round"/>
    <circle cx="30.964918067425465" cy="48.5276777067893" r="2.5" fill="#fab387" filter="url(#goldGlow)"/><line x1="80" y1="50" x2="111.9495491067209" y2="38.371315126927264" stroke="url(#sakuraBlade)" stroke-width="3" stroke-linecap="round" filter="url(#sakuraGlow)"/>
    <line x1="80" y1="50" x2="111.9495491067209" y2="38.371315126927264" stroke="#cdd6f4" stroke-width="1.2" stroke-linecap="round"/><g transform="rotate(0 60 42)">
    <ellipse cx="60" cy="42" rx="22" ry="6" fill="url(#inkWashLight)" stroke="#fab387" stroke-width="1.8"/>
    <path d="M 38 42 C 38 30 82 30 82 42 Z" fill="url(#inkWashGrad)" stroke="#fab387" stroke-width="1.2"/>
    <line x1="60" y1="30" x2="60" y2="46" stroke="#fab387" stroke-width="0.8" opacity="0.6"/>
  </g><path d="M 54 48 L 60 52 L 66 48" fill="none" stroke="#fab387" stroke-width="2.2" filter="url(#heavyGoldGlow)"/>
    <polygon points="58.5,48 60,50.5 61.5,48" fill="#cdd6f4"/></g></g><g transform="translate(360, 0)"><clipPath id="frame3"><rect x="0" y="0" width="120" height="120"/></clipPath><g clip-path="url(#frame3)"><circle cx="60" cy="60" r="30" fill="none" stroke="url(#sakuraBlade)" stroke-width="2" opacity="0.4" filter="url(#sakuraGlow)"/><path d="M 57.5 52 C 45 67 52.5 77 57.5 82 C 65.5 74 63.5 56 57.5 52" fill="url(#sacredMaple)" opacity="0.85" filter="url(#sakuraGlow)"/><g transform="rotate(5 60 50)">
    <path d="M 48 50 L 72 50 L 68 78 L 52 78 Z" fill="url(#inkWashGrad)" stroke="#fab387" stroke-width="1.2"/>
    <circle cx="60" cy="61.2" r="5" fill="#fab387" filter="url(#goldGlow)"/>
  </g><line x1="54" y1="78" x2="55.48164762671019" y2="94.93530986755968" stroke="url(#inkWashLight)" stroke-width="5" stroke-linecap="round"/>
    <line x1="66" y1="78" x2="64.51835237328982" y2="94.93530986755968" stroke="url(#inkWashLight)" stroke-width="5" stroke-linecap="round"/>
    <circle cx="55.48164762671019" cy="94.93530986755968" r="2.5" fill="#fab387"/>
    <circle cx="64.51835237328982" cy="94.93530986755968" r="2.5" fill="#fab387"/><line x1="50" y1="54" x2="54.104241719908025" y2="42.7236885505691" stroke="url(#inkWashLight)" stroke-width="4" stroke-linecap="round"/>
    <circle cx="54.104241719908025" cy="42.7236885505691" r="2.5" fill="#fab387" filter="url(#goldGlow)"/><line x1="72" y1="54" x2="80.99902653561155" y2="43.27537779633431" stroke="url(#inkWashLight)" stroke-width="4" stroke-linecap="round"/>
    <circle cx="80.99902653561155" cy="43.27537779633431" r="2.5" fill="#fab387" filter="url(#goldGlow)"/><line x1="76" y1="44" x2="103.57461708434182" y2="48.86214897467405" stroke="url(#sakuraBlade)" stroke-width="3" stroke-linecap="round" filter="url(#sakuraGlow)"/>
    <line x1="76" y1="44" x2="103.57461708434182" y2="48.86214897467405" stroke="#cdd6f4" stroke-width="1.2" stroke-linecap="round"/><g transform="rotate(-3 61 42)">
    <ellipse cx="61" cy="42" rx="22" ry="6" fill="url(#inkWashLight)" stroke="#fab387" stroke-width="1.8"/>
    <path d="M 39 42 C 39 30 83 30 83 42 Z" fill="url(#inkWashGrad)" stroke="#fab387" stroke-width="1.2"/>
    <line x1="61" y1="30" x2="61" y2="46" stroke="#fab387" stroke-width="0.8" opacity="0.6"/>
  </g><path d="M 55 48 L 61 52 L 67 48" fill="none" stroke="#fab387" stroke-width="2.2" filter="url(#heavyGoldGlow)"/>
    <polygon points="59.5,48 61,50.5 62.5,48" fill="#cdd6f4"/></g></g>
</svg>