<svg xmlns="http://www.w3.org/2000/svg" viewBox="0 0 80 80" width="80" height="80">
    <defs>
      <!-- Premium Oriental Cyber-Zen Filters -->
      <filter id="goldGlow" x="-50%" y="-50%" width="200%" height="200%">
        <feGaussianBlur stdDeviation="4.5" result="blur" />
        <feMerge>
          <feMergeNode in="blur" />
          <feMergeNode in="SourceGraphic" />
        </feMerge>
      </filter>
      <filter id="heavyGoldGlow" x="-80%" y="-80%" width="260%" height="260%">
        <feGaussianBlur stdDeviation="7" result="blur1" />
        <feGaussianBlur stdDeviation="2.5" result="blur2" />
        <feMerge>
          <feMergeNode in="blur1" />
          <feMergeNode in="blur2" />
          <feMergeNode in="SourceGraphic" />
        </feMerge>
      </filter>
      <filter id="sakuraGlow" x="-50%" y="-50%" width="200%" height="200%">
        <feGaussianBlur stdDeviation="4" result="blur" />
        <feMerge>
          <feMergeNode in="blur" />
          <feMergeNode in="SourceGraphic" />
        </feMerge>
      </filter>
      <filter id="inkMisty" x="-30%" y="-30%" width="160%" height="160%">
        <feGaussianBlur stdDeviation="1.8" />
      </filter>
      <filter id="redGlow" x="-40%" y="-40%" width="180%" height="180%">
        <feGaussianBlur stdDeviation="3.5" result="blur" />
        <feMerge>
          <feMergeNode in="blur" />
          <feMergeNode in="SourceGraphic" />
        </feMerge>
      </filter>

      <!-- Advanced Cyber-Zen Gradients -->
      <linearGradient id="inkWashGrad" x1="0%" y1="0%" x2="100%" y2="100%">
        <stop offset="0%" stop-color="#2a2a2a"/>
        <stop offset="60%" stop-color="#121212"/>
        <stop offset="100%" stop-color="#050505"/>
      </linearGradient>
      <linearGradient id="inkWashLight" x1="0%" y1="0%" x2="100%" y2="100%">
        <stop offset="0%" stop-color="#6e6e6e"/>
        <stop offset="50%" stop-color="#3c3c3c"/>
        <stop offset="100%" stop-color="#1c1c1c"/>
      </linearGradient>
      <linearGradient id="spiritGold" x1="0%" y1="0%" x2="100%" y2="0%">
        <stop offset="0%" stop-color="#ffffff"/>
        <stop offset="35%" stop-color="#ffe680"/>
        <stop offset="75%" stop-color="#e5c158"/>
        <stop offset="100%" stop-color="#b8860b"/>
      </linearGradient>
      <linearGradient id="sacredMaple" x1="0%" y1="0%" x2="100%" y2="100%">
        <stop offset="0%" stop-color="#ff2200"/>
        <stop offset="50%" stop-color="#d43f00"/>
        <stop offset="100%" stop-color="#800000"/>
      </linearGradient>
      <linearGradient id="sakuraBlade" x1="0%" y1="0%" x2="100%" y2="100%">
        <stop offset="0%" stop-color="#ffffff"/>
        <stop offset="40%" stop-color="#ffb3d9"/>
        <stop offset="85%" stop-color="#ff3399"/>
        <stop offset="100%" stop-color="#cc0066"/>
      </linearGradient>
      <linearGradient id="crimsonGaze" x1="0%" y1="0%" x2="100%" y2="100%">
        <stop offset="0%" stop-color="#ff3333"/>
        <stop offset="60%" stop-color="#aa0000"/>
        <stop offset="100%" stop-color="#550000"/>
      </linearGradient>
    </defs>
    
  <g transform="translate(0, 10) rotate(90 40 40)">
    <!-- Calligraphy brush speed traces -->
    <path d="M 10 20 C 25 -8 55 -8 70 20" fill="none" stroke="#e5c158" stroke-width="2.5" filter="url(#goldGlow)" opacity="0.75"/>
    <path d="M 5 25 C 25 -18 55 -18 75 25" fill="none" stroke="#cc1100" stroke-width="3" opacity="0.8"/>
    
    <!-- Floating gold cherry petals -->
    <circle cx="20" cy="4" r="3.5" fill="#e5c158" filter="url(#goldGlow)"/>
    <circle cx="60" cy="4" r="4.5" fill="#ff5599" filter="url(#sakuraGlow)"/>
    <circle cx="40" cy="-12" r="3" fill="#ffffff"/>

    <!-- Spiritual Golden Windstorm Shell -->
    <path d="M 40 0 C 65 22 70 68 40 88 C 10 68 15 22 40 0 Z" fill="url(#spiritGold)" stroke="#ffffff" stroke-width="2" filter="url(#heavyGoldGlow)"/>
    
    <!-- Yin-Yang core swirling inside -->
    <circle cx="40" cy="44" r="15" fill="#1c1c1c" stroke="#e5c158" stroke-width="1.5"/>
    <path d="M 40 29 A 7.5 7.5 0 0 0 40 44 A 7.5 7.5 0 0 1 40 59 A 15 15 0 0 0 40 29 Z" fill="#e5c158"/>
    <circle cx="40" cy="36.5" r="2.5" fill="#1c1c1c"/>
    <circle cx="40" cy="51.5" r="2.5" fill="#ffffff"/>
  </g>

  </svg>