<svg xmlns="http://www.w3.org/2000/svg" viewBox="0 0 720 120" width="720" height="120">
  <defs>
  <filter id="goldGlow" x="-50%" y="-50%" width="200%" height="200%">
    <feGaussianBlur stdDeviation="3" result="blur"/>
    <feMerge><feMergeNode in="blur"/><feMergeNode in="SourceGraphic"/></feMerge>
  </filter>
  <filter id="heavyGoldGlow" x="-80%" y="-80%" width="260%" height="260%">
    <feGaussianBlur stdDeviation="5" result="blur1"/>
    <feGaussianBlur stdDeviation="1.5" result="blur2"/>
    <feMerge><feMergeNode in="blur1"/><feMergeNode in="blur2"/><feMergeNode in="SourceGraphic"/></feMerge>
  </filter>
  <filter id="sakuraGlow" x="-50%" y="-50%" width="200%" height="200%">
    <feGaussianBlur stdDeviation="3.5" result="blur"/>
    <feMerge><feMergeNode in="blur"/><feMergeNode in="SourceGraphic"/></feMerge>
  </filter>
  <filter id="inkMisty" x="-30%" y="-30%" width="160%" height="160%">
    <feGaussianBlur stdDeviation="1.5"/>
  </filter>
  <filter id="redGlow" x="-40%" y="-40%" width="180%" height="180%">
    <feGaussianBlur stdDeviation="3" result="blur"/>
    <feMerge><feMergeNode in="blur"/><feMergeNode in="SourceGraphic"/></feMerge>
  </filter>
  <linearGradient id="inkWashGrad" x1="0%" y1="0%" x2="100%" y2="100%">
    <stop offset="0%" stop-color="#e7f5ff"/><stop offset="60%" stop-color="#a5d8ff"/><stop offset="100%" stop-color="#74c0fc"/>
  </linearGradient>
  <linearGradient id="inkWashLight" x1="0%" y1="0%" x2="100%" y2="100%">
    <stop offset="0%" stop-color="#f8f9fa"/><stop offset="50%" stop-color="#e9ecef"/><stop offset="100%" stop-color="#dee2e6"/>
  </linearGradient>
  <linearGradient id="spiritGold" x1="0%" y1="0%" x2="100%" y2="0%">
    <stop offset="0%" stop-color="#fff9db"/><stop offset="35%" stop-color="#ffe066"/><stop offset="75%" stop-color="#ffd43b"/><stop offset="100%" stop-color="#fab005"/>
  </linearGradient>
  <linearGradient id="sacredMaple" x1="0%" y1="0%" x2="100%" y2="100%">
    <stop offset="0%" stop-color="#fff5f5"/><stop offset="50%" stop-color="#ffc9c9"/><stop offset="100%" stop-color="#ff8787"/>
  </linearGradient>
  <linearGradient id="sakuraBlade" x1="0%" y1="0%" x2="100%" y2="100%">
    <stop offset="0%" stop-color="#e3fafc"/><stop offset="40%" stop-color="#96f2d7"/><stop offset="85%" stop-color="#3bc9db"/><stop offset="100%" stop-color="#15aabf"/>
  </linearGradient>
  <linearGradient id="crimsonGaze" x1="0%" y1="0%" x2="100%" y2="100%">
    <stop offset="0%" stop-color="#ff8787"/><stop offset="60%" stop-color="#ff6b6b"/><stop offset="100%" stop-color="#495057"/>
  </linearGradient>
</defs>
  <g transform="translate(0, 0)"><clipPath id="frame0"><rect x="0" y="0" width="120" height="120"/></clipPath><g clip-path="url(#frame0)"><path d="M 56.43148298474378 52 C 45.43827661581261 67 49.15741492371891 77 54.15741492371891 82 C 62.15741492371891 74 62.43148298474378 56 56.43148298474378 52" fill="url(#sacredMaple)" opacity="0.85" filter="url(#sakuraGlow)"/><g transform="rotate(0 60 50)">
    <path d="M 48 50 L 72 50 L 68 78 L 52 78 Z" fill="url(#inkWashGrad)" stroke="#495057" stroke-width="1.2"/>
    <circle cx="60" cy="61.2" r="5" fill="#74c0fc" filter="url(#goldGlow)"/>
  </g><line x1="54" y1="78" x2="52.43119663054215" y2="95.93150456565142" stroke="url(#inkWashLight)" stroke-width="5" stroke-linecap="round"/>
    <line x1="66" y1="78" x2="67.56880336945785" y2="95.93150456565142" stroke="url(#inkWashLight)" stroke-width="5" stroke-linecap="round"/>
    <circle cx="52.43119663054215" cy="95.93150456565142" r="2.5" fill="#495057"/>
    <circle cx="67.56880336945785" cy="95.93150456565142" r="2.5" fill="#495057"/><line x1="48" y1="58" x2="50.08377813200317" y2="46.182306963853506" stroke="url(#inkWashLight)" stroke-width="4" stroke-linecap="round"/>
    <circle cx="50.08377813200317" cy="46.182306963853506" r="2.5" fill="#74c0fc" filter="url(#goldGlow)"/><line x1="72" y1="58" x2="69.91622186799684" y2="46.182306963853506" stroke="url(#inkWashLight)" stroke-width="4" stroke-linecap="round"/>
    <circle cx="69.91622186799684" cy="46.182306963853506" r="2.5" fill="#74c0fc" filter="url(#goldGlow)"/><line x1="42" y1="45" x2="51.57656401311873" y2="18.688606617994566" stroke="url(#sakuraBlade)" stroke-width="3" stroke-linecap="round" filter="url(#sakuraGlow)"/>
    <line x1="42" y1="45" x2="51.57656401311873" y2="18.688606617994566" stroke="#ffffff" stroke-width="1.2" stroke-linecap="round"/><g transform="rotate(0 60 40)">
    <ellipse cx="60" cy="40" rx="22" ry="6" fill="url(#inkWashLight)" stroke="#495057" stroke-width="1.8"/>
    <path d="M 38 40 C 38 28 82 28 82 40 Z" fill="url(#inkWashGrad)" stroke="#495057" stroke-width="1.2"/>
    <line x1="60" y1="28" x2="60" y2="44" stroke="#495057" stroke-width="0.8" opacity="0.6"/>
  </g><path d="M 54 46 L 60 50 L 66 46" fill="none" stroke="#ff8787" stroke-width="2.2" filter="url(#heavyGoldGlow)"/>
    <polygon points="58.5,46 60,48.5 61.5,46" fill="#ffffff"/></g></g><g transform="translate(120, 0)"><clipPath id="frame1"><rect x="0" y="0" width="120" height="120"/></clipPath><g clip-path="url(#frame1)"><path d="M 56.89974940563565 53.732050807568875 C 46.99916468545218 67.86602540378443 51.49874702817827 77.86602540378443 56.49874702817827 82.86602540378443 C 64.49874702817827 74.86602540378443 62.89974940563565 57.732050807568875 56.89974940563565 53.732050807568875" fill="url(#sacredMaple)" opacity="0.85" filter="url(#sakuraGlow)"/><g transform="rotate(0 60 51.732050807568875)">
    <path d="M 48 51.732050807568875 L 72 51.732050807568875 L 68 79.73205080756887 L 52 79.73205080756887 Z" fill="url(#inkWashGrad)" stroke="#495057" stroke-width="1.2"/>
    <circle cx="60" cy="62.93205080756888" r="5" fill="#74c0fc" filter="url(#goldGlow)"/>
  </g><line x1="54" y1="79.73205080756887" x2="52.97390003813475" y2="97.70278031052061" stroke="url(#inkWashLight)" stroke-width="5" stroke-linecap="round"/>
    <line x1="66" y1="79.73205080756887" x2="67.02609996186526" y2="97.70278031052061" stroke="url(#inkWashLight)" stroke-width="5" stroke-linecap="round"/>
    <circle cx="52.97390003813475" cy="97.70278031052061" r="2.5" fill="#495057"/>
    <circle cx="67.02609996186526" cy="97.70278031052061" r="2.5" fill="#495057"/><line x1="48" y1="59.732050807568875" x2="50.79403301462196" y2="48.0618588848453" stroke="url(#inkWashLight)" stroke-width="4" stroke-linecap="round"/>
    <circle cx="50.79403301462196" cy="48.0618588848453" r="2.5" fill="#74c0fc" filter="url(#goldGlow)"/><line x1="72" y1="59.732050807568875" x2="69.20596698537804" y2="48.0618588848453" stroke="url(#inkWashLight)" stroke-width="4" stroke-linecap="round"/>
    <circle cx="69.20596698537804" cy="48.0618588848453" r="2.5" fill="#74c0fc" filter="url(#goldGlow)"/><line x1="42" y1="46.732050807568875" x2="52.36746056738511" y2="20.722134210553133" stroke="url(#sakuraBlade)" stroke-width="3" stroke-linecap="round" filter="url(#sakuraGlow)"/>
    <line x1="42" y1="46.732050807568875" x2="52.36746056738511" y2="20.722134210553133" stroke="#ffffff" stroke-width="1.2" stroke-linecap="round"/><g transform="rotate(1.299038105676658 60 41.732050807568875)">
    <ellipse cx="60" cy="41.732050807568875" rx="22" ry="6" fill="url(#inkWashLight)" stroke="#495057" stroke-width="1.8"/>
    <path d="M 38 41.732050807568875 C 38 29.732050807568875 82 29.732050807568875 82 41.732050807568875 Z" fill="url(#inkWashGrad)" stroke="#495057" stroke-width="1.2"/>
    <line x1="60" y1="29.732050807568875" x2="60" y2="45.732050807568875" stroke="#495057" stroke-width="0.8" opacity="0.6"/>
  </g><path d="M 54 47.732050807568875 L 60 51.732050807568875 L 66 47.732050807568875" fill="none" stroke="#ff8787" stroke-width="2.2" filter="url(#heavyGoldGlow)"/>
    <polygon points="58.5,47.732050807568875 60,50.232050807568875 61.5,47.732050807568875" fill="#ffffff"/></g></g><g transform="translate(240, 0)"><clipPath id="frame2"><rect x="0" y="0" width="120" height="120"/></clipPath><g clip-path="url(#frame2)"><path d="M 56.46826642089187 53.732050807568875 C 45.560888069639574 67.86602540378443 49.34133210445936 77.86602540378443 54.34133210445936 82.86602540378443 C 62.34133210445936 74.86602540378443 62.46826642089187 57.732050807568875 56.46826642089187 53.732050807568875" fill="url(#sacredMaple)" opacity="0.85" filter="url(#sakuraGlow)"/><g transform="rotate(0 60 51.732050807568875)">
    <path d="M 48 51.732050807568875 L 72 51.732050807568875 L 68 79.73205080756887 L 52 79.73205080756887 Z" fill="url(#inkWashGrad)" stroke="#495057" stroke-width="1.2"/>
    <circle cx="60" cy="62.93205080756888" r="5" fill="#74c0fc" filter="url(#goldGlow)"/>
  </g><line x1="54" y1="79.73205080756887" x2="52.97390003813475" y2="97.70278031052061" stroke="url(#inkWashLight)" stroke-width="5" stroke-linecap="round"/>
    <line x1="66" y1="79.73205080756887" x2="67.02609996186526" y2="97.70278031052061" stroke="url(#inkWashLight)" stroke-width="5" stroke-linecap="round"/>
    <circle cx="52.97390003813475" cy="97.70278031052061" r="2.5" fill="#495057"/>
    <circle cx="67.02609996186526" cy="97.70278031052061" r="2.5" fill="#495057"/><line x1="48" y1="59.732050807568875" x2="50.79403301462196" y2="48.0618588848453" stroke="url(#inkWashLight)" stroke-width="4" stroke-linecap="round"/>
    <circle cx="50.79403301462196" cy="48.0618588848453" r="2.5" fill="#74c0fc" filter="url(#goldGlow)"/><line x1="72" y1="59.732050807568875" x2="69.20596698537804" y2="48.0618588848453" stroke="url(#inkWashLight)" stroke-width="4" stroke-linecap="round"/>
    <circle cx="69.20596698537804" cy="48.0618588848453" r="2.5" fill="#74c0fc" filter="url(#goldGlow)"/><line x1="42" y1="46.732050807568875" x2="52.36746056738511" y2="20.722134210553133" stroke="url(#sakuraBlade)" stroke-width="3" stroke-linecap="round" filter="url(#sakuraGlow)"/>
    <line x1="42" y1="46.732050807568875" x2="52.36746056738511" y2="20.722134210553133" stroke="#ffffff" stroke-width="1.2" stroke-linecap="round"/><g transform="rotate(1.299038105676658 60 41.732050807568875)">
    <ellipse cx="60" cy="41.732050807568875" rx="22" ry="6" fill="url(#inkWashLight)" stroke="#495057" stroke-width="1.8"/>
    <path d="M 38 41.732050807568875 C 38 29.732050807568875 82 29.732050807568875 82 41.732050807568875 Z" fill="url(#inkWashGrad)" stroke="#495057" stroke-width="1.2"/>
    <line x1="60" y1="29.732050807568875" x2="60" y2="45.732050807568875" stroke="#495057" stroke-width="0.8" opacity="0.6"/>
  </g><path d="M 54 47.732050807568875 L 60 51.732050807568875 L 66 47.732050807568875" fill="none" stroke="#ff8787" stroke-width="2.2" filter="url(#heavyGoldGlow)"/>
    <polygon points="58.5,47.732050807568875 60,50.232050807568875 61.5,47.732050807568875" fill="#ffffff"/></g></g><g transform="translate(360, 0)"><clipPath id="frame3"><rect x="0" y="0" width="120" height="120"/></clipPath><g clip-path="url(#frame3)"><path d="M 55.56851701525622 52 C 42.56172338418739 67 44.84258507628109 77 49.84258507628109 82 C 57.84258507628109 74 61.56851701525622 56 55.56851701525622 52" fill="url(#sacredMaple)" opacity="0.85" filter="url(#sakuraGlow)"/><g transform="rotate(0 60 50)">
    <path d="M 48 50 L 72 50 L 68 78 L 52 78 Z" fill="url(#inkWashGrad)" stroke="#495057" stroke-width="1.2"/>
    <circle cx="60" cy="61.2" r="5" fill="#74c0fc" filter="url(#goldGlow)"/>
  </g><line x1="54" y1="78" x2="52.43119663054215" y2="95.93150456565142" stroke="url(#inkWashLight)" stroke-width="5" stroke-linecap="round"/>
    <line x1="66" y1="78" x2="67.56880336945785" y2="95.93150456565142" stroke="url(#inkWashLight)" stroke-width="5" stroke-linecap="round"/>
    <circle cx="52.43119663054215" cy="95.93150456565142" r="2.5" fill="#495057"/>
    <circle cx="67.56880336945785" cy="95.93150456565142" r="2.5" fill="#495057"/><line x1="48" y1="58" x2="50.08377813200317" y2="46.182306963853506" stroke="url(#inkWashLight)" stroke-width="4" stroke-linecap="round"/>
    <circle cx="50.08377813200317" cy="46.182306963853506" r="2.5" fill="#74c0fc" filter="url(#goldGlow)"/><line x1="72" y1="58" x2="69.91622186799684" y2="46.182306963853506" stroke="url(#inkWashLight)" stroke-width="4" stroke-linecap="round"/>
    <circle cx="69.91622186799684" cy="46.182306963853506" r="2.5" fill="#74c0fc" filter="url(#goldGlow)"/><line x1="42" y1="45" x2="51.57656401311873" y2="18.688606617994566" stroke="url(#sakuraBlade)" stroke-width="3" stroke-linecap="round" filter="url(#sakuraGlow)"/>
    <line x1="42" y1="45" x2="51.57656401311873" y2="18.688606617994566" stroke="#ffffff" stroke-width="1.2" stroke-linecap="round"/><g transform="rotate(1.8369701987210297e-16 60 40)">
    <ellipse cx="60" cy="40" rx="22" ry="6" fill="url(#inkWashLight)" stroke="#495057" stroke-width="1.8"/>
    <path d="M 38 40 C 38 28 82 28 82 40 Z" fill="url(#inkWashGrad)" stroke="#495057" stroke-width="1.2"/>
    <line x1="60" y1="28" x2="60" y2="44" stroke="#495057" stroke-width="0.8" opacity="0.6"/>
  </g><path d="M 54 46 L 60 50 L 66 46" fill="none" stroke="#ff8787" stroke-width="2.2" filter="url(#heavyGoldGlow)"/>
    <polygon points="58.5,46 60,48.5 61.5,46" fill="#ffffff"/></g></g><g transform="translate(480, 0)"><clipPath id="frame4"><rect x="0" y="0" width="120" height="120"/></clipPath><g clip-path="url(#frame4)"><path d="M 55.10025059436435 50.267949192431125 C 41.00083531454782 66.13397459621557 42.50125297182173 76.13397459621557 47.50125297182173 81.13397459621557 C 55.50125297182173 73.13397459621557 61.10025059436435 54.267949192431125 55.10025059436435 50.267949192431125" fill="url(#sacredMaple)" opacity="0.85" filter="url(#sakuraGlow)"/><g transform="rotate(0 60 48.267949192431125)">
    <path d="M 48 48.267949192431125 L 72 48.267949192431125 L 68 76.26794919243113 L 52 76.26794919243113 Z" fill="url(#inkWashGrad)" stroke="#495057" stroke-width="1.2"/>
    <circle cx="60" cy="59.46794919243113" r="5" fill="#74c0fc" filter="url(#goldGlow)"/>
  </g><line x1="54" y1="76.26794919243113" x2="51.88992676827752" y2="94.14384332270524" stroke="url(#inkWashLight)" stroke-width="5" stroke-linecap="round"/>
    <line x1="66" y1="76.26794919243113" x2="68.11007323172248" y2="94.14384332270524" stroke="url(#inkWashLight)" stroke-width="5" stroke-linecap="round"/>
    <circle cx="51.88992676827752" cy="94.14384332270524" r="2.5" fill="#495057"/>
    <circle cx="68.11007323172248" cy="94.14384332270524" r="2.5" fill="#495057"/><line x1="48" y1="56.267949192431125" x2="49.36590850797552" y2="44.34594038737482" stroke="url(#inkWashLight)" stroke-width="4" stroke-linecap="round"/>
    <circle cx="49.36590850797552" cy="44.34594038737482" r="2.5" fill="#74c0fc" filter="url(#goldGlow)"/><line x1="72" y1="56.267949192431125" x2="70.63409149202448" y2="44.34594038737482" stroke="url(#inkWashLight)" stroke-width="4" stroke-linecap="round"/>
    <circle cx="70.63409149202448" cy="44.34594038737482" r="2.5" fill="#74c0fc" filter="url(#goldGlow)"/><line x1="42" y1="43.267949192431125" x2="50.77691656064151" y2="16.679121920670212" stroke="url(#sakuraBlade)" stroke-width="3" stroke-linecap="round" filter="url(#sakuraGlow)"/>
    <line x1="42" y1="43.267949192431125" x2="50.77691656064151" y2="16.679121920670212" stroke="#ffffff" stroke-width="1.2" stroke-linecap="round"/><g transform="rotate(-1.2990381056766578 60 38.267949192431125)">
    <ellipse cx="60" cy="38.267949192431125" rx="22" ry="6" fill="url(#inkWashLight)" stroke="#495057" stroke-width="1.8"/>
    <path d="M 38 38.267949192431125 C 38 26.267949192431125 82 26.267949192431125 82 38.267949192431125 Z" fill="url(#inkWashGrad)" stroke="#495057" stroke-width="1.2"/>
    <line x1="60" y1="26.267949192431125" x2="60" y2="42.267949192431125" stroke="#495057" stroke-width="0.8" opacity="0.6"/>
  </g><path d="M 54 44.267949192431125 L 60 48.267949192431125 L 66 44.267949192431125" fill="none" stroke="#ff8787" stroke-width="2.2" filter="url(#heavyGoldGlow)"/>
    <polygon points="58.5,44.267949192431125 60,46.767949192431125 61.5,44.267949192431125" fill="#ffffff"/></g></g><g transform="translate(600, 0)"><clipPath id="frame5"><rect x="0" y="0" width="120" height="120"/></clipPath><g clip-path="url(#frame5)"><path d="M 55.53173357910813 50.267949192431125 C 42.439111930360426 66.13397459621557 44.658667895540646 76.13397459621557 49.658667895540646 81.13397459621557 C 57.658667895540646 73.13397459621557 61.53173357910813 54.267949192431125 55.53173357910813 50.267949192431125" fill="url(#sacredMaple)" opacity="0.85" filter="url(#sakuraGlow)"/><g transform="rotate(0 60 48.267949192431125)">
    <path d="M 48 48.267949192431125 L 72 48.267949192431125 L 68 76.26794919243113 L 52 76.26794919243113 Z" fill="url(#inkWashGrad)" stroke="#495057" stroke-width="1.2"/>
    <circle cx="60" cy="59.46794919243113" r="5" fill="#74c0fc" filter="url(#goldGlow)"/>
  </g><line x1="54" y1="76.26794919243113" x2="51.88992676827752" y2="94.14384332270524" stroke="url(#inkWashLight)" stroke-width="5" stroke-linecap="round"/>
    <line x1="66" y1="76.26794919243113" x2="68.11007323172248" y2="94.14384332270524" stroke="url(#inkWashLight)" stroke-width="5" stroke-linecap="round"/>
    <circle cx="51.88992676827752" cy="94.14384332270524" r="2.5" fill="#495057"/>
    <circle cx="68.11007323172248" cy="94.14384332270524" r="2.5" fill="#495057"/><line x1="48" y1="56.267949192431125" x2="49.36590850797552" y2="44.34594038737482" stroke="url(#inkWashLight)" stroke-width="4" stroke-linecap="round"/>
    <circle cx="49.36590850797552" cy="44.34594038737482" r="2.5" fill="#74c0fc" filter="url(#goldGlow)"/><line x1="72" y1="56.267949192431125" x2="70.63409149202448" y2="44.34594038737482" stroke="url(#inkWashLight)" stroke-width="4" stroke-linecap="round"/>
    <circle cx="70.63409149202448" cy="44.34594038737482" r="2.5" fill="#74c0fc" filter="url(#goldGlow)"/><line x1="42" y1="43.267949192431125" x2="50.77691656064151" y2="16.679121920670212" stroke="url(#sakuraBlade)" stroke-width="3" stroke-linecap="round" filter="url(#sakuraGlow)"/>
    <line x1="42" y1="43.267949192431125" x2="50.77691656064151" y2="16.679121920670212" stroke="#ffffff" stroke-width="1.2" stroke-linecap="round"/><g transform="rotate(-1.299038105676658 60 38.267949192431125)">
    <ellipse cx="60" cy="38.267949192431125" rx="22" ry="6" fill="url(#inkWashLight)" stroke="#495057" stroke-width="1.8"/>
    <path d="M 38 38.267949192431125 C 38 26.267949192431125 82 26.267949192431125 82 38.267949192431125 Z" fill="url(#inkWashGrad)" stroke="#495057" stroke-width="1.2"/>
    <line x1="60" y1="26.267949192431125" x2="60" y2="42.267949192431125" stroke="#495057" stroke-width="0.8" opacity="0.6"/>
  </g><path d="M 54 44.267949192431125 L 60 48.267949192431125 L 66 44.267949192431125" fill="none" stroke="#ff8787" stroke-width="2.2" filter="url(#heavyGoldGlow)"/>
    <polygon points="58.5,44.267949192431125 60,46.767949192431125 61.5,44.267949192431125" fill="#ffffff"/></g></g>
</svg>