<svg xmlns="http://www.w3.org/2000/svg" viewBox="0 0 130 80" width="130" height="80">
    <defs>
      <!-- Premium Oriental Cyber-Zen Filters -->
      <filter id="goldGlow" x="-50%" y="-50%" width="200%" height="200%">
        <feGaussianBlur stdDeviation="4.5" result="blur" />
        <feMerge>
          <feMergeNode in="blur" />
          <feMergeNode in="SourceGraphic" />
        </feMerge>
      </filter>
      <filter id="heavyGoldGlow" x="-80%" y="-80%" width="260%" height="260%">
        <feGaussianBlur stdDeviation="7" result="blur1" />
        <feGaussianBlur stdDeviation="2.5" result="blur2" />
        <feMerge>
          <feMergeNode in="blur1" />
          <feMergeNode in="blur2" />
          <feMergeNode in="SourceGraphic" />
        </feMerge>
      </filter>
      <filter id="sakuraGlow" x="-50%" y="-50%" width="200%" height="200%">
        <feGaussianBlur stdDeviation="4" result="blur" />
        <feMerge>
          <feMergeNode in="blur" />
          <feMergeNode in="SourceGraphic" />
        </feMerge>
      </filter>
      <filter id="inkMisty" x="-30%" y="-30%" width="160%" height="160%">
        <feGaussianBlur stdDeviation="1.8" />
      </filter>
      <filter id="redGlow" x="-40%" y="-40%" width="180%" height="180%">
        <feGaussianBlur stdDeviation="3.5" result="blur" />
        <feMerge>
          <feMergeNode in="blur" />
          <feMergeNode in="SourceGraphic" />
        </feMerge>
      </filter>

      <!-- Advanced Cyber-Zen Gradients -->
      <linearGradient id="inkWashGrad" x1="0%" y1="0%" x2="100%" y2="100%">
        <stop offset="0%" stop-color="#313244"/>
        <stop offset="60%" stop-color="#11111b"/>
        <stop offset="100%" stop-color="#11111b"/>
      </linearGradient>
      <linearGradient id="inkWashLight" x1="0%" y1="0%" x2="100%" y2="100%">
        <stop offset="0%" stop-color="#6c7086"/>
        <stop offset="50%" stop-color="#45475a"/>
        <stop offset="100%" stop-color="#1e1e2e"/>
      </linearGradient>
      <linearGradient id="spiritGold" x1="0%" y1="0%" x2="100%" y2="0%">
        <stop offset="0%" stop-color="#cdd6f4"/>
        <stop offset="35%" stop-color="#f9e2af"/>
        <stop offset="75%" stop-color="#fab387"/>
        <stop offset="100%" stop-color="#fab387"/>
      </linearGradient>
      <linearGradient id="sacredMaple" x1="0%" y1="0%" x2="100%" y2="100%">
        <stop offset="0%" stop-color="#f38ba8"/>
        <stop offset="50%" stop-color="#fab387"/>
        <stop offset="100%" stop-color="#eba0ac"/>
      </linearGradient>
      <linearGradient id="sakuraBlade" x1="0%" y1="0%" x2="100%" y2="100%">
        <stop offset="0%" stop-color="#cdd6f4"/>
        <stop offset="40%" stop-color="#f2cdcd"/>
        <stop offset="85%" stop-color="#f5c2e7"/>
        <stop offset="100%" stop-color="#cba6f7"/>
      </linearGradient>
      <linearGradient id="crimsonGaze" x1="0%" y1="0%" x2="100%" y2="100%">
        <stop offset="0%" stop-color="#f38ba8"/>
        <stop offset="60%" stop-color="#eba0ac"/>
        <stop offset="100%" stop-color="#1e1e2e"/>
      </linearGradient>
    </defs>
    
  <!-- Spectacular massive calligraphy ink-black crescent sweep with pink glowing wing -->
  <path d="M 12 10 A 75 75 0 0 1 122 45 L 105 58 A 52 52 0 0 0 25 32 Z" fill="url(#inkWashGrad)" filter="url(#inkMisty)" opacity="0.95"/>
  <path d="M 18 14 A 72 72 0 0 1 116 43 L 108 49 A 58 58 0 0 0 28 28 Z" fill="url(#sakuraBlade)" filter="url(#sakuraGlow)" opacity="0.85"/>
  <path d="M 24 18 A 66 66 0 0 1 110 41 L 105 45 A 61 61 0 0 0 32 30 Z" fill="#cdd6f4" opacity="0.95"/>

  <g transform="translate(10, 0)">
    <!-- Ronin Attacking Body -->
    <path d="M 18 24 L 46 24 L 40 54 L 22 54 Z" fill="url(#inkWashGrad)" stroke="#fab387" stroke-width="1.5"/>
    <ellipse cx="32" cy="16" rx="20" ry="5" fill="url(#inkWashLight)" stroke="#fab387" stroke-width="1.2"/>
    <path d="M 12 16 Q 32 -2 52 16 Z" fill="url(#inkWashGrad)"/>
    <circle cx="32" cy="36" r="6.5" fill="#fab387" filter="url(#goldGlow)"/>

    <!-- Extending sword arm -->
    <path d="M 36 28 L 72 38 L 68 45 L 32 36 Z" fill="url(#inkWashLight)"/>
    <!-- Intricate Katana Sword with pink glowing edge -->
    <path d="M 68 38 L 122 62 L 118 66 L 64 42 Z" fill="url(#sakuraBlade)" filter="url(#sakuraGlow)"/>
  </g>

  </svg>