<svg xmlns="http://www.w3.org/2000/svg" viewBox="0 0 360 120" width="360" height="120">
  <defs>
  <filter id="goldGlow" x="-50%" y="-50%" width="200%" height="200%">
    <feGaussianBlur stdDeviation="4.5" result="blur"/>
    <feMerge><feMergeNode in="blur"/><feMergeNode in="SourceGraphic"/></feMerge>
  </filter>
  <filter id="heavyGoldGlow" x="-80%" y="-80%" width="260%" height="260%">
    <feGaussianBlur stdDeviation="7" result="blur1"/>
    <feGaussianBlur stdDeviation="2.5" result="blur2"/>
    <feMerge><feMergeNode in="blur1"/><feMergeNode in="blur2"/><feMergeNode in="SourceGraphic"/></feMerge>
  </filter>
  <filter id="sakuraGlow" x="-50%" y="-50%" width="200%" height="200%">
    <feGaussianBlur stdDeviation="4" result="blur"/>
    <feMerge><feMergeNode in="blur"/><feMergeNode in="SourceGraphic"/></feMerge>
  </filter>
  <filter id="inkMisty" x="-30%" y="-30%" width="160%" height="160%">
    <feGaussianBlur stdDeviation="1.8"/>
  </filter>
  <filter id="redGlow" x="-40%" y="-40%" width="180%" height="180%">
    <feGaussianBlur stdDeviation="3.5" result="blur"/>
    <feMerge><feMergeNode in="blur"/><feMergeNode in="SourceGraphic"/></feMerge>
  </filter>
  <linearGradient id="inkWashGrad" x1="0%" y1="0%" x2="100%" y2="100%">
    <stop offset="0%" stop-color="#313244"/><stop offset="60%" stop-color="#11111b"/><stop offset="100%" stop-color="#11111b"/>
  </linearGradient>
  <linearGradient id="inkWashLight" x1="0%" y1="0%" x2="100%" y2="100%">
    <stop offset="0%" stop-color="#6c7086"/><stop offset="50%" stop-color="#45475a"/><stop offset="100%" stop-color="#1e1e2e"/>
  </linearGradient>
  <linearGradient id="spiritGold" x1="0%" y1="0%" x2="100%" y2="0%">
    <stop offset="0%" stop-color="#cdd6f4"/><stop offset="35%" stop-color="#f9e2af"/><stop offset="75%" stop-color="#fab387"/><stop offset="100%" stop-color="#fab387"/>
  </linearGradient>
  <linearGradient id="sacredMaple" x1="0%" y1="0%" x2="100%" y2="100%">
    <stop offset="0%" stop-color="#f38ba8"/><stop offset="50%" stop-color="#fab387"/><stop offset="100%" stop-color="#eba0ac"/>
  </linearGradient>
  <linearGradient id="sakuraBlade" x1="0%" y1="0%" x2="100%" y2="100%">
    <stop offset="0%" stop-color="#cdd6f4"/><stop offset="40%" stop-color="#f2cdcd"/><stop offset="85%" stop-color="#f5c2e7"/><stop offset="100%" stop-color="#cba6f7"/>
  </linearGradient>
  <linearGradient id="crimsonGaze" x1="0%" y1="0%" x2="100%" y2="100%">
    <stop offset="0%" stop-color="#f38ba8"/><stop offset="60%" stop-color="#eba0ac"/><stop offset="100%" stop-color="#1e1e2e"/>
  </linearGradient>
</defs>
  <g transform="translate(0, 0)"><clipPath id="frame0"><rect x="0" y="0" width="120" height="120"/></clipPath><g clip-path="url(#frame0)"><circle cx="55" cy="55" r="8" fill="#f38ba8" opacity="0.4" filter="url(#redGlow)"/><path d="M 59.6 52 C 46 63 60 73 65 78 C 73 70 65.6 56 59.6 52" fill="url(#sacredMaple)" opacity="0.85" filter="url(#sakuraGlow)"/><g transform="rotate(-15 56 52)">
    <path d="M 44 52 L 68 52 L 64 77.2 L 48 77.2 Z" fill="url(#inkWashGrad)" stroke="#fab387" stroke-width="1.2"/>
    <circle cx="56" cy="62.08" r="5" fill="#fab387" filter="url(#goldGlow)"/>
  </g><line x1="50" y1="76" x2="54.14110472164033" y2="91.4548132206251" stroke="url(#inkWashLight)" stroke-width="5" stroke-linecap="round"/>
    <line x1="62" y1="76" x2="57.85889527835967" y2="91.4548132206251" stroke="url(#inkWashLight)" stroke-width="5" stroke-linecap="round"/>
    <circle cx="54.14110472164033" cy="91.4548132206251" r="2.5" fill="#fab387"/>
    <circle cx="57.85889527835967" cy="91.4548132206251" r="2.5" fill="#fab387"/><line x1="44" y1="56" x2="36.286548683761524" y2="46.80746668257226" stroke="url(#inkWashLight)" stroke-width="4" stroke-linecap="round"/>
    <circle cx="36.286548683761524" cy="46.80746668257226" r="2.5" fill="#fab387" filter="url(#goldGlow)"/><line x1="68" y1="56" x2="75.66044443118977" y2="49.57212390313461" stroke="url(#inkWashLight)" stroke-width="4" stroke-linecap="round"/>
    <circle cx="75.66044443118977" cy="49.57212390313461" r="2.5" fill="#fab387" filter="url(#goldGlow)"/><line x1="40" y1="48" x2="24.573097367523054" y2="29.614933365144527" stroke="url(#sakuraBlade)" stroke-width="3" stroke-linecap="round" filter="url(#sakuraGlow)"/>
    <line x1="40" y1="48" x2="24.573097367523054" y2="29.614933365144527" stroke="#cdd6f4" stroke-width="1.2" stroke-linecap="round"/><g transform="rotate(10 56 44)">
    <ellipse cx="56" cy="44" rx="22" ry="6" fill="url(#inkWashLight)" stroke="#fab387" stroke-width="1.8"/>
    <path d="M 34 44 C 34 32 78 32 78 44 Z" fill="url(#inkWashGrad)" stroke="#fab387" stroke-width="1.2"/>
    <line x1="56" y1="32" x2="56" y2="48" stroke="#fab387" stroke-width="0.8" opacity="0.6"/>
  </g><path d="M 50 50 L 56 54 L 62 50" fill="none" stroke="#fab387" stroke-width="2.2" filter="url(#heavyGoldGlow)"/>
    <polygon points="54.5,50 56,52.5 57.5,50" fill="#cdd6f4"/></g></g><g transform="translate(120, 0)"><clipPath id="frame1"><rect x="0" y="0" width="120" height="120"/></clipPath><g clip-path="url(#frame1)"><path d="M 58.4 52 C 46 65 56 75 61 80 C 69 72 64.4 56 58.4 52" fill="url(#sacredMaple)" opacity="0.85" filter="url(#sakuraGlow)"/><g transform="rotate(-10 58 54)">
    <path d="M 46 54 L 70 54 L 66 80.6 L 50 80.6 Z" fill="url(#inkWashGrad)" stroke="#fab387" stroke-width="1.2"/>
    <circle cx="58" cy="64.64" r="5" fill="#fab387" filter="url(#goldGlow)"/>
  </g><line x1="52" y1="78" x2="54.952019020337815" y2="94.74173180120754" stroke="url(#inkWashLight)" stroke-width="5" stroke-linecap="round"/>
    <line x1="64" y1="78" x2="58.185657563463636" y2="93.97477455336045" stroke="url(#inkWashLight)" stroke-width="5" stroke-linecap="round"/>
    <circle cx="54.952019020337815" cy="94.74173180120754" r="2.5" fill="#fab387"/>
    <circle cx="58.185657563463636" cy="93.97477455336045" r="2.5" fill="#fab387"/><line x1="46" y1="58" x2="40" y2="47.607695154586736" stroke="url(#inkWashLight)" stroke-width="4" stroke-linecap="round"/>
    <circle cx="40" cy="47.607695154586736" r="2.5" fill="#fab387" filter="url(#goldGlow)"/><line x1="70" y1="58" x2="76.42787609686539" y2="50.33955556881022" stroke="url(#inkWashLight)" stroke-width="4" stroke-linecap="round"/>
    <circle cx="76.42787609686539" cy="50.33955556881022" r="2.5" fill="#fab387" filter="url(#goldGlow)"/><line x1="42" y1="50" x2="33.79151656018395" y2="27.447377101138198" stroke="url(#sakuraBlade)" stroke-width="3" stroke-linecap="round" filter="url(#sakuraGlow)"/>
    <line x1="42" y1="50" x2="33.79151656018395" y2="27.447377101138198" stroke="#cdd6f4" stroke-width="1.2" stroke-linecap="round"/><g transform="rotate(6 58 44)">
    <ellipse cx="58" cy="44" rx="22" ry="6" fill="url(#inkWashLight)" stroke="#fab387" stroke-width="1.8"/>
    <path d="M 36 44 C 36 32 80 32 80 44 Z" fill="url(#inkWashGrad)" stroke="#fab387" stroke-width="1.2"/>
    <line x1="58" y1="32" x2="58" y2="48" stroke="#fab387" stroke-width="0.8" opacity="0.6"/>
  </g><path d="M 52 50 L 58 54 L 64 50" fill="none" stroke="#fab387" stroke-width="2.2" filter="url(#heavyGoldGlow)"/>
    <polygon points="56.5,50 58,52.5 59.5,50" fill="#cdd6f4"/></g></g><g transform="translate(240, 0)"><clipPath id="frame2"><rect x="0" y="0" width="120" height="120"/></clipPath><g clip-path="url(#frame2)"><path d="M 57.2 52 C 46 67 52 77 57 82 C 65 74 63.2 56 57.2 52" fill="url(#sacredMaple)" opacity="0.85" filter="url(#sakuraGlow)"/><g transform="rotate(-4 60 52)">
    <path d="M 48 52 L 72 52 L 68 80 L 52 80 Z" fill="url(#inkWashGrad)" stroke="#fab387" stroke-width="1.2"/>
    <circle cx="60" cy="63.2" r="5" fill="#fab387" filter="url(#goldGlow)"/>
  </g><line x1="54" y1="80" x2="52.60550811603747" y2="95.93911516946793" stroke="url(#inkWashLight)" stroke-width="5" stroke-linecap="round"/>
    <line x1="66" y1="80" x2="67.39449188396253" y2="95.93911516946793" stroke="url(#inkWashLight)" stroke-width="5" stroke-linecap="round"/>
    <circle cx="52.60550811603747" cy="95.93911516946793" r="2.5" fill="#fab387"/>
    <circle cx="67.39449188396253" cy="95.93911516946793" r="2.5" fill="#fab387"/><line x1="48" y1="56" x2="48" y2="44" stroke="url(#inkWashLight)" stroke-width="4" stroke-linecap="round"/>
    <circle cx="48" cy="44" r="2.5" fill="#fab387" filter="url(#goldGlow)"/><line x1="70" y1="56" x2="74.10424171990803" y2="44.7236885505691" stroke="url(#inkWashLight)" stroke-width="4" stroke-linecap="round"/>
    <circle cx="74.10424171990803" cy="44.7236885505691" r="2.5" fill="#fab387" filter="url(#goldGlow)"/><line x1="44" y1="46" x2="48.51485261934019" y2="20.39499842168259" stroke="url(#sakuraBlade)" stroke-width="3" stroke-linecap="round" filter="url(#sakuraGlow)"/>
    <line x1="44" y1="46" x2="48.51485261934019" y2="20.39499842168259" stroke="#cdd6f4" stroke-width="1.2" stroke-linecap="round"/><g transform="rotate(2 60 44)">
    <ellipse cx="60" cy="44" rx="22" ry="6" fill="url(#inkWashLight)" stroke="#fab387" stroke-width="1.8"/>
    <path d="M 38 44 C 38 32 82 32 82 44 Z" fill="url(#inkWashGrad)" stroke="#fab387" stroke-width="1.2"/>
    <line x1="60" y1="32" x2="60" y2="48" stroke="#fab387" stroke-width="0.8" opacity="0.6"/>
  </g><path d="M 54 50 L 60 54 L 66 50" fill="none" stroke="#fab387" stroke-width="2.2" filter="url(#heavyGoldGlow)"/>
    <polygon points="58.5,50 60,52.5 61.5,50" fill="#cdd6f4"/></g></g>
</svg>