<svg xmlns="http://www.w3.org/2000/svg" viewBox="0 0 80 80" width="80" height="80">
    <defs>
      <filter id="glow" x="-50%" y="-50%" width="200%" height="200%">
        <feGaussianBlur stdDeviation="2.5" result="blur" />
        <feComposite in="SourceGraphic" in2="blur" operator="over" />
      </filter>
      <filter id="heavyGlow" x="-50%" y="-50%" width="200%" height="200%">
        <feGaussianBlur stdDeviation="5" result="blur" />
        <feComposite in="SourceGraphic" in2="blur" operator="over" />
      </filter>
      <linearGradient id="metal" x1="0%" y1="0%" x2="100%" y2="100%">
        <stop offset="0%" stop-color="#3a3a4f"/>
        <stop offset="50%" stop-color="#1e1e2f"/>
        <stop offset="100%" stop-color="#0a0a14"/>
      </linearGradient>
      <linearGradient id="blade" x1="0%" y1="0%" x2="100%" y2="0%">
        <stop offset="0%" stop-color="#ffffff"/>
        <stop offset="100%" stop-color="#00ffff"/>
      </linearGradient>
      <linearGradient id="energy" x1="0%" y1="0%" x2="100%" y2="100%">
        <stop offset="0%" stop-color="#ff0055"/>
        <stop offset="100%" stop-color="#ff9900"/>
      </linearGradient>
    </defs>
    
  <g transform="rotate(20 40 40) translate(5, 5)">
    <!-- Scarf blowing far back -->
    <path d="M 35 20 Q -10 30 -20 45 Q 0 30 25 25" fill="url(#energy)" filter="url(#glow)" opacity="0.9"/>
    <!-- Body -->
    <path d="M 25 22 L 55 22 L 50 55 L 30 55 Z" fill="url(#metal)" stroke="#00ffff" stroke-width="1.5"/>
    <circle cx="40" cy="38" r="6" fill="#00ffff" filter="url(#glow)"/>
    <!-- Head -->
    <path d="M 28 15 Q 40 -5 52 15 L 48 25 L 32 25 Z" fill="#0f0f15" stroke="#3a3a50" stroke-width="2"/>
    <path d="M 34 10 L 50 10 L 42 18 Z" fill="#00ffff" filter="url(#glow)"/>
    <!-- Arm running -->
    <path d="M 20 26 L 45 35 L 40 42 L 15 33 Z" fill="url(#metal)"/>
  </g>

  </svg>