<svg xmlns="http://www.w3.org/2000/svg" viewBox="0 0 120 64" width="120" height="64">
  <defs>
    <linearGradient id="waveCore" x1="0" x2="1" y1="0" y2="0">
      <stop offset="0" stop-color="#eaffff" stop-opacity="0.05"/>
      <stop offset="0.28" stop-color="#c9ffff"/>
      <stop offset="0.62" stop-color="#57d8ff"/>
      <stop offset="1" stop-color="#1a6dff" stop-opacity="0.08"/>
    </linearGradient>
    <linearGradient id="waveEdge" x1="0" x2="1" y1="0" y2="0">
      <stop offset="0" stop-color="#ffffff"/>
      <stop offset="0.48" stop-color="#a9fbff"/>
      <stop offset="1" stop-color="#367cff"/>
    </linearGradient>
    <filter id="softGlow" x="-40%" y="-80%" width="180%" height="260%">
      <feGaussianBlur stdDeviation="4" result="blur"/>
      <feMerge>
        <feMergeNode in="blur"/>
        <feMergeNode in="SourceGraphic"/>
      </feMerge>
    </filter>
  </defs>
  <g filter="url(#softGlow)">
    <path d="M9 34 C24 13, 61 4, 111 8 C82 23, 70 38, 111 56 C63 61, 26 53, 9 34 Z" fill="url(#waveCore)" opacity="0.92"/>
    <path d="M16 33 C34 22, 62 18, 101 17" fill="none" stroke="url(#waveEdge)" stroke-width="8" stroke-linecap="round" opacity="0.9"/>
    <path d="M20 38 C43 47, 70 48, 103 48" fill="none" stroke="#58dfff" stroke-width="5" stroke-linecap="round" opacity="0.7"/>
    <path d="M31 32 C49 28, 66 29, 88 32" fill="none" stroke="#ffffff" stroke-width="3" stroke-linecap="round" opacity="0.95"/>
  </g>
  <path d="M6 34 C18 28, 30 28, 43 33" fill="none" stroke="#dfffff" stroke-width="3" stroke-linecap="round" opacity="0.7"/>
</svg>
