<svg xmlns="http://www.w3.org/2000/svg" viewBox="0 0 135 80" width="135" height="80">
    <defs>
      <!-- Premium Oriental Cyber-Zen Filters -->
      <filter id="goldGlow" x="-50%" y="-50%" width="200%" height="200%">
        <feGaussianBlur stdDeviation="4.5" result="blur" />
        <feMerge>
          <feMergeNode in="blur" />
          <feMergeNode in="SourceGraphic" />
        </feMerge>
      </filter>
      <filter id="heavyGoldGlow" x="-80%" y="-80%" width="260%" height="260%">
        <feGaussianBlur stdDeviation="7" result="blur1" />
        <feGaussianBlur stdDeviation="2.5" result="blur2" />
        <feMerge>
          <feMergeNode in="blur1" />
          <feMergeNode in="blur2" />
          <feMergeNode in="SourceGraphic" />
        </feMerge>
      </filter>
      <filter id="sakuraGlow" x="-50%" y="-50%" width="200%" height="200%">
        <feGaussianBlur stdDeviation="4" result="blur" />
        <feMerge>
          <feMergeNode in="blur" />
          <feMergeNode in="SourceGraphic" />
        </feMerge>
      </filter>
      <filter id="inkMisty" x="-30%" y="-30%" width="160%" height="160%">
        <feGaussianBlur stdDeviation="1.8" />
      </filter>
      <filter id="redGlow" x="-40%" y="-40%" width="180%" height="180%">
        <feGaussianBlur stdDeviation="3.5" result="blur" />
        <feMerge>
          <feMergeNode in="blur" />
          <feMergeNode in="SourceGraphic" />
        </feMerge>
      </filter>

      <!-- Advanced Cyber-Zen Gradients -->
      <linearGradient id="inkWashGrad" x1="0%" y1="0%" x2="100%" y2="100%">
        <stop offset="0%" stop-color="#313244"/>
        <stop offset="60%" stop-color="#11111b"/>
        <stop offset="100%" stop-color="#11111b"/>
      </linearGradient>
      <linearGradient id="inkWashLight" x1="0%" y1="0%" x2="100%" y2="100%">
        <stop offset="0%" stop-color="#6c7086"/>
        <stop offset="50%" stop-color="#45475a"/>
        <stop offset="100%" stop-color="#1e1e2e"/>
      </linearGradient>
      <linearGradient id="spiritGold" x1="0%" y1="0%" x2="100%" y2="0%">
        <stop offset="0%" stop-color="#cdd6f4"/>
        <stop offset="35%" stop-color="#f9e2af"/>
        <stop offset="75%" stop-color="#fab387"/>
        <stop offset="100%" stop-color="#fab387"/>
      </linearGradient>
      <linearGradient id="sacredMaple" x1="0%" y1="0%" x2="100%" y2="100%">
        <stop offset="0%" stop-color="#f38ba8"/>
        <stop offset="50%" stop-color="#fab387"/>
        <stop offset="100%" stop-color="#eba0ac"/>
      </linearGradient>
      <linearGradient id="sakuraBlade" x1="0%" y1="0%" x2="100%" y2="100%">
        <stop offset="0%" stop-color="#cdd6f4"/>
        <stop offset="40%" stop-color="#f2cdcd"/>
        <stop offset="85%" stop-color="#f5c2e7"/>
        <stop offset="100%" stop-color="#cba6f7"/>
      </linearGradient>
      <linearGradient id="crimsonGaze" x1="0%" y1="0%" x2="100%" y2="100%">
        <stop offset="0%" stop-color="#f38ba8"/>
        <stop offset="60%" stop-color="#eba0ac"/>
        <stop offset="100%" stop-color="#1e1e2e"/>
      </linearGradient>
    </defs>
    
  <!-- Horizontal slash arc -->
  <path d="M 24 35 L 122 30 L 118 42 L 24 45 Z" fill="url(#inkWashGrad)" filter="url(#inkMisty)" opacity="0.95"/>
  <path d="M 36 37 L 118 34 L 116 38 L 36 41 Z" fill="url(#sakuraBlade)" filter="url(#sakuraGlow)" opacity="0.85"/>
  <path d="M 42 38 L 114 36 M 44 40 L 110 38" stroke="#cdd6f4" stroke-width="1.5" opacity="0.9"/>

  <!-- Player body leaning -->
  <g transform="rotate(4 40 40)">
    <path d="M 22 22 L 50 22 L 44 52 L 26 52 Z" fill="url(#inkWashGrad)" stroke="#fab387" stroke-width="1.5"/>
    <ellipse cx="36" cy="14" rx="20" ry="5" fill="url(#inkWashLight)" stroke="#fab387" stroke-width="1.2"/>
    <!-- Extended arm -->
    <path d="M 42 26 L 76 30 L 74 36 L 40 32 Z" fill="url(#inkWashLight)"/>
  </g>
  <!-- Katana horizontal -->
  <path d="M 72 28 L 126 26 L 124 32 L 70 34 Z" fill="url(#sakuraBlade)" filter="url(#sakuraGlow)"/>

  </svg>