<svg xmlns="http://www.w3.org/2000/svg" viewBox="0 0 80 80" width="80" height="80">
    <defs>
      <filter id="glow" x="-50%" y="-50%" width="200%" height="200%">
        <feGaussianBlur stdDeviation="3" result="blur" />
        <feComposite in="SourceGraphic" in2="blur" operator="over" />
      </filter>
      <filter id="heavyGlow" x="-50%" y="-50%" width="200%" height="200%">
        <feGaussianBlur stdDeviation="5" result="blur" />
        <feComposite in="SourceGraphic" in2="blur" operator="over" />
      </filter>
      <linearGradient id="metal" x1="0%" y1="0%" x2="100%" y2="100%">
        <stop offset="0%" stop-color="#2a2a35"/>
        <stop offset="50%" stop-color="#1a1a2e"/>
        <stop offset="100%" stop-color="#0f0f1a"/>
      </linearGradient>
      <linearGradient id="blade" x1="0%" y1="0%" x2="100%" y2="0%">
        <stop offset="0%" stop-color="#ffffff"/>
        <stop offset="100%" stop-color="#00ffff"/>
      </linearGradient>
    </defs>
    
  <g transform="rotate(15 40 40) translate(0, 5)">
    <!-- Scarf blowing far back -->
    <path d="M 35 20 Q 0 25 -10 35 Q 5 28 25 25" fill="#e94560" opacity="0.9"/>
    <!-- Body Armor -->
    <rect x="25" y="22" width="30" height="36" rx="6" fill="url(#metal)" stroke="#3a3a50" stroke-width="2"/>
    <polygon points="35,22 45,22 40,30" fill="#e94560"/>
    <!-- Head/Helmet -->
    <path d="M 28 15 Q 40 0 52 15 Q 40 25 28 15" fill="#1a1a2e" stroke="#3a3a50" stroke-width="2"/>
    <!-- Cyber Visor -->
    <path d="M 38 10 L 50 10 L 48 16 L 40 16 Z" fill="#00ffff" filter="url(#glow)"/>
    <!-- Arms running pose -->
    <rect x="20" y="26" width="25" height="8" rx="3" fill="url(#metal)" transform="rotate(-45 20 26)"/>
    <!-- Scarf Front -->
    <path d="M 25 20 Q 40 25 55 20 L 50 28 Q 40 32 30 28 Z" fill="#e94560"/>
  </g>

  </svg>