<svg xmlns="http://www.w3.org/2000/svg" viewBox="0 0 100 100" width="100" height="100">
    <defs>
      <!-- High-Fidelity Filters -->
      <filter id="cyanGlow" x="-50%" y="-50%" width="200%" height="200%">
        <feGaussianBlur stdDeviation="3" result="blur" />
        <feMerge>
          <feMergeNode in="blur" />
          <feMergeNode in="SourceGraphic" />
        </feMerge>
      </filter>
      <filter id="heavyCyanGlow" x="-80%" y="-80%" width="260%" height="260%">
        <feGaussianBlur stdDeviation="6" result="blur1" />
        <feGaussianBlur stdDeviation="2" result="blur2" />
        <feMerge>
          <feMergeNode in="blur1" />
          <feMergeNode in="blur2" />
          <feMergeNode in="SourceGraphic" />
        </feMerge>
      </filter>
      <filter id="pinkGlow" x="-50%" y="-50%" width="200%" height="200%">
        <feGaussianBlur stdDeviation="3.5" result="blur" />
        <feMerge>
          <feMergeNode in="blur" />
          <feMergeNode in="SourceGraphic" />
        </feMerge>
      </filter>
      <filter id="greenGlow" x="-50%" y="-50%" width="200%" height="200%">
        <feGaussianBlur stdDeviation="3" result="blur" />
        <feMerge>
          <feMergeNode in="blur" />
          <feMergeNode in="SourceGraphic" />
        </feMerge>
      </filter>
      <filter id="orangeGlow" x="-50%" y="-50%" width="200%" height="200%">
        <feGaussianBlur stdDeviation="4.5" result="blur" />
        <feMerge>
          <feMergeNode in="blur" />
          <feMergeNode in="SourceGraphic" />
        </feMerge>
      </filter>

      <!-- Advanced Cyber Gradients -->
      <linearGradient id="cyberMetal" x1="0%" y1="0%" x2="100%" y2="100%">
        <stop offset="0%" stop-color="#2a2a3e"/>
        <stop offset="35%" stop-color="#1b1b26"/>
        <stop offset="70%" stop-color="#0e0e16"/>
        <stop offset="100%" stop-color="#050508"/>
      </linearGradient>
      <linearGradient id="cyberMetalLight" x1="0%" y1="0%" x2="100%" y2="100%">
        <stop offset="0%" stop-color="#4e4e6a"/>
        <stop offset="50%" stop-color="#2a2a3c"/>
        <stop offset="100%" stop-color="#14141e"/>
      </linearGradient>
      <linearGradient id="ninjaBlade" x1="0%" y1="0%" x2="100%" y2="0%">
        <stop offset="0%" stop-color="#ffffff"/>
        <stop offset="30%" stop-color="#dffffc"/>
        <stop offset="75%" stop-color="#00ffff"/>
        <stop offset="100%" stop-color="#0088cc"/>
      </linearGradient>
      <linearGradient id="cyberScarf" x1="0%" y1="0%" x2="100%" y2="100%">
        <stop offset="0%" stop-color="#ff0055"/>
        <stop offset="45%" stop-color="#ff3300"/>
        <stop offset="90%" stop-color="#ffcc00"/>
      </linearGradient>
      <linearGradient id="plasmaBlue" x1="0%" y1="0%" x2="100%" y2="100%">
        <stop offset="0%" stop-color="#ffffff"/>
        <stop offset="50%" stop-color="#00ffff"/>
        <stop offset="100%" stop-color="#0033aa"/>
      </linearGradient>
      <linearGradient id="heavyAxe" x1="0%" y1="0%" x2="100%" y2="100%">
        <stop offset="0%" stop-color="#ff3333"/>
        <stop offset="50%" stop-color="#ff7700"/>
        <stop offset="100%" stop-color="#550000"/>
      </linearGradient>
      <linearGradient id="ninjaGreen" x1="0%" y1="0%" x2="100%" y2="100%">
        <stop offset="0%" stop-color="#00ffcc"/>
        <stop offset="60%" stop-color="#00ff55"/>
        <stop offset="100%" stop-color="#003311"/>
      </linearGradient>
    </defs>
    
  <!-- Blazing vertical slash sweep -->
  <path d="M 38 95 C 68 60 62 10 50 -2 L 35 8 C 45 45 40 70 15 85 Z" fill="url(#ninjaBlade)" filter="url(#heavyCyanGlow)" opacity="0.85"/>
  <path d="M 36 90 C 58 60 55 25 45 5 L 38 10 C 45 40 40 65 22 80 Z" fill="#ffffff" opacity="0.95"/>

  <!-- Floating digitizing squares -->
  <rect x="52" y="20" width="6" height="6" fill="#00ffff" filter="url(#cyanGlow)" transform="rotate(45 55 23)"/>
  <rect x="35" y="40" width="4" height="4" fill="#00ffff" filter="url(#cyanGlow)" transform="rotate(15 37 42)"/>
  <rect x="62" y="5" width="8" height="8" fill="#ffffff" filter="url(#cyanGlow)" transform="rotate(30 66 9)"/>

  <!-- Dynamic posing body -->
  <g transform="translate(0, 10)">
    <path d="M 22 28 L 50 28 L 44 58 L 26 58 Z" fill="url(#cyberMetal)" stroke="#00ffff" stroke-width="1.5"/>
    <path d="M 25 20 Q 36 2 47 20 L 43 29 L 29 29 Z" fill="#0f0f18"/>
    <path d="M 31 15 L 36 20 L 41 15 Z" fill="#00ffff"/>
    <!-- Laser Katana raised vertically -->
    <path d="M 48 34 L 56 -5 L 61 -5 L 53 34 Z" fill="url(#ninjaBlade)" filter="url(#heavyCyanGlow)"/>
  </g>

  </svg>