<svg xmlns="http://www.w3.org/2000/svg" viewBox="0 0 480 120" width="480" height="120">
  <defs>
  <filter id="goldGlow" x="-50%" y="-50%" width="200%" height="200%">
    <feGaussianBlur stdDeviation="4.5" result="blur"/>
    <feMerge><feMergeNode in="blur"/><feMergeNode in="SourceGraphic"/></feMerge>
  </filter>
  <filter id="heavyGoldGlow" x="-80%" y="-80%" width="260%" height="260%">
    <feGaussianBlur stdDeviation="7" result="blur1"/>
    <feGaussianBlur stdDeviation="2.5" result="blur2"/>
    <feMerge><feMergeNode in="blur1"/><feMergeNode in="blur2"/><feMergeNode in="SourceGraphic"/></feMerge>
  </filter>
  <filter id="sakuraGlow" x="-50%" y="-50%" width="200%" height="200%">
    <feGaussianBlur stdDeviation="4" result="blur"/>
    <feMerge><feMergeNode in="blur"/><feMergeNode in="SourceGraphic"/></feMerge>
  </filter>
  <filter id="inkMisty" x="-30%" y="-30%" width="160%" height="160%">
    <feGaussianBlur stdDeviation="1.8"/>
  </filter>
  <filter id="redGlow" x="-40%" y="-40%" width="180%" height="180%">
    <feGaussianBlur stdDeviation="3.5" result="blur"/>
    <feMerge><feMergeNode in="blur"/><feMergeNode in="SourceGraphic"/></feMerge>
  </filter>
  <linearGradient id="inkWashGrad" x1="0%" y1="0%" x2="100%" y2="100%">
    <stop offset="0%" stop-color="#313244"/><stop offset="60%" stop-color="#11111b"/><stop offset="100%" stop-color="#11111b"/>
  </linearGradient>
  <linearGradient id="inkWashLight" x1="0%" y1="0%" x2="100%" y2="100%">
    <stop offset="0%" stop-color="#6c7086"/><stop offset="50%" stop-color="#45475a"/><stop offset="100%" stop-color="#1e1e2e"/>
  </linearGradient>
  <linearGradient id="spiritGold" x1="0%" y1="0%" x2="100%" y2="0%">
    <stop offset="0%" stop-color="#cdd6f4"/><stop offset="35%" stop-color="#f9e2af"/><stop offset="75%" stop-color="#fab387"/><stop offset="100%" stop-color="#fab387"/>
  </linearGradient>
  <linearGradient id="sacredMaple" x1="0%" y1="0%" x2="100%" y2="100%">
    <stop offset="0%" stop-color="#f38ba8"/><stop offset="50%" stop-color="#fab387"/><stop offset="100%" stop-color="#eba0ac"/>
  </linearGradient>
  <linearGradient id="sakuraBlade" x1="0%" y1="0%" x2="100%" y2="100%">
    <stop offset="0%" stop-color="#cdd6f4"/><stop offset="40%" stop-color="#f2cdcd"/><stop offset="85%" stop-color="#f5c2e7"/><stop offset="100%" stop-color="#cba6f7"/>
  </linearGradient>
  <linearGradient id="crimsonGaze" x1="0%" y1="0%" x2="100%" y2="100%">
    <stop offset="0%" stop-color="#f38ba8"/><stop offset="60%" stop-color="#eba0ac"/><stop offset="100%" stop-color="#1e1e2e"/>
  </linearGradient>
</defs>
  <g transform="translate(0, 0)"><clipPath id="frame0"><rect x="0" y="0" width="120" height="120"/></clipPath><g clip-path="url(#frame0)"><path d="M 57.8 52 C 50 67 56 77 61 82 C 69 74 63.8 56 57.8 52" fill="url(#sacredMaple)" opacity="0.85" filter="url(#sakuraGlow)"/><g transform="rotate(-8 60 50)">
    <path d="M 48 50 L 72 50 L 68 78 L 52 78 Z" fill="url(#inkWashGrad)" stroke="#fab387" stroke-width="1.2"/>
    <circle cx="60" cy="61.2" r="5" fill="#fab387" filter="url(#goldGlow)"/>
  </g><line x1="54" y1="78" x2="52.51835237328981" y2="94.93530986755968" stroke="url(#inkWashLight)" stroke-width="5" stroke-linecap="round"/>
    <line x1="66" y1="78" x2="67.48164762671018" y2="94.93530986755968" stroke="url(#inkWashLight)" stroke-width="5" stroke-linecap="round"/>
    <circle cx="52.51835237328981" cy="94.93530986755968" r="2.5" fill="#fab387"/>
    <circle cx="67.48164762671018" cy="94.93530986755968" r="2.5" fill="#fab387"/><line x1="46" y1="54" x2="35.27537779633431" y2="45.00097346438845" stroke="url(#inkWashLight)" stroke-width="4" stroke-linecap="round"/>
    <circle cx="35.27537779633431" cy="45.00097346438845" r="2.5" fill="#fab387" filter="url(#goldGlow)"/><line x1="70" y1="54" x2="72.08377813200316" y2="42.182306963853506" stroke="url(#inkWashLight)" stroke-width="4" stroke-linecap="round"/>
    <circle cx="72.08377813200316" cy="42.182306963853506" r="2.5" fill="#fab387" filter="url(#goldGlow)"/><line x1="40" y1="38" x2="25.000000000000007" y2="12.01923788646684" stroke="url(#sakuraBlade)" stroke-width="3" stroke-linecap="round" filter="url(#sakuraGlow)"/>
    <line x1="40" y1="38" x2="25.000000000000007" y2="12.01923788646684" stroke="#cdd6f4" stroke-width="1.2" stroke-linecap="round"/><g transform="rotate(5 58 42)">
    <ellipse cx="58" cy="42" rx="22" ry="6" fill="url(#inkWashLight)" stroke="#fab387" stroke-width="1.8"/>
    <path d="M 36 42 C 36 30 80 30 80 42 Z" fill="url(#inkWashGrad)" stroke="#fab387" stroke-width="1.2"/>
    <line x1="58" y1="30" x2="58" y2="46" stroke="#fab387" stroke-width="0.8" opacity="0.6"/>
  </g><path d="M 52 48 L 58 52 L 64 48" fill="none" stroke="#fab387" stroke-width="2.2" filter="url(#heavyGoldGlow)"/>
    <polygon points="56.5,48 58,50.5 59.5,48" fill="#cdd6f4"/></g></g><g transform="translate(120, 0)"><clipPath id="frame1"><rect x="0" y="0" width="120" height="120"/></clipPath><g clip-path="url(#frame1)"><path d="M 100.31088913245536 37.5 A 35 35 0 0 1 100.31088913245536 72.5" fill="none" stroke="url(#sakuraBlade)" stroke-width="4" opacity="0.6" filter="url(#sakuraGlow)"/><path d="M 54.8 52 C 36 67 39 77 44 82 C 52 74 60.8 56 54.8 52" fill="url(#sacredMaple)" opacity="0.85" filter="url(#sakuraGlow)"/><g transform="rotate(5 62 50)">
    <path d="M 50 50 L 74 50 L 70 78 L 54 78 Z" fill="url(#inkWashGrad)" stroke="#fab387" stroke-width="1.2"/>
    <circle cx="62" cy="61.2" r="5" fill="#fab387" filter="url(#goldGlow)"/>
  </g><line x1="56" y1="78" x2="57.48164762671019" y2="94.93530986755968" stroke="url(#inkWashLight)" stroke-width="5" stroke-linecap="round"/>
    <line x1="68" y1="78" x2="66.51835237328982" y2="94.93530986755968" stroke="url(#inkWashLight)" stroke-width="5" stroke-linecap="round"/>
    <circle cx="57.48164762671019" cy="94.93530986755968" r="2.5" fill="#fab387"/>
    <circle cx="66.51835237328982" cy="94.93530986755968" r="2.5" fill="#fab387"/><line x1="50" y1="54" x2="57" y2="41.87564434701786" stroke="url(#inkWashLight)" stroke-width="4" stroke-linecap="round"/>
    <circle cx="57" cy="41.87564434701786" r="2.5" fill="#fab387" filter="url(#goldGlow)"/><line x1="74" y1="52" x2="89.03508193257454" y2="46.5276777067893" stroke="url(#inkWashLight)" stroke-width="4" stroke-linecap="round"/>
    <circle cx="89.03508193257454" cy="46.5276777067893" r="2.5" fill="#fab387" filter="url(#goldGlow)"/><line x1="82" y1="42" x2="115.48346360241507" y2="47.90403804067563" stroke="url(#sakuraBlade)" stroke-width="3" stroke-linecap="round" filter="url(#sakuraGlow)"/>
    <line x1="82" y1="42" x2="115.48346360241507" y2="47.90403804067563" stroke="#cdd6f4" stroke-width="1.2" stroke-linecap="round"/><g transform="rotate(-3 62 42)">
    <ellipse cx="62" cy="42" rx="22" ry="6" fill="url(#inkWashLight)" stroke="#fab387" stroke-width="1.8"/>
    <path d="M 40 42 C 40 30 84 30 84 42 Z" fill="url(#inkWashGrad)" stroke="#fab387" stroke-width="1.2"/>
    <line x1="62" y1="30" x2="62" y2="46" stroke="#fab387" stroke-width="0.8" opacity="0.6"/>
  </g><path d="M 56 48 L 62 52 L 68 48" fill="none" stroke="#fab387" stroke-width="2.2" filter="url(#heavyGoldGlow)"/>
    <polygon points="60.5,48 62,50.5 63.5,48" fill="#cdd6f4"/></g></g><g transform="translate(240, 0)"><clipPath id="frame2"><rect x="0" y="0" width="120" height="120"/></clipPath><g clip-path="url(#frame2)"><path d="M 114.39231012048832 48.05407289332279 A 40 40 0 0 1 95 89.64101615137754" fill="none" stroke="url(#sakuraBlade)" stroke-width="4" opacity="0.9" filter="url(#sakuraGlow)"/><path d="M 53.6 52 C 28 67 31 77 36 82 C 44 74 59.6 56 53.6 52" fill="url(#sacredMaple)" opacity="0.85" filter="url(#sakuraGlow)"/><g transform="rotate(12 64 50)">
    <path d="M 52 50 L 76 50 L 72 76.6 L 56 76.6 Z" fill="url(#inkWashGrad)" stroke="#fab387" stroke-width="1.2"/>
    <circle cx="64" cy="60.64" r="5" fill="#fab387" filter="url(#goldGlow)"/>
  </g><line x1="58" y1="76" x2="60.952019020337815" y2="92.74173180120754" stroke="url(#inkWashLight)" stroke-width="5" stroke-linecap="round"/>
    <line x1="70" y1="76" x2="67.63405728367889" y2="92.8345571686067" stroke="url(#inkWashLight)" stroke-width="5" stroke-linecap="round"/>
    <circle cx="60.952019020337815" cy="92.74173180120754" r="2.5" fill="#fab387"/>
    <circle cx="67.63405728367889" cy="92.8345571686067" r="2.5" fill="#fab387"/><line x1="52" y1="54" x2="62.72462220366569" y2="45.00097346438845" stroke="url(#inkWashLight)" stroke-width="4" stroke-linecap="round"/>
    <circle cx="62.72462220366569" cy="45.00097346438845" r="2.5" fill="#fab387" filter="url(#goldGlow)"/><line x1="76" y1="50" x2="93.72653955421974" y2="53.12566719800475" stroke="url(#inkWashLight)" stroke-width="4" stroke-linecap="round"/>
    <circle cx="93.72653955421974" cy="53.12566719800475" r="2.5" fill="#fab387" filter="url(#goldGlow)"/><line x1="88" y1="46" x2="119.17691453623979" y2="64" stroke="url(#sakuraBlade)" stroke-width="3" stroke-linecap="round" filter="url(#sakuraGlow)"/>
    <line x1="88" y1="46" x2="119.17691453623979" y2="64" stroke="#cdd6f4" stroke-width="1.2" stroke-linecap="round"/><g transform="rotate(-6 63 42)">
    <ellipse cx="63" cy="42" rx="22" ry="6" fill="url(#inkWashLight)" stroke="#fab387" stroke-width="1.8"/>
    <path d="M 41 42 C 41 30 85 30 85 42 Z" fill="url(#inkWashGrad)" stroke="#fab387" stroke-width="1.2"/>
    <line x1="63" y1="30" x2="63" y2="46" stroke="#fab387" stroke-width="0.8" opacity="0.6"/>
  </g><path d="M 57 48 L 63 52 L 69 48" fill="none" stroke="#fab387" stroke-width="2.2" filter="url(#heavyGoldGlow)"/>
    <polygon points="61.5,48 63,50.5 64.5,48" fill="#cdd6f4"/></g></g><g transform="translate(360, 0)"><clipPath id="frame3"><rect x="0" y="0" width="120" height="120"/></clipPath><g clip-path="url(#frame3)"><path d="M 55.1 52 C 39 67 41.5 77 46.5 82 C 54.5 74 61.1 56 55.1 52" fill="url(#sacredMaple)" opacity="0.85" filter="url(#sakuraGlow)"/><g transform="rotate(4 62 50)">
    <path d="M 50 50 L 74 50 L 70 78 L 54 78 Z" fill="url(#inkWashGrad)" stroke="#fab387" stroke-width="1.2"/>
    <circle cx="62" cy="61.2" r="5" fill="#fab387" filter="url(#goldGlow)"/>
  </g><line x1="56" y1="78" x2="56.88971125613004" y2="94.97670209082776" stroke="url(#inkWashLight)" stroke-width="5" stroke-linecap="round"/>
    <line x1="68" y1="78" x2="67.11028874386996" y2="94.97670209082776" stroke="url(#inkWashLight)" stroke-width="5" stroke-linecap="round"/>
    <circle cx="56.88971125613004" cy="94.97670209082776" r="2.5" fill="#fab387"/>
    <circle cx="67.11028874386996" cy="94.97670209082776" r="2.5" fill="#fab387"/><line x1="50" y1="54" x2="54.104241719908025" y2="42.7236885505691" stroke="url(#inkWashLight)" stroke-width="4" stroke-linecap="round"/>
    <circle cx="54.104241719908025" cy="42.7236885505691" r="2.5" fill="#fab387" filter="url(#goldGlow)"/><line x1="72" y1="54" x2="80.99902653561155" y2="43.27537779633431" stroke="url(#inkWashLight)" stroke-width="4" stroke-linecap="round"/>
    <circle cx="80.99902653561155" cy="43.27537779633431" r="2.5" fill="#fab387" filter="url(#goldGlow)"/><line x1="78" y1="44" x2="105.0459231360939" y2="51.246933262870584" stroke="url(#sakuraBlade)" stroke-width="3" stroke-linecap="round" filter="url(#sakuraGlow)"/>
    <line x1="78" y1="44" x2="105.0459231360939" y2="51.246933262870584" stroke="#cdd6f4" stroke-width="1.2" stroke-linecap="round"/><g transform="rotate(-2 61 42)">
    <ellipse cx="61" cy="42" rx="22" ry="6" fill="url(#inkWashLight)" stroke="#fab387" stroke-width="1.8"/>
    <path d="M 39 42 C 39 30 83 30 83 42 Z" fill="url(#inkWashGrad)" stroke="#fab387" stroke-width="1.2"/>
    <line x1="61" y1="30" x2="61" y2="46" stroke="#fab387" stroke-width="0.8" opacity="0.6"/>
  </g><path d="M 55 48 L 61 52 L 67 48" fill="none" stroke="#fab387" stroke-width="2.2" filter="url(#heavyGoldGlow)"/>
    <polygon points="59.5,48 61,50.5 62.5,48" fill="#cdd6f4"/></g></g>
</svg>