<svg xmlns="http://www.w3.org/2000/svg" viewBox="0 0 60 60" width="60" height="60">
    <defs>
      <filter id="glow" x="-50%" y="-50%" width="200%" height="200%">
        <feGaussianBlur stdDeviation="2.5" result="blur" />
        <feComposite in="SourceGraphic" in2="blur" operator="over" />
      </filter>
      <filter id="heavyGlow" x="-50%" y="-50%" width="200%" height="200%">
        <feGaussianBlur stdDeviation="5" result="blur" />
        <feComposite in="SourceGraphic" in2="blur" operator="over" />
      </filter>
      <linearGradient id="metal" x1="0%" y1="0%" x2="100%" y2="100%">
        <stop offset="0%" stop-color="#3a3a4f"/>
        <stop offset="50%" stop-color="#1e1e2f"/>
        <stop offset="100%" stop-color="#0a0a14"/>
      </linearGradient>
      <linearGradient id="blade" x1="0%" y1="0%" x2="100%" y2="0%">
        <stop offset="0%" stop-color="#ffffff"/>
        <stop offset="100%" stop-color="#00ffff"/>
      </linearGradient>
      <linearGradient id="energy" x1="0%" y1="0%" x2="100%" y2="100%">
        <stop offset="0%" stop-color="#ff0055"/>
        <stop offset="100%" stop-color="#ff9900"/>
      </linearGradient>
    </defs>
    
  <g transform="translate(10, 10)">
      <!-- Crescent shape -->
      <path d="M 20 -10 A 30 30 0 0 1 20 50 A 20 20 0 0 0 10 20 Z" fill="#00ffff" filter="url(#heavyGlow)"/>
      <path d="M 20 -10 A 30 30 0 0 1 20 50 A 20 20 0 0 0 10 20 Z" fill="#ffffff" opacity="0.8"/>
      <!-- Trailing energy -->
      <line x1="20" y1="20" x2="-10" y2="20" stroke="#00ffff" stroke-width="6" filter="url(#glow)"/>
  </g>

  </svg>