<svg xmlns="http://www.w3.org/2000/svg" viewBox="0 0 480 120" width="480" height="120">
  <defs>
  <filter id="goldGlow" x="-50%" y="-50%" width="200%" height="200%">
    <feGaussianBlur stdDeviation="4.5" result="blur"/>
    <feMerge><feMergeNode in="blur"/><feMergeNode in="SourceGraphic"/></feMerge>
  </filter>
  <filter id="heavyGoldGlow" x="-80%" y="-80%" width="260%" height="260%">
    <feGaussianBlur stdDeviation="7" result="blur1"/>
    <feGaussianBlur stdDeviation="2.5" result="blur2"/>
    <feMerge><feMergeNode in="blur1"/><feMergeNode in="blur2"/><feMergeNode in="SourceGraphic"/></feMerge>
  </filter>
  <filter id="sakuraGlow" x="-50%" y="-50%" width="200%" height="200%">
    <feGaussianBlur stdDeviation="4" result="blur"/>
    <feMerge><feMergeNode in="blur"/><feMergeNode in="SourceGraphic"/></feMerge>
  </filter>
  <filter id="inkMisty" x="-30%" y="-30%" width="160%" height="160%">
    <feGaussianBlur stdDeviation="1.8"/>
  </filter>
  <filter id="redGlow" x="-40%" y="-40%" width="180%" height="180%">
    <feGaussianBlur stdDeviation="3.5" result="blur"/>
    <feMerge><feMergeNode in="blur"/><feMergeNode in="SourceGraphic"/></feMerge>
  </filter>
  <linearGradient id="inkWashGrad" x1="0%" y1="0%" x2="100%" y2="100%">
    <stop offset="0%" stop-color="#313244"/><stop offset="60%" stop-color="#11111b"/><stop offset="100%" stop-color="#11111b"/>
  </linearGradient>
  <linearGradient id="inkWashLight" x1="0%" y1="0%" x2="100%" y2="100%">
    <stop offset="0%" stop-color="#6c7086"/><stop offset="50%" stop-color="#45475a"/><stop offset="100%" stop-color="#1e1e2e"/>
  </linearGradient>
  <linearGradient id="spiritGold" x1="0%" y1="0%" x2="100%" y2="0%">
    <stop offset="0%" stop-color="#cdd6f4"/><stop offset="35%" stop-color="#f9e2af"/><stop offset="75%" stop-color="#fab387"/><stop offset="100%" stop-color="#fab387"/>
  </linearGradient>
  <linearGradient id="sacredMaple" x1="0%" y1="0%" x2="100%" y2="100%">
    <stop offset="0%" stop-color="#f38ba8"/><stop offset="50%" stop-color="#fab387"/><stop offset="100%" stop-color="#eba0ac"/>
  </linearGradient>
  <linearGradient id="sakuraBlade" x1="0%" y1="0%" x2="100%" y2="100%">
    <stop offset="0%" stop-color="#cdd6f4"/><stop offset="40%" stop-color="#f2cdcd"/><stop offset="85%" stop-color="#f5c2e7"/><stop offset="100%" stop-color="#cba6f7"/>
  </linearGradient>
  <linearGradient id="crimsonGaze" x1="0%" y1="0%" x2="100%" y2="100%">
    <stop offset="0%" stop-color="#f38ba8"/><stop offset="60%" stop-color="#eba0ac"/><stop offset="100%" stop-color="#1e1e2e"/>
  </linearGradient>
</defs>
  <g transform="translate(0, 0)"><clipPath id="frame0"><rect x="0" y="0" width="120" height="120"/></clipPath><g clip-path="url(#frame0)"><path d="M 52.4 52 C 28 67 27 77 32 82 C 40 74 58.4 56 52.4 52" fill="url(#sacredMaple)" opacity="0.85" filter="url(#sakuraGlow)"/><g transform="rotate(20 60 50)">
    <path d="M 48 50 L 72 50 L 68 76.6 L 52 76.6 Z" fill="url(#inkWashGrad)" stroke="#fab387" stroke-width="1.2"/>
    <circle cx="60" cy="60.64" r="5" fill="#fab387" filter="url(#goldGlow)"/>
  </g><line x1="60" y1="76" x2="64.65874281184537" y2="93.38666487320323" stroke="url(#inkWashLight)" stroke-width="5" stroke-linecap="round"/>
    <line x1="72" y1="76" x2="70.43119663054215" y2="93.93150456565142" stroke="url(#inkWashLight)" stroke-width="5" stroke-linecap="round"/>
    <circle cx="64.65874281184537" cy="93.38666487320323" r="2.5" fill="#fab387"/>
    <circle cx="70.43119663054215" cy="93.93150456565142" r="2.5" fill="#fab387"/><line x1="52" y1="56" x2="58" y2="45.607695154586736" stroke="url(#inkWashLight)" stroke-width="4" stroke-linecap="round"/>
    <circle cx="58" cy="45.607695154586736" r="2.5" fill="#fab387" filter="url(#goldGlow)"/><line x1="74" y1="56" x2="68" y2="45.607695154586736" stroke="url(#inkWashLight)" stroke-width="4" stroke-linecap="round"/>
    <circle cx="68" cy="45.607695154586736" r="2.5" fill="#fab387" filter="url(#goldGlow)"/><line x1="48" y1="44" x2="66.38477631085024" y2="25.615223689149765" stroke="url(#sakuraBlade)" stroke-width="3" stroke-linecap="round" filter="url(#sakuraGlow)"/>
    <line x1="48" y1="44" x2="66.38477631085024" y2="25.615223689149765" stroke="#cdd6f4" stroke-width="1.2" stroke-linecap="round"/><g transform="rotate(-15 64 42)">
    <ellipse cx="64" cy="42" rx="22" ry="6" fill="url(#inkWashLight)" stroke="#fab387" stroke-width="1.8"/>
    <path d="M 42 42 C 42 30 86 30 86 42 Z" fill="url(#inkWashGrad)" stroke="#fab387" stroke-width="1.2"/>
    <line x1="64" y1="30" x2="64" y2="46" stroke="#fab387" stroke-width="0.8" opacity="0.6"/>
  </g><path d="M 58 48 L 64 52 L 70 48" fill="none" stroke="#fab387" stroke-width="2.2" filter="url(#heavyGoldGlow)"/>
    <polygon points="62.5,48 64,50.5 65.5,48" fill="#cdd6f4"/></g></g><g transform="translate(120, 0)"><clipPath id="frame1"><rect x="0" y="0" width="120" height="120"/></clipPath><g clip-path="url(#frame1)"><ellipse cx="60" cy="70" rx="40" ry="12" fill="url(#spiritGold)" opacity="0.3" filter="url(#goldGlow)"/><path d="M 50 54 C 10 71 10 81 15 86 C 23 78 56 58 50 54" fill="url(#sacredMaple)" opacity="0.85" filter="url(#sakuraGlow)"/><g transform="rotate(30 65 52)">
    <path d="M 53 52 L 77 52 L 73 75.8 L 57 75.8 Z" fill="url(#inkWashGrad)" stroke="#fab387" stroke-width="1.2"/>
    <circle cx="65" cy="61.52" r="5" fill="#fab387" filter="url(#goldGlow)"/>
  </g><line x1="64" y1="74" x2="70.76189218785119" y2="88.5009245925864" stroke="url(#inkWashLight)" stroke-width="5" stroke-linecap="round"/>
    <line x1="76" y1="74" x2="78.77837084267088" y2="89.75692404819533" stroke="url(#inkWashLight)" stroke-width="5" stroke-linecap="round"/>
    <circle cx="70.76189218785119" cy="88.5009245925864" r="2.5" fill="#fab387"/>
    <circle cx="78.77837084267088" cy="89.75692404819533" r="2.5" fill="#fab387"/><line x1="56" y1="58" x2="66.72462220366569" y2="49.00097346438845" stroke="url(#inkWashLight)" stroke-width="4" stroke-linecap="round"/>
    <circle cx="66.72462220366569" cy="49.00097346438845" r="2.5" fill="#fab387" filter="url(#goldGlow)"/><line x1="76" y1="58" x2="69.57212390313461" y2="50.33955556881022" stroke="url(#inkWashLight)" stroke-width="4" stroke-linecap="round"/>
    <circle cx="69.57212390313461" cy="50.33955556881022" r="2.5" fill="#fab387" filter="url(#goldGlow)"/><line x1="52" y1="46" x2="76.24871130596429" y2="32" stroke="url(#sakuraBlade)" stroke-width="3" stroke-linecap="round" filter="url(#sakuraGlow)"/>
    <line x1="52" y1="46" x2="76.24871130596429" y2="32" stroke="#cdd6f4" stroke-width="1.2" stroke-linecap="round"/><g transform="rotate(-20 68 44)">
    <ellipse cx="68" cy="44" rx="22" ry="6" fill="url(#inkWashLight)" stroke="#fab387" stroke-width="1.8"/>
    <path d="M 46 44 C 46 32 90 32 90 44 Z" fill="url(#inkWashGrad)" stroke="#fab387" stroke-width="1.2"/>
    <line x1="68" y1="32" x2="68" y2="48" stroke="#fab387" stroke-width="0.8" opacity="0.6"/>
  </g><path d="M 62 50 L 68 54 L 74 50" fill="none" stroke="#fab387" stroke-width="2.2" filter="url(#heavyGoldGlow)"/>
    <polygon points="66.5,50 68,52.5 69.5,50" fill="#cdd6f4"/></g></g><g transform="translate(240, 0)"><clipPath id="frame2"><rect x="0" y="0" width="120" height="120"/></clipPath><g clip-path="url(#frame2)"><ellipse cx="55" cy="70" rx="45" ry="10" fill="url(#spiritGold)" opacity="0.5" filter="url(#heavyGoldGlow)"/><path d="M 10 65 L 50 65" stroke="#cdd6f4" stroke-width="2" opacity="0.6"/><path d="M 5 75 L 45 75" stroke="#fab387" stroke-width="1.5" opacity="0.4"/><path d="M 48.5 54 C -1 73 -0.5 83 4.5 88 C 12.5 80 54.5 58 48.5 54" fill="url(#sacredMaple)" opacity="0.85" filter="url(#sakuraGlow)"/><g transform="rotate(35 68 52)">
    <path d="M 56 52 L 80 52 L 76 74.4 L 60 74.4 Z" fill="url(#inkWashGrad)" stroke="#fab387" stroke-width="1.2"/>
    <circle cx="68" cy="60.96" r="5" fill="#fab387" filter="url(#goldGlow)"/>
  </g><line x1="68" y1="72" x2="75" y2="84.12435565298215" stroke="url(#inkWashLight)" stroke-width="5" stroke-linecap="round"/>
    <line x1="80" y1="72" x2="83.62346663143529" y2="85.52296156804695" stroke="url(#inkWashLight)" stroke-width="5" stroke-linecap="round"/>
    <circle cx="75" cy="84.12435565298215" r="2.5" fill="#fab387"/>
    <circle cx="83.62346663143529" cy="85.52296156804695" r="2.5" fill="#fab387"/><line x1="60" y1="58" x2="71.46812862004589" y2="49.96992989108536" stroke="url(#inkWashLight)" stroke-width="4" stroke-linecap="round"/>
    <circle cx="71.46812862004589" cy="49.96992989108536" r="2.5" fill="#fab387" filter="url(#goldGlow)"/><line x1="78" y1="56" x2="70.33955556881023" y2="49.5721239031346" stroke="url(#inkWashLight)" stroke-width="4" stroke-linecap="round"/>
    <circle cx="70.33955556881023" cy="49.5721239031346" r="2.5" fill="#fab387" filter="url(#goldGlow)"/><line x1="56" y1="46" x2="83.1892336110995" y2="33.32145214777901" stroke="url(#sakuraBlade)" stroke-width="3" stroke-linecap="round" filter="url(#sakuraGlow)"/>
    <line x1="56" y1="46" x2="83.1892336110995" y2="33.32145214777901" stroke="#cdd6f4" stroke-width="1.2" stroke-linecap="round"/><g transform="rotate(-25 70 44)">
    <ellipse cx="70" cy="44" rx="22" ry="6" fill="url(#inkWashLight)" stroke="#fab387" stroke-width="1.8"/>
    <path d="M 48 44 C 48 32 92 32 92 44 Z" fill="url(#inkWashGrad)" stroke="#fab387" stroke-width="1.2"/>
    <line x1="70" y1="32" x2="70" y2="48" stroke="#fab387" stroke-width="0.8" opacity="0.6"/>
  </g><path d="M 64 50 L 70 54 L 76 50" fill="none" stroke="#fab387" stroke-width="2.2" filter="url(#heavyGoldGlow)"/>
    <polygon points="68.5,50 70,52.5 71.5,50" fill="#cdd6f4"/></g></g><g transform="translate(360, 0)"><clipPath id="frame3"><rect x="0" y="0" width="120" height="120"/></clipPath><g clip-path="url(#frame3)"><ellipse cx="52" cy="70" rx="30" ry="8" fill="url(#spiritGold)" opacity="0.15"/><path d="M 53.6 52 C 32 67 33 77 38 82 C 46 74 59.6 56 53.6 52" fill="url(#sacredMaple)" opacity="0.85" filter="url(#sakuraGlow)"/><g transform="rotate(15 62 50)">
    <path d="M 50 50 L 74 50 L 70 76.6 L 54 76.6 Z" fill="url(#inkWashGrad)" stroke="#fab387" stroke-width="1.2"/>
    <circle cx="62" cy="60.64" r="5" fill="#fab387" filter="url(#goldGlow)"/>
  </g><line x1="58" y1="76" x2="61.12566719800475" y2="93.72653955421974" stroke="url(#inkWashLight)" stroke-width="5" stroke-linecap="round"/>
    <line x1="70" y1="76" x2="68.43119663054215" y2="93.93150456565142" stroke="url(#inkWashLight)" stroke-width="5" stroke-linecap="round"/>
    <circle cx="61.12566719800475" cy="93.72653955421974" r="2.5" fill="#fab387"/>
    <circle cx="68.43119663054215" cy="93.93150456565142" r="2.5" fill="#fab387"/><line x1="50" y1="56" x2="54.104241719908025" y2="44.7236885505691" stroke="url(#inkWashLight)" stroke-width="4" stroke-linecap="round"/>
    <circle cx="54.104241719908025" cy="44.7236885505691" r="2.5" fill="#fab387" filter="url(#goldGlow)"/><line x1="72" y1="56" x2="67.89575828009197" y2="44.7236885505691" stroke="url(#inkWashLight)" stroke-width="4" stroke-linecap="round"/>
    <circle cx="67.89575828009197" cy="44.7236885505691" r="2.5" fill="#fab387" filter="url(#goldGlow)"/><line x1="46" y1="44" x2="60.9129873451272" y2="22.702046848486212" stroke="url(#sakuraBlade)" stroke-width="3" stroke-linecap="round" filter="url(#sakuraGlow)"/>
    <line x1="46" y1="44" x2="60.9129873451272" y2="22.702046848486212" stroke="#cdd6f4" stroke-width="1.2" stroke-linecap="round"/><g transform="rotate(-8 62 42)">
    <ellipse cx="62" cy="42" rx="22" ry="6" fill="url(#inkWashLight)" stroke="#fab387" stroke-width="1.8"/>
    <path d="M 40 42 C 40 30 84 30 84 42 Z" fill="url(#inkWashGrad)" stroke="#fab387" stroke-width="1.2"/>
    <line x1="62" y1="30" x2="62" y2="46" stroke="#fab387" stroke-width="0.8" opacity="0.6"/>
  </g><path d="M 56 48 L 62 52 L 68 48" fill="none" stroke="#fab387" stroke-width="2.2" filter="url(#heavyGoldGlow)"/>
    <polygon points="60.5,48 62,50.5 63.5,48" fill="#cdd6f4"/></g></g>
</svg>