<svg xmlns="http://www.w3.org/2000/svg" viewBox="0 0 130 80" width="130" height="80">
    <defs>
      <filter id="glow" x="-50%" y="-50%" width="200%" height="200%">
        <feGaussianBlur stdDeviation="2.5" result="blur" />
        <feComposite in="SourceGraphic" in2="blur" operator="over" />
      </filter>
      <filter id="heavyGlow" x="-50%" y="-50%" width="200%" height="200%">
        <feGaussianBlur stdDeviation="5" result="blur" />
        <feComposite in="SourceGraphic" in2="blur" operator="over" />
      </filter>
      <linearGradient id="metal" x1="0%" y1="0%" x2="100%" y2="100%">
        <stop offset="0%" stop-color="#3a3a4f"/>
        <stop offset="50%" stop-color="#1e1e2f"/>
        <stop offset="100%" stop-color="#0a0a14"/>
      </linearGradient>
      <linearGradient id="blade" x1="0%" y1="0%" x2="100%" y2="0%">
        <stop offset="0%" stop-color="#ffffff"/>
        <stop offset="100%" stop-color="#00ffff"/>
      </linearGradient>
      <linearGradient id="energy" x1="0%" y1="0%" x2="100%" y2="100%">
        <stop offset="0%" stop-color="#ff0055"/>
        <stop offset="100%" stop-color="#ff9900"/>
      </linearGradient>
    </defs>
    
  <!-- Massive crescent slash -->
  <path d="M 20 10 A 70 70 0 0 1 120 50 L 100 60 A 50 50 0 0 0 30 30 Z" fill="#00ffff" filter="url(#heavyGlow)" opacity="0.7"/>
  <!-- Body -->
  <path d="M 25 22 L 55 22 L 50 55 L 30 55 Z" fill="url(#metal)" stroke="#00ffff" stroke-width="1.5"/>
  <circle cx="40" cy="38" r="6" fill="#00ffff"/>
  <!-- Head -->
  <path d="M 28 15 Q 40 -5 52 15 L 48 25 L 32 25 Z" fill="#0f0f15"/>
  <path d="M 36 10 L 52 10 L 44 18 Z" fill="#00ffff" filter="url(#heavyGlow)"/>
  <!-- Attacking Arm -->
  <path d="M 40 26 L 75 35 L 70 42 L 35 33 Z" fill="url(#metal)"/>
  <!-- Katana -->
  <path d="M 70 36 L 125 55 L 120 58 L 65 39 Z" fill="url(#blade)" filter="url(#heavyGlow)"/>

  </svg>