<svg xmlns="http://www.w3.org/2000/svg" viewBox="0 0 90 80" width="90" height="80">
    <defs>
      <filter id="glow" x="-50%" y="-50%" width="200%" height="200%">
        <feGaussianBlur stdDeviation="2.5" result="blur" />
        <feComposite in="SourceGraphic" in2="blur" operator="over" />
      </filter>
      <filter id="heavyGlow" x="-50%" y="-50%" width="200%" height="200%">
        <feGaussianBlur stdDeviation="5" result="blur" />
        <feComposite in="SourceGraphic" in2="blur" operator="over" />
      </filter>
      <linearGradient id="metal" x1="0%" y1="0%" x2="100%" y2="100%">
        <stop offset="0%" stop-color="#3a3a4f"/>
        <stop offset="50%" stop-color="#1e1e2f"/>
        <stop offset="100%" stop-color="#0a0a14"/>
      </linearGradient>
      <linearGradient id="blade" x1="0%" y1="0%" x2="100%" y2="0%">
        <stop offset="0%" stop-color="#ffffff"/>
        <stop offset="100%" stop-color="#00ffff"/>
      </linearGradient>
      <linearGradient id="energy" x1="0%" y1="0%" x2="100%" y2="100%">
        <stop offset="0%" stop-color="#ff0055"/>
        <stop offset="100%" stop-color="#ff9900"/>
      </linearGradient>
    </defs>
    
  <!-- Scarf Back -->
  <path d="M 35 25 Q 10 40 0 50" fill="none" stroke="url(#energy)" stroke-width="4" filter="url(#glow)"/>
  <!-- Body leaning forward -->
  <g transform="rotate(10 40 40)">
      <path d="M 25 22 L 55 22 L 50 55 L 30 55 Z" fill="url(#metal)" stroke="#00ffff" stroke-width="1.5"/>
      <!-- Head -->
      <path d="M 28 15 Q 40 -5 52 15 L 48 25 L 32 25 Z" fill="#0f0f15"/>
      <path d="M 36 10 L 52 10 L 44 18 Z" fill="#00ffff" filter="url(#glow)"/>
      <!-- Arms thrust forward -->
      <path d="M 30 30 L 70 25 L 70 35 Z" fill="url(#metal)"/>
      <!-- Energy gathering in hands -->
      <circle cx="75" cy="30" r="10" fill="#00ffff" filter="url(#heavyGlow)"/>
      <circle cx="75" cy="30" r="4" fill="#ffffff"/>
  </g>

  </svg>