<svg xmlns="http://www.w3.org/2000/svg" viewBox="0 0 90 80" width="90" height="80">
    <defs>
      <!-- Premium Oriental Cyber-Zen Filters -->
      <filter id="goldGlow" x="-50%" y="-50%" width="200%" height="200%">
        <feGaussianBlur stdDeviation="4.5" result="blur" />
        <feMerge>
          <feMergeNode in="blur" />
          <feMergeNode in="SourceGraphic" />
        </feMerge>
      </filter>
      <filter id="heavyGoldGlow" x="-80%" y="-80%" width="260%" height="260%">
        <feGaussianBlur stdDeviation="7" result="blur1" />
        <feGaussianBlur stdDeviation="2.5" result="blur2" />
        <feMerge>
          <feMergeNode in="blur1" />
          <feMergeNode in="blur2" />
          <feMergeNode in="SourceGraphic" />
        </feMerge>
      </filter>
      <filter id="sakuraGlow" x="-50%" y="-50%" width="200%" height="200%">
        <feGaussianBlur stdDeviation="4" result="blur" />
        <feMerge>
          <feMergeNode in="blur" />
          <feMergeNode in="SourceGraphic" />
        </feMerge>
      </filter>
      <filter id="inkMisty" x="-30%" y="-30%" width="160%" height="160%">
        <feGaussianBlur stdDeviation="1.8" />
      </filter>
      <filter id="redGlow" x="-40%" y="-40%" width="180%" height="180%">
        <feGaussianBlur stdDeviation="3.5" result="blur" />
        <feMerge>
          <feMergeNode in="blur" />
          <feMergeNode in="SourceGraphic" />
        </feMerge>
      </filter>

      <!-- Advanced Cyber-Zen Gradients -->
      <linearGradient id="inkWashGrad" x1="0%" y1="0%" x2="100%" y2="100%">
        <stop offset="0%" stop-color="#2a2a2a"/>
        <stop offset="60%" stop-color="#121212"/>
        <stop offset="100%" stop-color="#050505"/>
      </linearGradient>
      <linearGradient id="inkWashLight" x1="0%" y1="0%" x2="100%" y2="100%">
        <stop offset="0%" stop-color="#6e6e6e"/>
        <stop offset="50%" stop-color="#3c3c3c"/>
        <stop offset="100%" stop-color="#1c1c1c"/>
      </linearGradient>
      <linearGradient id="spiritGold" x1="0%" y1="0%" x2="100%" y2="0%">
        <stop offset="0%" stop-color="#ffffff"/>
        <stop offset="35%" stop-color="#ffe680"/>
        <stop offset="75%" stop-color="#e5c158"/>
        <stop offset="100%" stop-color="#b8860b"/>
      </linearGradient>
      <linearGradient id="sacredMaple" x1="0%" y1="0%" x2="100%" y2="100%">
        <stop offset="0%" stop-color="#ff2200"/>
        <stop offset="50%" stop-color="#d43f00"/>
        <stop offset="100%" stop-color="#800000"/>
      </linearGradient>
      <linearGradient id="sakuraBlade" x1="0%" y1="0%" x2="100%" y2="100%">
        <stop offset="0%" stop-color="#ffffff"/>
        <stop offset="40%" stop-color="#ffb3d9"/>
        <stop offset="85%" stop-color="#ff3399"/>
        <stop offset="100%" stop-color="#cc0066"/>
      </linearGradient>
      <linearGradient id="crimsonGaze" x1="0%" y1="0%" x2="100%" y2="100%">
        <stop offset="0%" stop-color="#ff3333"/>
        <stop offset="60%" stop-color="#aa0000"/>
        <stop offset="100%" stop-color="#550000"/>
      </linearGradient>
    </defs>
    
  <!-- Ribbon Scarf flying back -->
  <path d="M 32 25 C 10 38 -5 48 -18 56 C -8 44 8 32 26 28" fill="url(#sacredMaple)"/>

  <!-- Torso thrusting forward -->
  <g transform="rotate(12 40 40)">
    <path d="M 22 22 L 50 22 L 44 52 L 26 52 Z" fill="url(#inkWashGrad)" stroke="#e5c158" stroke-width="1.5"/>
    <ellipse cx="36" cy="14" rx="20" ry="5" fill="url(#inkWashLight)" stroke="#e5c158" stroke-width="1.2"/>
    <path d="M 16 14 Q 36 -6 56 14 Z" fill="url(#inkWashGrad)"/>
    
    <!-- Arms pushing forward -->
    <path d="M 28 28 L 68 25 L 68 35 Z" fill="url(#inkWashLight)"/>
    
    <!-- Swirling golden Yin-Yang spiritual ball in hands -->
    <circle cx="74" cy="30" r="15" fill="url(#spiritGold)" filter="url(#heavyGoldGlow)"/>
    <circle cx="74" cy="30" r="6" fill="#ffffff"/>
    <path d="M 74 15 A 7.5 7.5 0 0 0 74 30 A 7.5 7.5 0 0 1 74 45 A 15 15 0 0 0 74 15 Z" fill="#ffffff" opacity="0.6"/>
  </g>

  </svg>