<svg xmlns="http://www.w3.org/2000/svg" viewBox="0 0 480 480" width="480" height="480">
    <rect x="0" y="0" width="120" height="120" fill="rgb(100,50,200)" stroke="#fff" stroke-width="2"/><text x="10" y="30" font-size="20" fill="#fff">F0</text><circle cx="60" cy="60" r="15" fill="#fff" opacity="0.5"/><rect x="120" y="0" width="120" height="120" fill="rgb(110,70,195)" stroke="#fff" stroke-width="2"/><text x="130" y="30" font-size="20" fill="#fff">F1</text><circle cx="180" cy="68.41470984807897" r="15" fill="#fff" opacity="0.5"/><rect x="240" y="0" width="120" height="120" fill="rgb(120,90,190)" stroke="#fff" stroke-width="2"/><text x="250" y="30" font-size="20" fill="#fff">F2</text><circle cx="300" cy="69.09297426825682" r="15" fill="#fff" opacity="0.5"/><rect x="360" y="0" width="120" height="120" fill="rgb(130,110,185)" stroke="#fff" stroke-width="2"/><text x="370" y="30" font-size="20" fill="#fff">F3</text><circle cx="420" cy="61.411200080598675" r="15" fill="#fff" opacity="0.5"/><rect x="0" y="120" width="120" height="120" fill="rgb(140,130,180)" stroke="#fff" stroke-width="2"/><text x="10" y="150" font-size="20" fill="#fff">F4</text><circle cx="60" cy="172.4319750469207" r="15" fill="#fff" opacity="0.5"/><rect x="120" y="120" width="120" height="120" fill="rgb(150,150,175)" stroke="#fff" stroke-width="2"/><text x="130" y="150" font-size="20" fill="#fff">F5</text><circle cx="180" cy="170.41075725336862" r="15" fill="#fff" opacity="0.5"/><rect x="240" y="120" width="120" height="120" fill="rgb(160,170,170)" stroke="#fff" stroke-width="2"/><text x="250" y="150" font-size="20" fill="#fff">F6</text><circle cx="300" cy="177.20584501801073" r="15" fill="#fff" opacity="0.5"/><rect x="360" y="120" width="120" height="120" fill="rgb(170,190,165)" stroke="#fff" stroke-width="2"/><text x="370" y="150" font-size="20" fill="#fff">F7</text><circle cx="420" cy="186.56986598718788" r="15" fill="#fff" opacity="0.5"/><rect x="0" y="240" width="120" height="120" fill="rgb(180,210,160)" stroke="#fff" stroke-width="2"/><text x="10" y="270" font-size="20" fill="#fff">F8</text><circle cx="60" cy="309.8935824662338" r="15" fill="#fff" opacity="0.5"/><rect x="120" y="240" width="120" height="120" fill="rgb(190,230,155)" stroke="#fff" stroke-width="2"/><text x="130" y="270" font-size="20" fill="#fff">F9</text><circle cx="180" cy="304.12118485241757" r="15" fill="#fff" opacity="0.5"/><rect x="240" y="240" width="120" height="120" fill="rgb(200,50,150)" stroke="#fff" stroke-width="2"/><text x="250" y="270" font-size="20" fill="#fff">F10</text><circle cx="300" cy="294.5597888911063" r="15" fill="#fff" opacity="0.5"/><rect x="360" y="240" width="120" height="120" fill="rgb(210,70,145)" stroke="#fff" stroke-width="2"/><text x="370" y="270" font-size="20" fill="#fff">F11</text><circle cx="420" cy="290.00009793449294" r="15" fill="#fff" opacity="0.5"/><rect x="0" y="360" width="120" height="120" fill="rgb(220,90,140)" stroke="#fff" stroke-width="2"/><text x="10" y="390" font-size="20" fill="#fff">F12</text><circle cx="60" cy="414.63427081999566" r="15" fill="#fff" opacity="0.5"/><rect x="120" y="360" width="120" height="120" fill="rgb(230,110,135)" stroke="#fff" stroke-width="2"/><text x="130" y="390" font-size="20" fill="#fff">F13</text><circle cx="180" cy="424.20167036826643" r="15" fill="#fff" opacity="0.5"/><rect x="240" y="360" width="120" height="120" fill="rgb(240,130,130)" stroke="#fff" stroke-width="2"/><text x="250" y="390" font-size="20" fill="#fff">F14</text><circle cx="300" cy="429.9060735569487" r="15" fill="#fff" opacity="0.5"/><rect x="360" y="360" width="120" height="120" fill="rgb(250,150,125)" stroke="#fff" stroke-width="2"/><text x="370" y="390" font-size="20" fill="#fff">F15</text><circle cx="420" cy="426.5028784015712" r="15" fill="#fff" opacity="0.5"/>
  </svg>