<svg xmlns="http://www.w3.org/2000/svg" viewBox="0 0 360 120" width="360" height="120">
  <defs>
  <filter id="goldGlow" x="-50%" y="-50%" width="200%" height="200%">
    <feGaussianBlur stdDeviation="3" result="blur"/>
    <feMerge><feMergeNode in="blur"/><feMergeNode in="SourceGraphic"/></feMerge>
  </filter>
  <filter id="heavyGoldGlow" x="-80%" y="-80%" width="260%" height="260%">
    <feGaussianBlur stdDeviation="5" result="blur1"/>
    <feGaussianBlur stdDeviation="1.5" result="blur2"/>
    <feMerge><feMergeNode in="blur1"/><feMergeNode in="blur2"/><feMergeNode in="SourceGraphic"/></feMerge>
  </filter>
  <filter id="sakuraGlow" x="-50%" y="-50%" width="200%" height="200%">
    <feGaussianBlur stdDeviation="3.5" result="blur"/>
    <feMerge><feMergeNode in="blur"/><feMergeNode in="SourceGraphic"/></feMerge>
  </filter>
  <filter id="inkMisty" x="-30%" y="-30%" width="160%" height="160%">
    <feGaussianBlur stdDeviation="1.5"/>
  </filter>
  <filter id="redGlow" x="-40%" y="-40%" width="180%" height="180%">
    <feGaussianBlur stdDeviation="3" result="blur"/>
    <feMerge><feMergeNode in="blur"/><feMergeNode in="SourceGraphic"/></feMerge>
  </filter>
  <linearGradient id="inkWashGrad" x1="0%" y1="0%" x2="100%" y2="100%">
    <stop offset="0%" stop-color="#e7f5ff"/><stop offset="60%" stop-color="#a5d8ff"/><stop offset="100%" stop-color="#74c0fc"/>
  </linearGradient>
  <linearGradient id="inkWashLight" x1="0%" y1="0%" x2="100%" y2="100%">
    <stop offset="0%" stop-color="#f8f9fa"/><stop offset="50%" stop-color="#e9ecef"/><stop offset="100%" stop-color="#dee2e6"/>
  </linearGradient>
  <linearGradient id="spiritGold" x1="0%" y1="0%" x2="100%" y2="0%">
    <stop offset="0%" stop-color="#fff9db"/><stop offset="35%" stop-color="#ffe066"/><stop offset="75%" stop-color="#ffd43b"/><stop offset="100%" stop-color="#fab005"/>
  </linearGradient>
  <linearGradient id="sacredMaple" x1="0%" y1="0%" x2="100%" y2="100%">
    <stop offset="0%" stop-color="#fff5f5"/><stop offset="50%" stop-color="#ffc9c9"/><stop offset="100%" stop-color="#ff8787"/>
  </linearGradient>
  <linearGradient id="sakuraBlade" x1="0%" y1="0%" x2="100%" y2="100%">
    <stop offset="0%" stop-color="#e3fafc"/><stop offset="40%" stop-color="#96f2d7"/><stop offset="85%" stop-color="#3bc9db"/><stop offset="100%" stop-color="#15aabf"/>
  </linearGradient>
  <linearGradient id="crimsonGaze" x1="0%" y1="0%" x2="100%" y2="100%">
    <stop offset="0%" stop-color="#ff8787"/><stop offset="60%" stop-color="#ff6b6b"/><stop offset="100%" stop-color="#495057"/>
  </linearGradient>
</defs>
  <g transform="translate(0, 0)"><clipPath id="frame0"><rect x="0" y="0" width="120" height="120"/></clipPath><g clip-path="url(#frame0)"><path d="M 56.6 58 C 50 78 52 88 57 93 C 65 85 62.6 62 56.6 58" fill="url(#sacredMaple)" opacity="0.85" filter="url(#sakuraGlow)"/><g transform="rotate(-5 60 52)">
    <path d="M 48 52 L 72 52 L 68 74.4 L 52 74.4 Z" fill="url(#inkWashGrad)" stroke="#495057" stroke-width="1.2"/>
    <circle cx="60" cy="60.96" r="5" fill="#74c0fc" filter="url(#goldGlow)"/>
  </g><line x1="54" y1="72" x2="48.08334433563021" y2="84.6883090185131" stroke="url(#inkWashLight)" stroke-width="5" stroke-linecap="round"/>
    <line x1="66" y1="72" x2="71.9166556643698" y2="84.6883090185131" stroke="url(#inkWashLight)" stroke-width="5" stroke-linecap="round"/>
    <circle cx="48.08334433563021" cy="84.6883090185131" r="2.5" fill="#495057"/>
    <circle cx="71.9166556643698" cy="84.6883090185131" r="2.5" fill="#495057"/><line x1="48" y1="58" x2="42" y2="47.607695154586736" stroke="url(#inkWashLight)" stroke-width="4" stroke-linecap="round"/>
    <circle cx="42" cy="47.607695154586736" r="2.5" fill="#74c0fc" filter="url(#goldGlow)"/><line x1="72" y1="58" x2="78" y2="47.607695154586736" stroke="url(#inkWashLight)" stroke-width="4" stroke-linecap="round"/>
    <circle cx="78" cy="47.607695154586736" r="2.5" fill="#74c0fc" filter="url(#goldGlow)"/><line x1="44" y1="48" x2="48.51485261934019" y2="22.39499842168259" stroke="url(#sakuraBlade)" stroke-width="3" stroke-linecap="round" filter="url(#sakuraGlow)"/>
    <line x1="44" y1="48" x2="48.51485261934019" y2="22.39499842168259" stroke="#ffffff" stroke-width="1.2" stroke-linecap="round"/><g transform="rotate(0 60 44)">
    <ellipse cx="60" cy="44" rx="22" ry="6" fill="url(#inkWashLight)" stroke="#495057" stroke-width="1.8"/>
    <path d="M 38 44 C 38 32 82 32 82 44 Z" fill="url(#inkWashGrad)" stroke="#495057" stroke-width="1.2"/>
    <line x1="60" y1="32" x2="60" y2="48" stroke="#495057" stroke-width="0.8" opacity="0.6"/>
  </g><path d="M 54 50 L 60 54 L 66 50" fill="none" stroke="#ff8787" stroke-width="2.2" filter="url(#heavyGoldGlow)"/>
    <polygon points="58.5,50 60,52.5 61.5,50" fill="#ffffff"/></g></g><g transform="translate(120, 0)"><clipPath id="frame1"><rect x="0" y="0" width="120" height="120"/></clipPath><g clip-path="url(#frame1)"><path d="M 54.5 52 C 35 75 37.5 85 42.5 90 C 50.5 82 60.5 56 54.5 52" fill="url(#sacredMaple)" opacity="0.85" filter="url(#sakuraGlow)"/><g transform="rotate(-3 60 46)">
    <path d="M 48 46 L 72 46 L 68 75.4 L 52 75.4 Z" fill="url(#inkWashGrad)" stroke="#495057" stroke-width="1.2"/>
    <circle cx="60" cy="57.760000000000005" r="5" fill="#74c0fc" filter="url(#goldGlow)"/>
  </g><line x1="54" y1="74" x2="51.22162915732911" y2="89.75692404819533" stroke="url(#inkWashLight)" stroke-width="5" stroke-linecap="round"/>
    <line x1="66" y1="74" x2="68.77837084267088" y2="89.75692404819533" stroke="url(#inkWashLight)" stroke-width="5" stroke-linecap="round"/>
    <circle cx="51.22162915732911" cy="89.75692404819533" r="2.5" fill="#495057"/>
    <circle cx="68.77837084267088" cy="89.75692404819533" r="2.5" fill="#495057"/><line x1="48" y1="52" x2="39.00097346438845" y2="41.27537779633431" stroke="url(#inkWashLight)" stroke-width="4" stroke-linecap="round"/>
    <circle cx="39.00097346438845" cy="41.27537779633431" r="2.5" fill="#74c0fc" filter="url(#goldGlow)"/><line x1="72" y1="52" x2="80.99902653561155" y2="41.27537779633431" stroke="url(#inkWashLight)" stroke-width="4" stroke-linecap="round"/>
    <circle cx="80.99902653561155" cy="41.27537779633431" r="2.5" fill="#74c0fc" filter="url(#goldGlow)"/><line x1="76" y1="42" x2="97.44924440733138" y2="24.001946928776903" stroke="url(#sakuraBlade)" stroke-width="3" stroke-linecap="round" filter="url(#sakuraGlow)"/>
    <line x1="76" y1="42" x2="97.44924440733138" y2="24.001946928776903" stroke="#ffffff" stroke-width="1.2" stroke-linecap="round"/><g transform="rotate(-3 60 38)">
    <ellipse cx="60" cy="38" rx="22" ry="6" fill="url(#inkWashLight)" stroke="#495057" stroke-width="1.8"/>
    <path d="M 38 38 C 38 26 82 26 82 38 Z" fill="url(#inkWashGrad)" stroke="#495057" stroke-width="1.2"/>
    <line x1="60" y1="26" x2="60" y2="42" stroke="#495057" stroke-width="0.8" opacity="0.6"/>
  </g><path d="M 54 44 L 60 48 L 66 44" fill="none" stroke="#ff8787" stroke-width="2.2" filter="url(#heavyGoldGlow)"/>
    <polygon points="58.5,44 60,46.5 61.5,44" fill="#ffffff"/></g></g><g transform="translate(240, 0)"><clipPath id="frame2"><rect x="0" y="0" width="120" height="120"/></clipPath><g clip-path="url(#frame2)"><path d="M 53.6 46 C 26 73 30 83 35 88 C 43 80 59.6 50 53.6 46" fill="url(#sacredMaple)" opacity="0.85" filter="url(#sakuraGlow)"/><g transform="rotate(0 60 44)">
    <path d="M 48 44 L 72 44 L 68 67.8 L 52 67.8 Z" fill="url(#inkWashGrad)" stroke="#495057" stroke-width="1.2"/>
    <circle cx="60" cy="53.52" r="5" fill="#74c0fc" filter="url(#goldGlow)"/>
  </g><line x1="54" y1="66" x2="48" y2="76.39230484541326" stroke="url(#inkWashLight)" stroke-width="5" stroke-linecap="round"/>
    <line x1="66" y1="66" x2="72" y2="76.39230484541326" stroke="url(#inkWashLight)" stroke-width="5" stroke-linecap="round"/>
    <circle cx="48" cy="76.39230484541326" r="2.5" fill="#495057"/>
    <circle cx="72" cy="76.39230484541326" r="2.5" fill="#495057"/><line x1="48" y1="50" x2="46.2635182233307" y2="40.15192246987792" stroke="url(#inkWashLight)" stroke-width="4" stroke-linecap="round"/>
    <circle cx="46.2635182233307" cy="40.15192246987792" r="2.5" fill="#74c0fc" filter="url(#goldGlow)"/><line x1="72" y1="50" x2="73.73648177666931" y2="40.15192246987792" stroke="url(#inkWashLight)" stroke-width="4" stroke-linecap="round"/>
    <circle cx="73.73648177666931" cy="40.15192246987792" r="2.5" fill="#74c0fc" filter="url(#goldGlow)"/><line x1="46" y1="38" x2="58" y2="17.215390309173472" stroke="url(#sakuraBlade)" stroke-width="3" stroke-linecap="round" filter="url(#sakuraGlow)"/>
    <line x1="46" y1="38" x2="58" y2="17.215390309173472" stroke="#ffffff" stroke-width="1.2" stroke-linecap="round"/><g transform="rotate(2 60 36)">
    <ellipse cx="60" cy="36" rx="22" ry="6" fill="url(#inkWashLight)" stroke="#495057" stroke-width="1.8"/>
    <path d="M 38 36 C 38 24 82 24 82 36 Z" fill="url(#inkWashGrad)" stroke="#495057" stroke-width="1.2"/>
    <line x1="60" y1="24" x2="60" y2="40" stroke="#495057" stroke-width="0.8" opacity="0.6"/>
  </g><path d="M 54 42 L 60 46 L 66 42" fill="none" stroke="#ff8787" stroke-width="2.2" filter="url(#heavyGoldGlow)"/>
    <polygon points="58.5,42 60,44.5 61.5,42" fill="#ffffff"/></g></g>
</svg>