<svg xmlns="http://www.w3.org/2000/svg" viewBox="0 0 100 100" width="100" height="100">
    <defs>
      <!-- Premium Oriental Cyber-Zen Filters -->
      <filter id="goldGlow" x="-50%" y="-50%" width="200%" height="200%">
        <feGaussianBlur stdDeviation="4.5" result="blur" />
        <feMerge>
          <feMergeNode in="blur" />
          <feMergeNode in="SourceGraphic" />
        </feMerge>
      </filter>
      <filter id="heavyGoldGlow" x="-80%" y="-80%" width="260%" height="260%">
        <feGaussianBlur stdDeviation="7" result="blur1" />
        <feGaussianBlur stdDeviation="2.5" result="blur2" />
        <feMerge>
          <feMergeNode in="blur1" />
          <feMergeNode in="blur2" />
          <feMergeNode in="SourceGraphic" />
        </feMerge>
      </filter>
      <filter id="sakuraGlow" x="-50%" y="-50%" width="200%" height="200%">
        <feGaussianBlur stdDeviation="4" result="blur" />
        <feMerge>
          <feMergeNode in="blur" />
          <feMergeNode in="SourceGraphic" />
        </feMerge>
      </filter>
      <filter id="inkMisty" x="-30%" y="-30%" width="160%" height="160%">
        <feGaussianBlur stdDeviation="1.8" />
      </filter>
      <filter id="redGlow" x="-40%" y="-40%" width="180%" height="180%">
        <feGaussianBlur stdDeviation="3.5" result="blur" />
        <feMerge>
          <feMergeNode in="blur" />
          <feMergeNode in="SourceGraphic" />
        </feMerge>
      </filter>

      <!-- Advanced Cyber-Zen Gradients -->
      <linearGradient id="inkWashGrad" x1="0%" y1="0%" x2="100%" y2="100%">
        <stop offset="0%" stop-color="#2a2a2a"/>
        <stop offset="60%" stop-color="#121212"/>
        <stop offset="100%" stop-color="#050505"/>
      </linearGradient>
      <linearGradient id="inkWashLight" x1="0%" y1="0%" x2="100%" y2="100%">
        <stop offset="0%" stop-color="#6e6e6e"/>
        <stop offset="50%" stop-color="#3c3c3c"/>
        <stop offset="100%" stop-color="#1c1c1c"/>
      </linearGradient>
      <linearGradient id="spiritGold" x1="0%" y1="0%" x2="100%" y2="0%">
        <stop offset="0%" stop-color="#ffffff"/>
        <stop offset="35%" stop-color="#ffe680"/>
        <stop offset="75%" stop-color="#e5c158"/>
        <stop offset="100%" stop-color="#b8860b"/>
      </linearGradient>
      <linearGradient id="sacredMaple" x1="0%" y1="0%" x2="100%" y2="100%">
        <stop offset="0%" stop-color="#ff2200"/>
        <stop offset="50%" stop-color="#d43f00"/>
        <stop offset="100%" stop-color="#800000"/>
      </linearGradient>
      <linearGradient id="sakuraBlade" x1="0%" y1="0%" x2="100%" y2="100%">
        <stop offset="0%" stop-color="#ffffff"/>
        <stop offset="40%" stop-color="#ffb3d9"/>
        <stop offset="85%" stop-color="#ff3399"/>
        <stop offset="100%" stop-color="#cc0066"/>
      </linearGradient>
      <linearGradient id="crimsonGaze" x1="0%" y1="0%" x2="100%" y2="100%">
        <stop offset="0%" stop-color="#ff3333"/>
        <stop offset="60%" stop-color="#aa0000"/>
        <stop offset="100%" stop-color="#550000"/>
      </linearGradient>
    </defs>
    
  <!-- Blazing vertical ink-crescent and sakura flame -->
  <path d="M 38 95 C 68 60 62 10 50 -2 L 35 8 C 45 45 40 70 15 85 Z" fill="url(#inkWashGrad)" filter="url(#inkMisty)" opacity="0.95"/>
  <path d="M 36 90 C 58 60 55 25 45 5 L 38 10 C 45 40 40 65 22 80 Z" fill="url(#sakuraBlade)" filter="url(#sakuraGlow)" opacity="0.85"/>
  <path d="M 34 85 C 50 55 48 30 40 12 L 36 15 C 40 38 36 60 25 75 Z" fill="#ffffff" opacity="0.95"/>

  <!-- Floating sacred paper talismans with golden symbols -->
  <g filter="url(#goldGlow)">
    <rect x="54" y="20" width="8" height="16" rx="1.5" fill="#e5c158" transform="rotate(25 58 28)"/>
    <path d="M 57 23 L 59 33 M 56 26 L 60 26" stroke="#cc1100" stroke-width="1"/>
    
    <rect x="22" y="38" width="6" height="12" rx="1" fill="#e5c158" transform="rotate(-15 25 44)"/>
    
    <rect x="64" y="5" width="10" height="20" rx="2" fill="#ffffff" transform="rotate(45 69 15)"/>
    <path d="M 67 9 Q 71 14 69 21" fill="none" stroke="#cc1100" stroke-width="1.2"/>
  </g>

  <!-- Dynamic posing body -->
  <g transform="translate(0, 10)">
    <path d="M 22 28 L 50 28 L 44 58 L 26 58 Z" fill="url(#inkWashGrad)" stroke="#e5c158" stroke-width="1.5"/>
    <ellipse cx="36" cy="20" rx="22" ry="6" fill="url(#inkWashLight)" stroke="#e5c158" stroke-width="1.5"/>
    <path d="M 14 20 Q 36 4 58 20 Z" fill="url(#inkWashGrad)"/>
    
    <!-- Laser Katana raised vertically -->
    <path d="M 48 34 L 56 -5 L 61 -5 L 53 34 Z" fill="url(#sakuraBlade)" filter="url(#sakuraGlow)"/>
  </g>

  </svg>