<svg xmlns="http://www.w3.org/2000/svg" viewBox="0 0 100 100" width="100" height="100">
    <defs>
      <filter id="glow" x="-50%" y="-50%" width="200%" height="200%">
        <feGaussianBlur stdDeviation="2.5" result="blur" />
        <feComposite in="SourceGraphic" in2="blur" operator="over" />
      </filter>
      <filter id="heavyGlow" x="-50%" y="-50%" width="200%" height="200%">
        <feGaussianBlur stdDeviation="5" result="blur" />
        <feComposite in="SourceGraphic" in2="blur" operator="over" />
      </filter>
      <linearGradient id="metal" x1="0%" y1="0%" x2="100%" y2="100%">
        <stop offset="0%" stop-color="#3a3a4f"/>
        <stop offset="50%" stop-color="#1e1e2f"/>
        <stop offset="100%" stop-color="#0a0a14"/>
      </linearGradient>
      <linearGradient id="blade" x1="0%" y1="0%" x2="100%" y2="0%">
        <stop offset="0%" stop-color="#ffffff"/>
        <stop offset="100%" stop-color="#00ffff"/>
      </linearGradient>
      <linearGradient id="energy" x1="0%" y1="0%" x2="100%" y2="100%">
        <stop offset="0%" stop-color="#ff0055"/>
        <stop offset="100%" stop-color="#ff9900"/>
      </linearGradient>
    </defs>
    
  <!-- Vertical Slash -->
  <path d="M 40 90 Q 70 50 60 0 L 45 10 Q 55 50 30 80 Z" fill="#00ffff" filter="url(#heavyGlow)" opacity="0.8"/>
  <path d="M 25 32 L 55 32 L 50 65 L 30 65 Z" fill="url(#metal)"/>
  <path d="M 28 25 Q 40 5 52 25 L 48 35 L 32 35 Z" fill="#0f0f15"/>
  <path d="M 36 20 L 52 20 L 44 28 Z" fill="#00ffff" filter="url(#glow)"/>
  <!-- Katana -->
  <path d="M 55 40 L 65 0 L 70 0 L 60 40 Z" fill="url(#blade)" filter="url(#heavyGlow)"/>

  </svg>