<svg xmlns="http://www.w3.org/2000/svg" viewBox="0 0 1280 720" width="1280" height="720">
    <defs>
      <filter id="bgGlow" x="-50%" y="-50%" width="200%" height="200%">
        <feGaussianBlur stdDeviation="5.5" result="blur"/>
        <feMerge><feMergeNode in="blur"/><feMergeNode in="SourceGraphic"/></feMerge>
      </filter>
      <filter id="inkMistyBg" x="-30%" y="-30%" width="160%" height="160%">
        <feGaussianBlur stdDeviation="8"/>
      </filter>
      <linearGradient id="parchmentFade" x1="0%" y1="0%" x2="0%" y2="100%">
        <stop offset="0%" stop-color="#fdfbf7"/><stop offset="40%" stop-color="#f5efe0"/><stop offset="85%" stop-color="#ede3cd"/><stop offset="100%" stop-color="#dfd2b5"/>
      </linearGradient>
      <linearGradient id="inkMistyFade" x1="0%" y1="0%" x2="0%" y2="100%">
        <stop offset="0%" stop-color="#ede3cd"/><stop offset="50%" stop-color="#ccc1aa"/><stop offset="100%" stop-color="#a69b85"/>
      </linearGradient>
      <linearGradient id="spiritGold" x1="0%" y1="0%" x2="100%" y2="0%">
        <stop offset="0%" stop-color="#cdd6f4"/><stop offset="35%" stop-color="#f9e2af"/><stop offset="75%" stop-color="#fab387"/><stop offset="100%" stop-color="#fab387"/>
      </linearGradient>
    </defs>
    
  <defs>
    <linearGradient id="pagodaGrad" x1="0%" y1="0%" x2="0%" y2="100%">
      <stop offset="0%" stop-color="#f1f3f5"/><stop offset="100%" stop-color="#dee2e6"/>
    </linearGradient>
  </defs>
  <g fill="url(#pagodaGrad)" stroke="#ced4da" stroke-width="1.8">
    <rect x="50" y="280" width="130" height="440"/>
    <path d="M 30 280 Q 115 220 200 280" fill="url(#pagodaGrad)" stroke="#74c0fc" stroke-width="2"/>
    <rect x="290" y="160" width="170" height="560"/>
    <path d="M 270 160 Q 375 100 480 160" fill="url(#pagodaGrad)" stroke="#74c0fc" stroke-width="2"/>
    <rect x="560" y="320" width="160" height="400"/>
    <path d="M 540 320 Q 640 260 740 320" fill="url(#pagodaGrad)" stroke="#74c0fc" stroke-width="2"/>
    <rect x="800" y="110" width="160" height="610"/>
    <path d="M 780 110 Q 880 50 980 110" fill="url(#pagodaGrad)" stroke="#74c0fc" stroke-width="2"/>
    <rect x="1060" y="240" width="150" height="480"/>
    <path d="M 1040 240 Q 1135 180 1230 240" fill="url(#pagodaGrad)" stroke="#74c0fc" stroke-width="2"/>
  </g>
  <g filter="url(#bgGlow)">
    <rect x="850" y="170" width="60" height="240" rx="10" fill="rgba(255,255,255,0.85)" stroke="#74c0fc" stroke-width="1.5"/>
    <text x="862" y="225" font-family="serif" font-weight="bold" font-size="48" fill="#495057">忍</text>
    <text x="862" y="325" font-family="serif" font-weight="bold" font-size="48" fill="#74c0fc">禅</text>
  </g>

  </svg>