<svg xmlns="http://www.w3.org/2000/svg" viewBox="0 0 1280 720" width="1280" height="720">
    <defs>
      <filter id="bgGlow" x="-50%" y="-50%" width="200%" height="200%">
        <feGaussianBlur stdDeviation="4" result="blur" />
        <feComposite in="SourceGraphic" in2="blur" operator="over" />
      </filter>
      <pattern id="grid" width="40" height="40" patternUnits="userSpaceOnUse">
        <path d="M 40 0 L 0 0 0 40" fill="none" stroke="#00ffff" stroke-width="0.5" opacity="0.15"/>
      </pattern>
      <linearGradient id="bgFade" x1="0%" y1="0%" x2="0%" y2="100%">
        <stop offset="0%" stop-color="#05050a"/>
        <stop offset="50%" stop-color="#151025"/>
        <stop offset="100%" stop-color="#2a1b40"/>
      </linearGradient>
    </defs>
    
  <defs>
    <linearGradient id="bldg" x1="0%" y1="0%" x2="0%" y2="100%">
      <stop offset="0%" stop-color="#141428"/>
      <stop offset="100%" stop-color="#0a0a14"/>
    </linearGradient>
  </defs>
  
  <!-- Buildings -->
  <g fill="url(#bldg)" stroke="#00ffff" stroke-width="1.5">
    <rect x="50" y="280" width="140" height="440" />
    <polygon points="50,280 120,220 190,280" fill="url(#bldg)"/>
    <rect x="280" y="180" width="160" height="540" />
    <rect x="520" y="320" width="180" height="400" />
    <rect x="760" y="120" width="150" height="600" />
    <polygon points="760,120 835,60 910,120" fill="url(#bldg)"/>
    <rect x="1000" y="250" width="160" height="470" />
  </g>

  <!-- Intense Neon Accents -->
  <g filter="url(#bgGlow)">
    <!-- Bldg 1 Windows -->
    <rect x="70" y="320" width="20" height="40" fill="#00ffff" opacity="0.9"/>
    <rect x="110" y="320" width="20" height="40" fill="#00ffff" opacity="0.9"/>
    <rect x="150" y="320" width="20" height="40" fill="#00ffff" opacity="0.9"/>
    <rect x="70" y="380" width="20" height="40" fill="#ff0055" opacity="0.8"/>
    <!-- Bldg 2 Cyber Lines -->
    <line x1="280" y1="250" x2="440" y2="250" stroke="#f39c12" stroke-width="6"/>
    <rect x="320" y="280" width="15" height="150" fill="#ff0055" opacity="0.8"/>
    <rect x="360" y="280" width="15" height="150" fill="#ff0055" opacity="0.8"/>
    <rect x="400" y="280" width="15" height="150" fill="#ff0055" opacity="0.8"/>
    <!-- Bldg 4 Hologram Text -->
    <text x="800" y="200" font-family="Impact" font-size="60" fill="#00ffff" transform="rotate(90 800 200)">NINJA</text>
    <text x="860" y="200" font-family="Impact" font-size="60" fill="#ff0055" transform="rotate(90 860 200)">CYBER</text>
    <!-- Bldg 5 Grid -->
    <path d="M 1020 300 L 1140 300 M 1020 330 L 1140 330 M 1020 360 L 1140 360" stroke="#00ffcc" stroke-width="4"/>
  </g>

  </svg>