<svg xmlns="http://www.w3.org/2000/svg" viewBox="0 0 1280 720" width="1280" height="720">
    
  <defs>
    <linearGradient id="bldgGrad" x1="0%" y1="0%" x2="0%" y2="100%">
      <stop offset="0%" stop-color="#1c1c2d"/>
      <stop offset="100%" stop-color="#0a0a14"/>
    </linearGradient>
    <filter id="neonGlow" x="-50%" y="-50%" width="200%" height="200%">
      <feGaussianBlur stdDeviation="2" result="blur" />
      <feComposite in="SourceGraphic" in2="blur" operator="over" />
    </filter>
  </defs>

  <!-- Buildings -->
  <g fill="url(#bldgGrad)" stroke="#3a2e5d" stroke-width="2">
    <rect x="80" y="320" width="100" height="400" />
    <polygon points="80,320 130,280 180,320" fill="url(#bldgGrad)"/>
    
    <rect x="250" y="220" width="140" height="500" />
    <rect x="280" y="180" width="80" height="40" />
    <line x1="320" y1="180" x2="320" y2="120" stroke="#e94560" stroke-width="2"/>

    <rect x="480" y="380" width="120" height="340" />

    <rect x="680" y="150" width="180" height="570" />
    <polygon points="680,150 770,100 860,150" fill="url(#bldgGrad)"/>

    <rect x="950" y="280" width="120" height="440" />
    <rect x="1150" y="350" width="100" height="370" />
  </g>

  <!-- Detailed Neon Windows & Accents -->
  <g filter="url(#neonGlow)">
    <!-- Bldg 1 -->
    <rect x="100" y="350" width="15" height="30" fill="#00ffff" opacity="0.8"/>
    <rect x="140" y="350" width="15" height="30" fill="#00ffff" opacity="0.8"/>
    <rect x="100" y="400" width="15" height="30" fill="#e94560" opacity="0.6"/>
    <!-- Bldg 2 -->
    <line x1="250" y1="300" x2="390" y2="300" stroke="#00ffff" stroke-width="4"/>
    <rect x="270" y="320" width="10" height="80" fill="#e94560" opacity="0.7"/>
    <rect x="300" y="320" width="10" height="80" fill="#e94560" opacity="0.7"/>
    <rect x="330" y="320" width="10" height="80" fill="#e94560" opacity="0.7"/>
    <!-- Bldg 4 (Tall) -->
    <text x="730" y="250" font-family="Arial" font-size="40" font-weight="bold" fill="#00ffff" transform="rotate(90 730 250)">CYBER</text>
    <!-- Bldg 5 -->
    <line x1="950" y1="350" x2="1070" y2="350" stroke="#f39c12" stroke-width="4"/>
    <rect x="980" y="380" width="60" height="20" fill="#f39c12" opacity="0.8"/>
    <rect x="980" y="420" width="60" height="20" fill="#f39c12" opacity="0.8"/>
  </g>

  </svg>