<svg xmlns="http://www.w3.org/2000/svg" viewBox="0 0 1280 720" width="1280" height="720">
    <defs>
      <filter id="bgGlow" x="-50%" y="-50%" width="200%" height="200%">
        <feGaussianBlur stdDeviation="4" result="blur" />
        <feComposite in="SourceGraphic" in2="blur" operator="over" />
      </filter>
      <pattern id="grid" width="40" height="40" patternUnits="userSpaceOnUse">
        <path d="M 40 0 L 0 0 0 40" fill="none" stroke="#00ffff" stroke-width="0.5" opacity="0.15"/>
      </pattern>
      <linearGradient id="bgFade" x1="0%" y1="0%" x2="0%" y2="100%">
        <stop offset="0%" stop-color="#05050a"/>
        <stop offset="50%" stop-color="#151025"/>
        <stop offset="100%" stop-color="#2a1b40"/>
      </linearGradient>
    </defs>
    
  <g fill="#0c3a1c" stroke="#00ff55" stroke-width="2">
    <rect x="200" y="100" width="80" height="620" />
    <rect x="600" y="50" width="100" height="670" />
    <rect x="900" y="150" width="70" height="570" />
    <!-- Angular Digital Leaves -->
    <polygon points="150,200 240,100 330,200 240,150" fill="#0f4a25"/>
    <polygon points="500,150 650,50 800,150 650,100" fill="#0f4a25"/>
    <polygon points="800,250 935,150 1070,250 935,200" fill="#0f4a25"/>
  </g>
  <g fill="#00ff55" filter="url(#bgGlow)">
    <rect x="235" y="300" width="10" height="80" rx="5"/>
    <rect x="640" y="250" width="20" height="120" rx="10"/>
    <circle cx="935" cy="400" r="15"/>
    <!-- Floating Data Spores -->
    <circle cx="300" cy="400" r="4"/><circle cx="500" cy="500" r="3"/>
    <circle cx="800" cy="300" r="5"/><circle cx="1100" cy="450" r="4"/>
  </g>

  </svg>