<svg xmlns="http://www.w3.org/2000/svg" viewBox="0 0 1280 720" width="1280" height="720">
    <defs>
      <filter id="bgGlow" x="-50%" y="-50%" width="200%" height="200%">
        <feGaussianBlur stdDeviation="5.5" result="blur"/>
        <feMerge><feMergeNode in="blur"/><feMergeNode in="SourceGraphic"/></feMerge>
      </filter>
      <filter id="inkMistyBg" x="-30%" y="-30%" width="160%" height="160%">
        <feGaussianBlur stdDeviation="8"/>
      </filter>
      <linearGradient id="parchmentFade" x1="0%" y1="0%" x2="0%" y2="100%">
        <stop offset="0%" stop-color="#fdfbf7"/><stop offset="40%" stop-color="#f5efe0"/><stop offset="85%" stop-color="#ede3cd"/><stop offset="100%" stop-color="#dfd2b5"/>
      </linearGradient>
      <linearGradient id="inkMistyFade" x1="0%" y1="0%" x2="0%" y2="100%">
        <stop offset="0%" stop-color="#ede3cd"/><stop offset="50%" stop-color="#ccc1aa"/><stop offset="100%" stop-color="#a69b85"/>
      </linearGradient>
      <linearGradient id="spiritGold" x1="0%" y1="0%" x2="100%" y2="0%">
        <stop offset="0%" stop-color="#cdd6f4"/><stop offset="35%" stop-color="#f9e2af"/><stop offset="75%" stop-color="#fab387"/><stop offset="100%" stop-color="#fab387"/>
      </linearGradient>
    </defs>
    
  <g fill="#e9ecef" stroke="#ced4da" stroke-width="2">
    <rect x="180" y="80" width="70" height="640" rx="8"/>
    <rect x="580" y="40" width="90" height="680" rx="10"/>
    <rect x="880" y="120" width="65" height="600" rx="8"/>
    <rect x="178" y="240" width="74" height="6" fill="#74c0fc"/>
    <rect x="578" y="200" width="94" height="8" fill="#74c0fc"/>
    <rect x="878" y="300" width="69" height="6" fill="#74c0fc"/>
    <polygon points="120,180 200,90 280,180 200,140" fill="#63e6be" stroke="#51cf66" stroke-width="1.2"/>
    <polygon points="480,130 625,30 770,130 625,90" fill="#e9ecef" stroke="#ced4da" stroke-width="1.2"/>
    <polygon points="780,220 910,120 1040,220 910,180" fill="#63e6be" stroke="#51cf66" stroke-width="1.2"/>
  </g>
  <g fill="#74c0fc" filter="url(#bgGlow)">
    <rect x="207" y="270" width="16" height="50" rx="4"/>
    <rect x="612" y="220" width="26" height="80" rx="6" fill="#ffffff"/>
    <rect x="898" y="320" width="28" height="60" rx="5"/>
  </g>

  </svg>