<svg xmlns="http://www.w3.org/2000/svg" viewBox="0 0 64 64" width="64" height="64">
    <defs>
      <filter id="bgGlow" x="-50%" y="-50%" width="200%" height="200%">
        <feGaussianBlur stdDeviation="5.5" result="blur"/>
        <feMerge><feMergeNode in="blur"/><feMergeNode in="SourceGraphic"/></feMerge>
      </filter>
      <filter id="inkMistyBg" x="-30%" y="-30%" width="160%" height="160%">
        <feGaussianBlur stdDeviation="8"/>
      </filter>
      <linearGradient id="parchmentFade" x1="0%" y1="0%" x2="0%" y2="100%">
        <stop offset="0%" stop-color="#fdfbf7"/><stop offset="40%" stop-color="#f5efe0"/><stop offset="85%" stop-color="#ede3cd"/><stop offset="100%" stop-color="#dfd2b5"/>
      </linearGradient>
      <linearGradient id="inkMistyFade" x1="0%" y1="0%" x2="0%" y2="100%">
        <stop offset="0%" stop-color="#ede3cd"/><stop offset="50%" stop-color="#ccc1aa"/><stop offset="100%" stop-color="#a69b85"/>
      </linearGradient>
      <linearGradient id="spiritGold" x1="0%" y1="0%" x2="100%" y2="0%">
        <stop offset="0%" stop-color="#cdd6f4"/><stop offset="35%" stop-color="#f9e2af"/><stop offset="75%" stop-color="#fab387"/><stop offset="100%" stop-color="#fab387"/>
      </linearGradient>
    </defs>
    
  <rect width="64" height="64" fill="url(#inkWashGrad)" stroke="#1e1e2e" stroke-width="2.5"/>
  <path d="M 0 18 Q 32 12 64 18 M 0 34 Q 32 28 64 34 M 0 50 Q 32 44 64 50" stroke="#585b70" stroke-width="1.8"/>
  <rect x="0" y="0" width="64" height="6.5" fill="#fab387" filter="url(#bgGlow)"/>
  <rect x="0" y="0" width="64" height="2" fill="#cdd6f4"/>
  <rect x="12" y="2.5" width="4" height="2" fill="#cba6f7"/>
  <rect x="30" y="2.5" width="4" height="2" fill="#cba6f7"/>
  <rect x="48" y="2.5" width="4" height="2" fill="#cba6f7"/>
  <circle cx="8" cy="12" r="2.8" fill="#fab387" filter="url(#bgGlow)"/>
  <circle cx="56" cy="12" r="2.8" fill="#fab387" filter="url(#bgGlow)"/>

  </svg>